<?xml version="1.0" encoding="UTF-8"?>
<!DOCTYPE svg PUBLIC "-//W3C//DTD SVG 1.1//EN" "http://www.w3.org/Graphics/SVG/1.1/DTD/svg11.dtd">
<svg xmlns="http://www.w3.org/2000/svg" version="1.1" width="214px" height="235px" style="shape-rendering:geometricPrecision; text-rendering:geometricPrecision; image-rendering:optimizeQuality; fill-rule:evenodd; clip-rule:evenodd" xmlns:xlink="http://www.w3.org/1999/xlink">
<g><path style="opacity:1" fill="#b19a8b" d="M -0.5,-0.5 C 70.1667,-0.5 140.833,-0.5 211.5,-0.5C 211.5,0.166667 211.167,0.5 210.5,0.5C 140.665,0.167473 70.998,0.500806 1.5,1.5C 1.5,2.5 1.5,3.5 1.5,4.5C 0.501284,48.3302 0.167951,92.3302 0.5,136.5C 0.166667,136.5 -0.166667,136.5 -0.5,136.5C -0.5,90.8333 -0.5,45.1667 -0.5,-0.5 Z"/></g>
<g><path style="opacity:1" fill="#eea694" d="M 1.5,1.5 C 70.998,0.500806 140.665,0.167473 210.5,0.5C 210.5,0.833333 210.5,1.16667 210.5,1.5C 201.5,1.5 192.5,1.5 183.5,1.5C 122.828,2.33379 62.1612,2.33379 1.5,1.5 Z"/></g>
<g><path style="opacity:1" fill="#f18865" d="M 1.5,1.5 C 62.1612,2.33379 122.828,2.33379 183.5,1.5C 178.349,2.32669 173.016,2.82669 167.5,3C 173.016,3.17331 178.349,3.67331 183.5,4.5C 178.5,4.5 173.5,4.5 168.5,4.5C 143.994,4.16902 119.661,4.50235 95.5,5.5C 86.1667,5.5 76.8333,5.5 67.5,5.5C 46.8452,4.66025 26.1785,4.32692 5.5,4.5C 4.16667,4.5 2.83333,4.5 1.5,4.5C 1.5,3.5 1.5,2.5 1.5,1.5 Z"/></g>
<g><path style="opacity:1" fill="#c6745f" d="M 183.5,1.5 C 192.5,1.5 201.5,1.5 210.5,1.5C 210.5,1.83333 210.5,2.16667 210.5,2.5C 209.527,2.98672 208.527,3.48672 207.5,4C 199.507,4.49971 191.507,4.66638 183.5,4.5C 178.349,3.67331 173.016,3.17331 167.5,3C 173.016,2.82669 178.349,2.32669 183.5,1.5 Z"/></g>
<g><path style="opacity:1" fill="#f16333" d="M 67.5,5.5 C 76.8333,5.5 86.1667,5.5 95.5,5.5C 95.5,5.83333 95.5,6.16667 95.5,6.5C 87.4931,6.33362 79.4931,6.50029 71.5,7C 76.2018,7.17169 80.8685,7.67169 85.5,8.5C 83.7745,10.2279 82.4411,12.2279 81.5,14.5C 79.604,15.4656 77.604,15.7989 75.5,15.5C 75.0094,20.1585 72.5094,23.1585 68,24.5C 67.023,26.74 66.523,29.0733 66.5,31.5C 61.1667,31.5 55.8333,31.5 50.5,31.5C 52.4103,27.6324 54.2437,23.6324 56,19.5C 57.9741,16.196 60.3074,13.196 63,10.5C 63.49,9.20677 63.6567,7.87344 63.5,6.5C 65.099,6.76781 66.4324,6.43448 67.5,5.5 Z"/></g>
<g><path style="opacity:1" fill="#ee2b25" d="M 143.5,7.5 C 143.5,10.1667 143.5,12.8333 143.5,15.5C 140.833,15.5 138.167,15.5 135.5,15.5C 135.5,18.1667 135.5,20.8333 135.5,23.5C 134.5,23.5 133.5,23.5 132.5,23.5C 132.5,26.1667 132.5,28.8333 132.5,31.5C 130.833,31.5 129.167,31.5 127.5,31.5C 127.5,28.8333 127.5,26.1667 127.5,23.5C 124.833,23.5 122.167,23.5 119.5,23.5C 120.22,18.6911 118.887,14.6911 115.5,11.5C 115.977,10.5224 116.643,9.68909 117.5,9C 115.5,9.79254 113.5,9.62587 111.5,8.5C 111.5,7.5 111.5,6.5 111.5,5.5C 122.552,4.85718 133.219,5.52385 143.5,7.5 Z"/></g>
<g><path style="opacity:1" fill="#e42c27" d="M 168.5,4.5 C 170.698,5.16528 173.031,5.83195 175.5,6.5C 174.675,7.38568 173.675,7.71901 172.5,7.5C 171.908,10.1272 171.575,12.7938 171.5,15.5C 169.5,15.5 167.5,15.5 165.5,15.5C 164.833,20.8333 164.167,26.1667 163.5,31.5C 161.606,32.5897 157.606,32.923 151.5,32.5C 149.052,31.5269 146.385,31.1936 143.5,31.5C 142.828,28.0921 143.828,25.4255 146.5,23.5C 146.833,22.1667 147.167,20.8333 147.5,19.5C 146.743,15.067 145.41,11.067 143.5,7.5C 133.219,5.52385 122.552,4.85718 111.5,5.5C 111.5,6.5 111.5,7.5 111.5,8.5C 108.367,9.11893 105.867,10.7856 104,13.5C 102.02,12.6853 100.52,11.352 99.5,9.5C 99.5774,8.25025 100.244,7.41691 101.5,7C 99.5273,6.50454 97.5273,6.33788 95.5,6.5C 95.5,6.16667 95.5,5.83333 95.5,5.5C 119.661,4.50235 143.994,4.16902 168.5,4.5 Z"/></g>
<g><path style="opacity:1" fill="#cb2127" d="M 168.5,4.5 C 173.5,4.5 178.5,4.5 183.5,4.5C 183.5,4.83333 183.5,5.16667 183.5,5.5C 181.708,6.30912 179.708,6.80912 177.5,7C 178.516,7.51935 179.182,8.35268 179.5,9.5C 178.44,11.4567 177.44,13.4567 176.5,15.5C 175.504,21.4632 175.171,27.4632 175.5,33.5C 172.615,33.1936 169.948,33.5269 167.5,34.5C 159.5,34.5 151.5,34.5 143.5,34.5C 146.167,33.8333 148.833,33.1667 151.5,32.5C 157.606,32.923 161.606,32.5897 163.5,31.5C 164.167,26.1667 164.833,20.8333 165.5,15.5C 167.5,15.5 169.5,15.5 171.5,15.5C 171.575,12.7938 171.908,10.1272 172.5,7.5C 173.675,7.71901 174.675,7.38568 175.5,6.5C 173.031,5.83195 170.698,5.16528 168.5,4.5 Z"/></g>
<g><path style="opacity:1" fill="#a55b1e" d="M 111.5,14.5 C 110.075,15.922 109.075,17.5887 108.5,19.5C 107.179,16.7647 108.179,15.0981 111.5,14.5 Z"/></g>
<g><path style="opacity:1" fill="#f3d92f" d="M 187.5,27.5 C 186.305,27.1344 185.639,26.301 185.5,25C 187.749,23.2546 189.416,21.088 190.5,18.5C 188.605,16.3691 186.938,14.0358 185.5,11.5C 185.5,10.8333 185.833,10.5 186.5,10.5C 187.151,9.90935 187.818,9.24269 188.5,8.5C 190.535,10.3722 192.702,12.0389 195,13.5C 197.298,12.0389 199.465,10.3722 201.5,8.5C 203.046,9.21161 204.046,10.3783 204.5,12C 202.761,14.378 200.761,16.5446 198.5,18.5C 200.387,20.0404 202.22,21.7071 204,23.5C 204.557,25.5859 203.724,26.9193 201.5,27.5C 199.401,26.0348 197.234,24.7015 195,23.5C 192.35,24.6726 189.85,26.0059 187.5,27.5 Z"/></g>
<g><path style="opacity:1" fill="#f1dc23" d="M 99.5,9.5 C 100.52,11.352 102.02,12.6853 104,13.5C 105.867,10.7856 108.367,9.11893 111.5,8.5C 112.141,9.48224 112.807,10.4822 113.5,11.5C 112.807,12.5178 112.141,13.5178 111.5,14.5C 108.179,15.0981 107.179,16.7647 108.5,19.5C 112.104,21.4705 112.771,23.9705 110.5,27C 108.001,25.7242 105.334,24.5576 102.5,23.5C 100.852,24.8098 99.1856,26.1431 97.5,27.5C 93.7848,24.4697 94.2848,21.803 99,19.5C 99.6917,18.5632 99.525,17.8966 98.5,17.5C 97.6109,15.264 96.2776,13.264 94.5,11.5C 95.5318,8.80683 97.1985,8.14016 99.5,9.5 Z"/></g>
<g><path style="opacity:1" fill="#eb2b25" d="M 143.5,7.5 C 145.41,11.067 146.743,15.067 147.5,19.5C 147.167,20.8333 146.833,22.1667 146.5,23.5C 143.828,25.4255 142.828,28.0921 143.5,31.5C 146.385,31.1936 149.052,31.5269 151.5,32.5C 148.833,33.1667 146.167,33.8333 143.5,34.5C 140.833,34.5 138.167,34.5 135.5,34.5C 120.167,34.5 104.833,34.5 89.5,34.5C 91.1897,33.8969 92.6897,32.8969 94,31.5C 94.3333,31.8333 94.6667,32.1667 95,32.5C 95.779,31.2718 96.779,30.2718 98,29.5C 99.6448,32.0386 101.145,32.0386 102.5,29.5C 99.9516,27.7811 100.285,26.4478 103.5,25.5C 103.137,24.8165 102.804,24.1499 102.5,23.5C 105.334,24.5576 108.001,25.7242 110.5,27C 112.771,23.9705 112.104,21.4705 108.5,19.5C 109.075,17.5887 110.075,15.922 111.5,14.5C 112.141,13.5178 112.807,12.5178 113.5,11.5C 112.807,10.4822 112.141,9.48224 111.5,8.5C 113.5,9.62587 115.5,9.79254 117.5,9C 116.643,9.68909 115.977,10.5224 115.5,11.5C 118.887,14.6911 120.22,18.6911 119.5,23.5C 122.167,23.5 124.833,23.5 127.5,23.5C 127.5,26.1667 127.5,28.8333 127.5,31.5C 129.167,31.5 130.833,31.5 132.5,31.5C 132.5,28.8333 132.5,26.1667 132.5,23.5C 133.5,23.5 134.5,23.5 135.5,23.5C 135.5,20.8333 135.5,18.1667 135.5,15.5C 138.167,15.5 140.833,15.5 143.5,15.5C 143.5,12.8333 143.5,10.1667 143.5,7.5 Z"/></g>
<g><path style="opacity:1" fill="#ee452d" d="M 98.5,17.5 C 99.525,17.8966 99.6917,18.5632 99,19.5C 94.2848,21.803 93.7848,24.4697 97.5,27.5C 99.1856,26.1431 100.852,24.8098 102.5,23.5C 102.804,24.1499 103.137,24.8165 103.5,25.5C 100.285,26.4478 99.9516,27.7811 102.5,29.5C 101.145,32.0386 99.6448,32.0386 98,29.5C 96.779,30.2718 95.779,31.2718 95,32.5C 94.6667,32.1667 94.3333,31.8333 94,31.5C 92.6897,32.8969 91.1897,33.8969 89.5,34.5C 83.5,34.5 77.5,34.5 71.5,34.5C 71.5,33.5 71.5,32.5 71.5,31.5C 73.1992,31.6602 74.8659,31.4935 76.5,31C 80.7377,25.321 85.0711,19.821 89.5,14.5C 87.9604,13.4679 87.4604,12.1346 88,10.5C 91.3098,13.2297 94.8098,15.5631 98.5,17.5 Z"/></g>
<g><path style="opacity:1" fill="#f15c31" d="M 63.5,6.5 C 63.6567,7.87344 63.49,9.20677 63,10.5C 60.3074,13.196 57.9741,16.196 56,19.5C 54.2437,23.6324 52.4103,27.6324 50.5,31.5C 55.8333,31.5 61.1667,31.5 66.5,31.5C 66.523,29.0733 67.023,26.74 68,24.5C 72.5094,23.1585 75.0094,20.1585 75.5,15.5C 77.604,15.7989 79.604,15.4656 81.5,14.5C 82.4411,12.2279 83.7745,10.2279 85.5,8.5C 80.8685,7.67169 76.2018,7.17169 71.5,7C 79.4931,6.50029 87.4931,6.33362 95.5,6.5C 97.5273,6.33788 99.5273,6.50454 101.5,7C 100.244,7.41691 99.5774,8.25025 99.5,9.5C 97.1985,8.14016 95.5318,8.80683 94.5,11.5C 96.2776,13.264 97.6109,15.264 98.5,17.5C 94.8098,15.5631 91.3098,13.2297 88,10.5C 87.4604,12.1346 87.9604,13.4679 89.5,14.5C 85.0711,19.821 80.7377,25.321 76.5,31C 74.8659,31.4935 73.1992,31.6602 71.5,31.5C 71.5,32.5 71.5,33.5 71.5,34.5C 59.8333,34.5 48.1667,34.5 36.5,34.5C 39.8683,32.941 43.5349,32.1077 47.5,32C 46.376,31.7508 45.376,31.2508 44.5,30.5C 47.8992,26.0596 51.3992,21.7263 55,17.5C 55.2022,15.7444 55.7022,14.0777 56.5,12.5C 58.4182,9.97403 60.7515,7.97403 63.5,6.5 Z"/></g>
<g><path style="opacity:1" fill="#e53428" d="M 5.5,5.5 C 15.1667,5.5 24.8333,5.5 34.5,5.5C 36.4982,6.14751 38.4982,6.98084 40.5,8C 38.3762,9.12173 36.5429,10.6217 35,12.5C 34.1392,15.3682 32.4725,17.7015 30,19.5C 29.4926,20.9961 29.9926,22.1627 31.5,23C 29.7433,26.9162 27.41,30.4162 24.5,33.5C 22.8509,34.706 21.3509,36.0394 20,37.5C 18.4126,36.273 17.0793,36.6063 16,38.5C 14.8414,34.3098 14.3414,30.3098 14.5,26.5C 16.3836,22.9828 18.7169,22.6494 21.5,25.5C 22.9015,28.799 24.7348,29.1323 27,26.5C 27.7401,25.2506 27.5735,24.2506 26.5,23.5C 25.8333,22.8333 25.1667,22.1667 24.5,21.5C 24.1667,20.8333 23.8333,20.1667 23.5,19.5C 23.3505,18.448 23.5172,17.448 24,16.5C 25.5122,15.7433 26.8455,14.7433 28,13.5C 28.6917,12.5632 28.525,11.8966 27.5,11.5C 26.8549,10.1882 25.8549,9.18819 24.5,8.5C 22.4788,9.85452 20.8121,11.5212 19.5,13.5C 16.6967,13.0387 14.3634,11.7053 12.5,9.5C 10.3364,8.88171 8.6697,9.88171 7.5,12.5C 8.35686,13.4252 9.35686,14.0919 10.5,14.5C 14.5068,18.2323 13.8401,21.2323 8.5,23.5C 7.2431,21.632 7.57644,19.9653 9.5,18.5C 8.47827,17.646 7.64494,16.646 7,15.5C 6.50007,31.4965 6.33341,47.4965 6.5,63.5C 5.5,63.5 4.5,63.5 3.5,63.5C 3.33339,44.8304 3.50005,26.1637 4,7.5C 4.27842,6.5842 4.77842,5.91753 5.5,5.5 Z"/></g>
<g><path style="opacity:1" fill="#7c4820" d="M 27.5,11.5 C 28.525,11.8966 28.6917,12.5632 28,13.5C 26.8455,14.7433 25.5122,15.7433 24,16.5C 23.5172,17.448 23.3505,18.448 23.5,19.5C 22.4017,18.3991 22.235,17.0657 23,15.5C 24.3968,13.9297 25.8968,12.5964 27.5,11.5 Z"/></g>
<g><path style="opacity:1" fill="#e5cf67" d="M 27.5,11.5 C 25.8968,12.5964 24.3968,13.9297 23,15.5C 22.235,17.0657 22.4017,18.3991 23.5,19.5C 23.8333,20.1667 24.1667,20.8333 24.5,21.5C 23.5,21.5 22.5,21.5 21.5,21.5C 21.6349,18.5825 20.9682,15.9158 19.5,13.5C 20.8121,11.5212 22.4788,9.85452 24.5,8.5C 25.8549,9.18819 26.8549,10.1882 27.5,11.5 Z"/></g>
<g><path style="opacity:1" fill="#f1d421" d="M 12.5,9.5 C 14.3634,11.7053 16.6967,13.0387 19.5,13.5C 20.9682,15.9158 21.6349,18.5825 21.5,21.5C 22.5,21.5 23.5,21.5 24.5,21.5C 25.1667,22.1667 25.8333,22.8333 26.5,23.5C 25.8924,26.6344 24.2258,27.3011 21.5,25.5C 21.2402,23.405 20.0736,22.0717 18,21.5C 15.3478,23.3198 12.8478,25.3198 10.5,27.5C 7.98733,26.7743 7.32066,25.4409 8.5,23.5C 13.8401,21.2323 14.5068,18.2323 10.5,14.5C 10.4021,12.4471 11.0687,10.7804 12.5,9.5 Z"/></g>
<g><path style="opacity:1" fill="#e1d17c" d="M 12.5,9.5 C 11.0687,10.7804 10.4021,12.4471 10.5,14.5C 9.35686,14.0919 8.35686,13.4252 7.5,12.5C 8.6697,9.88171 10.3364,8.88171 12.5,9.5 Z"/></g>
<g><path style="opacity:1" fill="#a11e22" d="M 185.5,11.5 C 186.938,14.0358 188.605,16.3691 190.5,18.5C 189.416,21.088 187.749,23.2546 185.5,25C 185.639,26.301 186.305,27.1344 187.5,27.5C 187.47,28.4972 187.97,29.1639 189,29.5C 190.285,29.0496 191.452,28.3829 192.5,27.5C 192.833,27.8333 193.167,28.1667 193.5,28.5C 192.833,29.1667 192.167,29.8333 191.5,30.5C 192.48,31.9814 193.647,33.3147 195,34.5C 195.494,36.1341 195.66,37.8008 195.5,39.5C 197.5,39.5 199.5,39.5 201.5,39.5C 201.752,48.5226 202.419,57.5226 203.5,66.5C 203.438,70.8825 203.105,75.2158 202.5,79.5C 200.207,81.6125 197.707,83.6125 195,85.5C 193.293,83.9625 191.793,82.2959 190.5,80.5C 192.26,80.9308 194.26,80.9308 196.5,80.5C 194.549,72.3722 193.549,64.0388 193.5,55.5C 192.5,55.5 191.5,55.5 190.5,55.5C 190.5,52.8333 190.5,50.1667 190.5,47.5C 189.5,47.5 188.5,47.5 187.5,47.5C 187.754,41.6383 186.754,36.1383 184.5,31C 185.308,30.6924 185.975,30.1924 186.5,29.5C 185.726,28.2888 184.893,28.2888 184,29.5C 183.833,28.1667 183.667,26.8333 183.5,25.5C 184.381,20.5228 185.048,15.8561 185.5,11.5 Z"/></g>
<g><path style="opacity:1" fill="#562518" d="M 36.5,34.5 C 48.1667,34.5 59.8333,34.5 71.5,34.5C 77.5,34.5 83.5,34.5 89.5,34.5C 104.833,34.5 120.167,34.5 135.5,34.5C 135.5,34.8333 135.5,35.1667 135.5,35.5C 129.833,35.5 124.167,35.5 118.5,35.5C 117.167,35.5 115.833,35.5 114.5,35.5C 114.813,39.0419 114.479,42.3752 113.5,45.5C 113.5,42.5 113.5,39.5 113.5,36.5C 107.833,36.5 102.167,36.5 96.5,36.5C 95.4324,35.5655 94.099,35.2322 92.5,35.5C 74.1667,35.5 55.8333,35.5 37.5,35.5C 36.5017,68.6625 36.1684,101.996 36.5,135.5C 36.1667,135.5 35.8333,135.5 35.5,135.5C 35.5,122.167 35.5,108.833 35.5,95.5C 35.5,92.8333 35.5,90.1667 35.5,87.5C 35.5,74.1667 35.5,60.8333 35.5,47.5C 35.1818,42.9677 35.5151,38.6344 36.5,34.5 Z"/></g>
<g><path style="opacity:1" fill="#b4a23e" d="M 37.5,35.5 C 55.8333,35.5 74.1667,35.5 92.5,35.5C 92.8195,40.3633 92.4861,45.03 91.5,49.5C 91.5,45.1667 91.5,40.8333 91.5,36.5C 73.4234,36.1807 55.4234,36.514 37.5,37.5C 37.5,36.8333 37.5,36.1667 37.5,35.5 Z"/></g>
<g><path style="opacity:1" fill="#f1d452" d="M 91.5,49.5 C 89.7484,51.2459 88.4151,53.2459 87.5,55.5C 86.3065,55.0296 85.6399,54.0296 85.5,52.5C 86.1123,50.6619 86.1123,48.9953 85.5,47.5C 83.3175,48.6919 81.9842,50.5253 81.5,53C 83.0016,56.3109 85.0016,59.1442 87.5,61.5C 86.1859,62.9863 85.1859,64.653 84.5,66.5C 86.1496,71.4152 86.9829,76.4152 87,81.5C 86,82.1667 85,82.8333 84,83.5C 83.6667,86.8333 83.3333,90.1667 83,93.5C 82.34,95.3237 81.1733,96.657 79.5,97.5C 77.3395,91.8456 74.6728,86.5123 71.5,81.5C 81.9455,81.9587 82.6121,80.4587 73.5,77C 75.8098,76.5034 78.1432,76.3367 80.5,76.5C 80.5861,74.323 81.2528,72.323 82.5,70.5C 82.3764,69.8933 82.0431,69.56 81.5,69.5C 79.5,68.1667 77.5,68.1667 75.5,69.5C 73.2627,68.551 70.9294,67.8844 68.5,67.5C 68.7987,62.0566 67.4654,61.3899 64.5,65.5C 63.5224,65.0233 62.6891,64.3567 62,63.5C 61.3179,65.9383 61.8179,68.1049 63.5,70C 62.1324,72.5666 60.6324,75.0666 59,77.5C 58.3333,79.8333 58.3333,82.1667 59,84.5C 61.3851,89.5981 62.8851,94.9315 63.5,100.5C 62.1898,105.747 61.1898,111.081 60.5,116.5C 62.4455,124.313 60.6121,125.313 55,119.5C 52.9142,115.333 53.2475,111.333 56,107.5C 56.6667,102.167 56.6667,96.8333 56,91.5C 52.5226,83.8783 48.5226,76.5449 44,69.5C 44.0305,78.3092 43.0305,86.9759 41,95.5C 39.4433,104.661 40.7767,113.328 45,121.5C 46.3597,124.023 48.193,126.023 50.5,127.5C 48.5648,126.85 46.5648,126.517 44.5,126.5C 44.762,125.022 44.4287,123.689 43.5,122.5C 42.4593,124.991 41.6259,124.991 41,122.5C 40.6667,122.833 40.3333,123.167 40,123.5C 39.6667,119.5 39.3333,115.5 39,111.5C 38.8321,86.9966 38.3321,62.6632 37.5,38.5C 37.5,38.1667 37.5,37.8333 37.5,37.5C 55.4234,36.514 73.4234,36.1807 91.5,36.5C 91.5,40.8333 91.5,45.1667 91.5,49.5 Z"/></g>
<g><path style="opacity:1" fill="#b02025" d="M 183.5,5.5 C 186.187,5.33591 188.854,5.50258 191.5,6C 188.099,5.73405 186.433,7.23405 186.5,10.5C 185.833,10.5 185.5,10.8333 185.5,11.5C 185.048,15.8561 184.381,20.5228 183.5,25.5C 183.667,26.8333 183.833,28.1667 184,29.5C 184.893,28.2888 185.726,28.2888 186.5,29.5C 185.975,30.1924 185.308,30.6924 184.5,31C 186.754,36.1383 187.754,41.6383 187.5,47.5C 188.5,47.5 189.5,47.5 190.5,47.5C 190.5,50.1667 190.5,52.8333 190.5,55.5C 191.5,55.5 192.5,55.5 193.5,55.5C 193.549,64.0388 194.549,72.3722 196.5,80.5C 194.26,80.9308 192.26,80.9308 190.5,80.5C 188.486,80.3915 186.82,81.0582 185.5,82.5C 183.912,83.6353 183.579,84.9686 184.5,86.5C 183.268,89.3004 182.601,92.3004 182.5,95.5C 181.723,106.153 181.389,116.82 181.5,127.5C 181.329,138.146 180.829,138.146 180,127.5C 179.667,129.167 179.333,130.833 179,132.5C 178.832,99.6641 178.332,66.9974 177.5,34.5C 174.167,34.5 170.833,34.5 167.5,34.5C 169.948,33.5269 172.615,33.1936 175.5,33.5C 175.171,27.4632 175.504,21.4632 176.5,15.5C 177.44,13.4567 178.44,11.4567 179.5,9.5C 179.182,8.35268 178.516,7.51935 177.5,7C 179.708,6.80912 181.708,6.30912 183.5,5.5 Z"/></g>
<g><path style="opacity:1" fill="#e0bd3a" d="M 118.5,35.5 C 124.167,35.5 129.833,35.5 135.5,35.5C 149.167,35.5 162.833,35.5 176.5,35.5C 176.5,36.8333 176.5,38.1667 176.5,39.5C 175.549,40.9187 175.216,42.5853 175.5,44.5C 172.289,44.012 169.456,44.6787 167,46.5C 164.73,44.2564 163.396,41.923 163,39.5C 159.142,42.0372 155.308,44.5372 151.5,47C 148.854,47.4974 146.187,47.6641 143.5,47.5C 143.833,51.3232 142.166,52.8232 138.5,52C 139.167,51.6667 139.833,51.3333 140.5,51C 138.749,49.8555 136.916,49.3555 135,49.5C 134.922,51.6565 134.755,53.6565 134.5,55.5C 133.167,52.8333 131.833,52.8333 130.5,55.5C 130.167,54.6667 129.833,53.8333 129.5,53C 129.969,51.1131 130.969,49.6131 132.5,48.5C 132.167,48.1667 131.833,47.8333 131.5,47.5C 130.476,48.8532 129.143,49.5198 127.5,49.5C 126.86,47.668 125.86,47.3347 124.5,48.5C 126.086,51.2163 125.753,53.5497 123.5,55.5C 122.185,53.6841 120.685,52.0175 119,50.5C 118.501,45.5111 118.334,40.5111 118.5,35.5 Z"/></g>
<g><path style="opacity:1" fill="#ec3427" d="M 34.5,5.5 C 38.8333,5.5 43.1667,5.5 47.5,5.5C 47.6602,7.19919 47.4935,8.86586 47,10.5C 44.5971,12.305 42.9305,14.6384 42,17.5C 35.0196,25.1726 28.6862,33.506 23,42.5C 20.5641,44.4673 18.0641,46.134 15.5,47.5C 15.6495,48.552 15.4828,49.552 15,50.5C 12.9229,52.0758 11.4229,54.0758 10.5,56.5C 9.67504,57.3857 8.67504,57.719 7.5,57.5C 7.79472,59.7354 7.46138,61.7354 6.5,63.5C 6.33341,47.4965 6.50007,31.4965 7,15.5C 7.64494,16.646 8.47827,17.646 9.5,18.5C 7.57644,19.9653 7.2431,21.632 8.5,23.5C 7.32066,25.4409 7.98733,26.7743 10.5,27.5C 11.9621,28.4709 13.2954,28.1376 14.5,26.5C 14.3414,30.3098 14.8414,34.3098 16,38.5C 17.0793,36.6063 18.4126,36.273 20,37.5C 21.3509,36.0394 22.8509,34.706 24.5,33.5C 27.41,30.4162 29.7433,26.9162 31.5,23C 29.9926,22.1627 29.4926,20.9961 30,19.5C 32.4725,17.7015 34.1392,15.3682 35,12.5C 36.5429,10.6217 38.3762,9.12173 40.5,8C 38.4982,6.98084 36.4982,6.14751 34.5,5.5 Z"/></g>
<g><path style="opacity:1" fill="#956a1e" d="M 26.5,23.5 C 27.5735,24.2506 27.7401,25.2506 27,26.5C 24.7348,29.1323 22.9015,28.799 21.5,25.5C 24.2258,27.3011 25.8924,26.6344 26.5,23.5 Z"/></g>
<g><path style="opacity:1" fill="#7d601e" d="M 21.5,25.5 C 18.7169,22.6494 16.3836,22.9828 14.5,26.5C 13.2954,28.1376 11.9621,28.4709 10.5,27.5C 12.8478,25.3198 15.3478,23.3198 18,21.5C 20.0736,22.0717 21.2402,23.405 21.5,25.5 Z"/></g>
<g><path style="opacity:1" fill="#d6b037" d="M 176.5,39.5 C 176.5,42.1667 176.5,44.8333 176.5,47.5C 175.515,51.6344 175.182,55.9677 175.5,60.5C 172.161,60.8897 168.827,61.3897 165.5,62C 164.382,63.0736 163.382,64.2402 162.5,65.5C 161.808,64.9747 161.308,64.3081 161,63.5C 158.316,66.4315 155.15,68.7649 151.5,70.5C 150.614,69.675 150.281,68.675 150.5,67.5C 153.599,67.9077 155.933,66.741 157.5,64C 155.706,62.539 153.706,62.3724 151.5,63.5C 149.83,61.8177 147.163,61.151 143.5,61.5C 143.5,62.8333 143.5,64.1667 143.5,65.5C 143.5,65.8333 143.5,66.1667 143.5,66.5C 139.084,67.5917 134.75,68.5917 130.5,69.5C 130.046,74.6935 132.38,77.1935 137.5,77C 135.5,77.8333 133.5,78.6667 131.5,79.5C 131.667,79.8333 131.833,80.1667 132,80.5C 134.719,81.4438 137.552,81.7771 140.5,81.5C 140.296,83.6854 139.63,85.6854 138.5,87.5C 136.973,87.427 135.973,88.0937 135.5,89.5C 133.949,91.9128 133.283,94.5794 133.5,97.5C 132.325,97.719 131.325,97.3857 130.5,96.5C 129.972,94.6639 129.306,92.9972 128.5,91.5C 129.34,87.0892 128.173,83.4225 125,80.5C 124.505,78.5273 124.338,76.5273 124.5,74.5C 126.101,71.4498 127.101,68.1165 127.5,64.5C 126.167,64.5 124.833,64.5 123.5,64.5C 123.34,62.8008 123.506,61.1341 124,59.5C 128.225,57.184 129.392,53.8506 127.5,49.5C 129.143,49.5198 130.476,48.8532 131.5,47.5C 131.833,47.8333 132.167,48.1667 132.5,48.5C 130.969,49.6131 129.969,51.1131 129.5,53C 129.833,53.8333 130.167,54.6667 130.5,55.5C 131.833,52.8333 133.167,52.8333 134.5,55.5C 134.755,53.6565 134.922,51.6565 135,49.5C 136.916,49.3555 138.749,49.8555 140.5,51C 139.833,51.3333 139.167,51.6667 138.5,52C 142.166,52.8232 143.833,51.3232 143.5,47.5C 146.187,47.6641 148.854,47.4974 151.5,47C 155.308,44.5372 159.142,42.0372 163,39.5C 163.396,41.923 164.73,44.2564 167,46.5C 169.456,44.6787 172.289,44.012 175.5,44.5C 175.216,42.5853 175.549,40.9187 176.5,39.5 Z"/></g>
<g><path style="opacity:1" fill="#0b1209" d="M 135.5,35.5 C 135.5,35.1667 135.5,34.8333 135.5,34.5C 138.167,34.5 140.833,34.5 143.5,34.5C 151.5,34.5 159.5,34.5 167.5,34.5C 170.833,34.5 174.167,34.5 177.5,34.5C 177.667,68.835 177.5,103.168 177,137.5C 176.027,139.392 175.36,141.392 175,143.5C 174.292,144.381 173.458,145.047 172.5,145.5C 172.833,144.167 173.167,142.833 173.5,141.5C 174.594,139.641 175.427,137.641 176,135.5C 176.5,111.502 176.667,87.5023 176.5,63.5C 176.5,58.1667 176.5,52.8333 176.5,47.5C 176.5,44.8333 176.5,42.1667 176.5,39.5C 176.5,38.1667 176.5,36.8333 176.5,35.5C 162.833,35.5 149.167,35.5 135.5,35.5 Z"/></g>
<g><path style="opacity:1" fill="#ef482b" d="M 5.5,5.5 C 5.5,5.16667 5.5,4.83333 5.5,4.5C 26.1785,4.32692 46.8452,4.66025 67.5,5.5C 66.4324,6.43448 65.099,6.76781 63.5,6.5C 60.7515,7.97403 58.4182,9.97403 56.5,12.5C 55.7022,14.0777 55.2022,15.7444 55,17.5C 51.3992,21.7263 47.8992,26.0596 44.5,30.5C 45.376,31.2508 46.376,31.7508 47.5,32C 43.5349,32.1077 39.8683,32.941 36.5,34.5C 35.5151,38.6344 35.1818,42.9677 35.5,47.5C 34.6829,49.9686 34.1829,52.6353 34,55.5C 33.8295,50.1358 33.3295,44.8025 32.5,39.5C 30.6332,40.7973 30.2998,42.2973 31.5,44C 29.8742,46.0868 28.3742,48.2535 27,50.5C 23.3333,53.8333 19.6667,57.1667 16,60.5C 15.5172,61.448 15.3505,62.448 15.5,63.5C 12.9359,64.866 10.4359,66.5327 8,68.5C 7.8227,72.3563 7.3227,76.023 6.5,79.5C 6.5,74.1667 6.5,68.8333 6.5,63.5C 7.46138,61.7354 7.79472,59.7354 7.5,57.5C 8.67504,57.719 9.67504,57.3857 10.5,56.5C 11.4229,54.0758 12.9229,52.0758 15,50.5C 15.4828,49.552 15.6495,48.552 15.5,47.5C 18.0641,46.134 20.5641,44.4673 23,42.5C 28.6862,33.506 35.0196,25.1726 42,17.5C 42.9305,14.6384 44.5971,12.305 47,10.5C 47.4935,8.86586 47.6602,7.19919 47.5,5.5C 43.1667,5.5 38.8333,5.5 34.5,5.5C 24.8333,5.5 15.1667,5.5 5.5,5.5 Z"/></g>
<g><path style="opacity:1" fill="#971d25" d="M 210.5,2.5 C 208.699,33.3463 207.865,64.3463 208,95.5C 206.855,94.3157 205.688,94.3157 204.5,95.5C 202.856,93.5193 201.19,91.5193 199.5,89.5C 201.372,87.4649 203.039,85.2983 204.5,83C 204.022,81.6974 203.355,80.5307 202.5,79.5C 203.105,75.2158 203.438,70.8825 203.5,66.5C 202.419,57.5226 201.752,48.5226 201.5,39.5C 199.5,39.5 197.5,39.5 195.5,39.5C 195.66,37.8008 195.494,36.1341 195,34.5C 193.647,33.3147 192.48,31.9814 191.5,30.5C 192.167,29.8333 192.833,29.1667 193.5,28.5C 193.167,28.1667 192.833,27.8333 192.5,27.5C 191.452,28.3829 190.285,29.0496 189,29.5C 187.97,29.1639 187.47,28.4972 187.5,27.5C 189.85,26.0059 192.35,24.6726 195,23.5C 197.234,24.7015 199.401,26.0348 201.5,27.5C 203.724,26.9193 204.557,25.5859 204,23.5C 202.22,21.7071 200.387,20.0404 198.5,18.5C 200.761,16.5446 202.761,14.378 204.5,12C 204.046,10.3783 203.046,9.21161 201.5,8.5C 199.465,10.3722 197.298,12.0389 195,13.5C 192.702,12.0389 190.535,10.3722 188.5,8.5C 187.818,9.24269 187.151,9.90935 186.5,10.5C 186.433,7.23405 188.099,5.73405 191.5,6C 188.854,5.50258 186.187,5.33591 183.5,5.5C 183.5,5.16667 183.5,4.83333 183.5,4.5C 191.507,4.66638 199.507,4.49971 207.5,4C 208.527,3.48672 209.527,2.98672 210.5,2.5 Z"/></g>
<g><path style="opacity:1" fill="#f15a31" d="M 35.5,47.5 C 35.5,60.8333 35.5,74.1667 35.5,87.5C 33.9016,85.1433 32.9016,82.4766 32.5,79.5C 32.6665,68.8281 32.4998,58.1615 32,47.5C 31.6667,51.5 31.3333,55.5 31,59.5C 28.7871,60.8019 26.4537,61.8019 24,62.5C 23.5065,64.1341 23.3398,65.8008 23.5,67.5C 20.8431,67.162 18.5098,67.8287 16.5,69.5C 14.405,73.0995 11.7383,76.2661 8.5,79C 9.25244,79.6708 9.58577,80.5041 9.5,81.5C 9.33015,84.8581 10.6635,87.8581 13.5,90.5C 12.1455,92.5212 10.4788,94.1879 8.5,95.5C 6.55387,90.6042 5.8872,85.2709 6.5,79.5C 7.3227,76.023 7.8227,72.3563 8,68.5C 10.4359,66.5327 12.9359,64.866 15.5,63.5C 15.3505,62.448 15.5172,61.448 16,60.5C 19.6667,57.1667 23.3333,53.8333 27,50.5C 28.3742,48.2535 29.8742,46.0868 31.5,44C 30.2998,42.2973 30.6332,40.7973 32.5,39.5C 33.3295,44.8025 33.8295,50.1358 34,55.5C 34.1829,52.6353 34.6829,49.9686 35.5,47.5 Z"/></g>
<g><path style="opacity:1" fill="#f05d31" d="M 32.5,79.5 C 32.666,84.8437 32.4994,90.1771 32,95.5C 30.3492,97.2102 28.5158,98.5436 26.5,99.5C 27.6857,98.0387 27.6857,96.7054 26.5,95.5C 25.6935,94.2719 24.6935,93.2719 23.5,92.5C 23.5688,89.9158 24.7355,87.9158 27,86.5C 27.765,84.9343 27.5983,83.6009 26.5,82.5C 26.189,81.5222 25.5223,80.8555 24.5,80.5C 22.1622,82.3387 19.9955,84.3387 18,86.5C 16.1884,84.6884 14.3551,82.8551 12.5,81C 11.4232,80.5304 10.4232,80.6971 9.5,81.5C 9.58577,80.5041 9.25244,79.6708 8.5,79C 11.7383,76.2661 14.405,73.0995 16.5,69.5C 18.5098,67.8287 20.8431,67.162 23.5,67.5C 23.3398,65.8008 23.5065,64.1341 24,62.5C 26.4537,61.8019 28.7871,60.8019 31,59.5C 31.3333,55.5 31.6667,51.5 32,47.5C 32.4998,58.1615 32.6665,68.8281 32.5,79.5 Z"/></g>
<g><path style="opacity:1" fill="#730e15" d="M 211.5,-0.5 C 211.833,-0.5 212.167,-0.5 212.5,-0.5C 212.5,21.5 212.5,43.5 212.5,65.5C 211.669,80.6612 211.169,95.9945 211,111.5C 210.667,114.167 210.333,116.833 210,119.5C 209.827,113.984 209.327,108.651 208.5,103.5C 208.768,101.901 208.434,100.568 207.5,99.5C 205.179,99.3173 202.846,98.984 200.5,98.5C 202.632,98.4456 203.965,97.4456 204.5,95.5C 205.688,94.3157 206.855,94.3157 208,95.5C 207.865,64.3463 208.699,33.3463 210.5,2.5C 210.5,2.16667 210.5,1.83333 210.5,1.5C 210.5,1.16667 210.5,0.833333 210.5,0.5C 211.167,0.5 211.5,0.166667 211.5,-0.5 Z"/></g>
<g><path style="opacity:1" fill="#100d0b" d="M 92.5,35.5 C 94.099,35.2322 95.4324,35.5655 96.5,36.5C 96.5,39.8333 96.5,43.1667 96.5,46.5C 102.358,46.8222 108.025,46.4889 113.5,45.5C 114.479,42.3752 114.813,39.0419 114.5,35.5C 115.833,35.5 117.167,35.5 118.5,35.5C 118.334,40.5111 118.501,45.5111 119,50.5C 120.685,52.0175 122.185,53.6841 123.5,55.5C 125.753,53.5497 126.086,51.2163 124.5,48.5C 125.86,47.3347 126.86,47.668 127.5,49.5C 129.392,53.8506 128.225,57.184 124,59.5C 123.506,61.1341 123.34,62.8008 123.5,64.5C 124.833,64.5 126.167,64.5 127.5,64.5C 127.101,68.1165 126.101,71.4498 124.5,74.5C 124.5,72.8333 124.5,71.1667 124.5,69.5C 124.5,68.5 124.5,67.5 124.5,66.5C 112.167,66.5 99.8333,66.5 87.5,66.5C 87.5,67.5 87.5,68.5 87.5,69.5C 86.2557,66.7166 86.9224,64.2166 89.5,62C 89.1667,61.6667 88.8333,61.3333 88.5,61C 89.1905,59.9326 89.6905,58.7659 90,57.5C 91.6453,57.3068 93.4787,57.1402 95.5,57C 96.9272,55.2531 98.4272,54.0865 100,53.5C 100.464,54.0944 100.631,54.7611 100.5,55.5C 98.927,58.8931 96.2604,60.2264 92.5,59.5C 92.5,60.8333 92.5,62.1667 92.5,63.5C 101.167,63.5 109.833,63.5 118.5,63.5C 118.5,62.1667 118.5,60.8333 118.5,59.5C 112.365,59.5315 109.031,56.5315 108.5,50.5C 107.378,49.8442 106.045,49.5108 104.5,49.5C 100.959,50.5487 97.6257,51.882 94.5,53.5C 94.1667,53.5 93.8333,53.5 93.5,53.5C 91.3639,54.3698 89.5305,55.7032 88,57.5C 87.5357,56.9056 87.369,56.2389 87.5,55.5C 88.4151,53.2459 89.7484,51.2459 91.5,49.5C 92.4861,45.03 92.8195,40.3633 92.5,35.5 Z"/></g>
<g><path style="opacity:1" fill="#edce4a" d="M 108.5,50.5 C 109.031,56.5315 112.365,59.5315 118.5,59.5C 118.5,60.8333 118.5,62.1667 118.5,63.5C 109.833,63.5 101.167,63.5 92.5,63.5C 92.5,62.1667 92.5,60.8333 92.5,59.5C 96.2604,60.2264 98.927,58.8931 100.5,55.5C 101.451,54.0813 101.784,52.4147 101.5,50.5C 103.833,50.5 106.167,50.5 108.5,50.5 Z"/></g>
<g><path style="opacity:1" fill="#e9cb4c" d="M 96.5,36.5 C 102.167,36.5 107.833,36.5 113.5,36.5C 113.5,39.5 113.5,42.5 113.5,45.5C 108.025,46.4889 102.358,46.8222 96.5,46.5C 96.5,43.1667 96.5,39.8333 96.5,36.5 Z"/></g>
<g><path style="opacity:1" fill="#ae9936" d="M 124.5,69.5 C 124.167,69.5 123.833,69.5 123.5,69.5C 118.04,68.1709 112.207,67.5042 106,67.5C 99.793,67.5042 93.9597,68.1709 88.5,69.5C 88.1667,69.5 87.8333,69.5 87.5,69.5C 87.5,68.5 87.5,67.5 87.5,66.5C 99.8333,66.5 112.167,66.5 124.5,66.5C 124.5,67.5 124.5,68.5 124.5,69.5 Z"/></g>
<g><path style="opacity:1" fill="#0e0c0b" d="M 75.5,69.5 C 74.7659,70.7079 74.4326,72.0413 74.5,73.5C 76.1439,73.2865 77.6439,73.6198 79,74.5C 79.0496,72.256 79.8829,70.5893 81.5,69.5C 82.0431,69.56 82.3764,69.8933 82.5,70.5C 81.2528,72.323 80.5861,74.323 80.5,76.5C 78.1432,76.3367 75.8098,76.5034 73.5,77C 82.6121,80.4587 81.9455,81.9587 71.5,81.5C 74.6728,86.5123 77.3395,91.8456 79.5,97.5C 80.6124,98.3718 81.9458,98.3718 83.5,97.5C 84.7133,97.7472 85.38,98.4138 85.5,99.5C 83.7073,102.634 82.374,105.967 81.5,109.5C 97.8937,107.233 114.227,107.233 130.5,109.5C 130.634,107.708 130.301,106.042 129.5,104.5C 130.496,104.414 131.329,104.748 132,105.5C 132.49,104.207 132.657,102.873 132.5,101.5C 133.775,103.608 134.275,105.942 134,108.5C 133.692,107.692 133.192,107.025 132.5,106.5C 131.355,107.776 131.355,109.109 132.5,110.5C 131.609,111.59 130.609,111.59 129.5,110.5C 128.614,111.325 128.281,112.325 128.5,113.5C 126.801,113.34 125.134,113.506 123.5,114C 126.289,114.241 128.956,114.908 131.5,116C 132.337,117.011 132.67,118.178 132.5,119.5C 127.68,116.175 122.346,115.008 116.5,116C 115.663,117.011 115.33,118.178 115.5,119.5C 114.5,119.5 113.5,119.5 112.5,119.5C 113.314,112.645 111.981,111.979 108.5,117.5C 106.957,115.618 106.123,113.618 106,111.5C 104.418,112.295 104.251,113.462 105.5,115C 104.145,119.509 103.145,119.343 102.5,114.5C 101.5,114.5 100.5,114.5 99.5,114.5C 99.5,116.167 99.5,117.833 99.5,119.5C 98.5,119.5 97.5,119.5 96.5,119.5C 96.7634,116.266 95.2634,114.932 92,115.5C 87.1562,115.839 82.9895,117.673 79.5,121C 81.4889,122.554 83.4889,122.387 85.5,120.5C 86.3382,120.842 86.6716,121.508 86.5,122.5C 85.609,123.11 84.609,123.443 83.5,123.5C 81.9719,123.517 81.4719,124.184 82,125.5C 83.6667,126.833 85.3333,126.833 87,125.5C 87.3333,126.5 87.6667,127.5 88,128.5C 88.3333,128.167 88.6667,127.833 89,127.5C 89.49,128.793 89.6567,130.127 89.5,131.5C 87.4458,131.635 85.7791,130.968 84.5,129.5C 81.5739,130.461 78.5739,131.127 75.5,131.5C 76.481,136.129 76.6477,140.796 76,145.5C 75.7398,147.618 74.7398,149.284 73,150.5C 74.0715,158.486 77.2381,165.653 82.5,172C 84.4727,172.495 86.4727,172.662 88.5,172.5C 89.9361,173.429 91.2695,174.595 92.5,176C 90.7444,176.202 89.0777,176.702 87.5,177.5C 88.9538,179.263 88.6204,180.597 86.5,181.5C 85.6143,180.675 85.281,179.675 85.5,178.5C 84.5,178.5 83.5,178.5 82.5,178.5C 82.719,179.675 82.3857,180.675 81.5,181.5C 80.8243,180.398 80.1577,179.398 79.5,178.5C 73.7706,173.438 68.7706,168.438 64.5,163.5C 62.5,162.833 60.5,162.167 58.5,161.5C 58.9767,160.522 59.6433,159.689 60.5,159C 58.6241,157.983 56.6241,157.149 54.5,156.5C 56.396,155.534 58.396,155.201 60.5,155.5C 61.2679,154.737 61.7679,153.737 62,152.5C 62.9234,153.759 63.7568,155.092 64.5,156.5C 64.8333,156.333 65.1667,156.167 65.5,156C 66.4811,148.551 66.3144,141.051 65,133.5C 64.3333,132.167 63.6667,130.833 63,129.5C 61.2453,135.458 61.0787,141.458 62.5,147.5C 62.4146,149.333 61.7479,150.666 60.5,151.5C 60.4249,148.794 60.0916,146.127 59.5,143.5C 59.8266,138.786 59.4933,134.12 58.5,129.5C 57.5832,128.873 56.5832,128.539 55.5,128.5C 53.8828,127.962 52.2161,127.629 50.5,127.5C 48.193,126.023 46.3597,124.023 45,121.5C 40.7767,113.328 39.4433,104.661 41,95.5C 43.0305,86.9759 44.0305,78.3092 44,69.5C 48.5226,76.5449 52.5226,83.8783 56,91.5C 56.6667,96.8333 56.6667,102.167 56,107.5C 53.2475,111.333 52.9142,115.333 55,119.5C 60.6121,125.313 62.4455,124.313 60.5,116.5C 61.1898,111.081 62.1898,105.747 63.5,100.5C 62.8851,94.9315 61.3851,89.5981 59,84.5C 58.3333,82.1667 58.3333,79.8333 59,77.5C 60.6324,75.0666 62.1324,72.5666 63.5,70C 61.8179,68.1049 61.3179,65.9383 62,63.5C 62.6891,64.3567 63.5224,65.0233 64.5,65.5C 67.4654,61.3899 68.7987,62.0566 68.5,67.5C 70.9294,67.8844 73.2627,68.551 75.5,69.5 Z"/></g>
<g><path style="opacity:1" fill="#5d5753" d="M 81.5,69.5 C 79.8829,70.5893 79.0496,72.256 79,74.5C 77.6439,73.6198 76.1439,73.2865 74.5,73.5C 74.4326,72.0413 74.7659,70.7079 75.5,69.5C 77.5,68.1667 79.5,68.1667 81.5,69.5 Z"/></g>
<g><path style="opacity:1" fill="#4b493e" d="M 143.5,66.5 C 142.602,67.1577 141.602,67.8243 140.5,68.5C 141.668,69.9056 141.335,71.0723 139.5,72C 137.19,72.4966 134.857,72.6633 132.5,72.5C 132.715,70.8212 132.048,69.8212 130.5,69.5C 134.75,68.5917 139.084,67.5917 143.5,66.5 Z"/></g>
<g><path style="opacity:1" fill="#0a0808" d="M 151.5,121.5 C 149.952,121.821 149.285,122.821 149.5,124.5C 152.888,123.969 154.888,125.303 155.5,128.5C 154.791,129.404 153.791,129.737 152.5,129.5C 152.5,135.167 152.5,140.833 152.5,146.5C 151.523,149.287 151.19,152.287 151.5,155.5C 153.527,155.338 155.527,155.505 157.5,156C 155.369,156.543 153.369,157.376 151.5,158.5C 153.977,159.88 153.977,160.88 151.5,161.5C 148.5,161.167 147.167,162.5 147.5,165.5C 146.209,165.263 145.209,165.596 144.5,166.5C 140.462,170.209 136.462,173.875 132.5,177.5C 131.279,181.339 130.612,181.339 130.5,177.5C 129.5,177.5 128.5,177.5 127.5,177.5C 127.771,179.38 127.104,180.713 125.5,181.5C 124.549,180.081 124.216,178.415 124.5,176.5C 118.438,176.475 118.105,175.308 123.5,173C 126.938,173.135 129.772,171.968 132,169.5C 134.476,164.41 137.143,159.41 140,154.5C 140.317,151.793 139.484,149.46 137.5,147.5C 137.351,146.448 137.517,145.448 138,144.5C 138.852,145.571 139.685,146.571 140.5,147.5C 142.191,151.246 143.358,155.246 144,159.5C 145.424,153.224 145.758,146.891 145,140.5C 143.643,134.939 142.809,129.272 142.5,123.5C 142.5,122.167 142.5,120.833 142.5,119.5C 141.325,119.281 140.325,119.614 139.5,120.5C 138.915,123.503 138.248,126.503 137.5,129.5C 134.102,128.896 130.769,128.063 127.5,127C 136.617,127.378 136.617,126.045 127.5,123C 129.058,122.79 130.391,122.29 131.5,121.5C 132.338,121.158 132.672,120.492 132.5,119.5C 132.67,118.178 132.337,117.011 131.5,116C 128.956,114.908 126.289,114.241 123.5,114C 125.134,113.506 126.801,113.34 128.5,113.5C 128.281,112.325 128.614,111.325 129.5,110.5C 130.609,111.59 131.609,111.59 132.5,110.5C 131.355,109.109 131.355,107.776 132.5,106.5C 133.192,107.025 133.692,107.692 134,108.5C 134.275,105.942 133.775,103.608 132.5,101.5C 132.443,97.8669 133.443,97.7002 135.5,101C 136.5,101.667 137.5,101.667 138.5,101C 140.577,98.108 141.911,94.9413 142.5,91.5C 144.467,87.7377 144.8,83.7377 143.5,79.5C 142.132,81.637 141.132,83.9703 140.5,86.5C 139.817,86.8627 139.15,87.1961 138.5,87.5C 139.63,85.6854 140.296,83.6854 140.5,81.5C 137.552,81.7771 134.719,81.4438 132,80.5C 131.833,80.1667 131.667,79.8333 131.5,79.5C 133.5,78.6667 135.5,77.8333 137.5,77C 132.38,77.1935 130.046,74.6935 130.5,69.5C 132.048,69.8212 132.715,70.8212 132.5,72.5C 134.857,72.6633 137.19,72.4966 139.5,72C 141.335,71.0723 141.668,69.9056 140.5,68.5C 141.602,67.8243 142.602,67.1577 143.5,66.5C 143.5,66.1667 143.5,65.8333 143.5,65.5C 144.268,64.7375 144.768,63.7375 145,62.5C 145.833,63.5 146.667,64.5 147.5,65.5C 148.609,64.4104 149.609,64.4104 150.5,65.5C 149.48,67.4325 149.313,69.4325 150,71.5C 153.109,75.6855 154.109,80.3521 153,85.5C 148.037,93.1897 147.37,101.19 151,109.5C 151.499,113.486 151.666,117.486 151.5,121.5 Z"/></g>
<g><path style="opacity:1" fill="#f1ce42" d="M 123.5,69.5 C 122.108,76.3439 120.108,83.0106 117.5,89.5C 109.5,90.8333 101.5,90.8333 93.5,89.5C 90.5986,83.1316 88.9319,76.4649 88.5,69.5C 93.9597,68.1709 99.793,67.5042 106,67.5C 112.207,67.5042 118.04,68.1709 123.5,69.5 Z"/></g>
<g><path style="opacity:1" fill="#18130d" d="M 87.5,55.5 C 87.369,56.2389 87.5357,56.9056 88,57.5C 89.5305,55.7032 91.3639,54.3698 93.5,53.5C 92.4376,54.5754 92.4376,55.5754 93.5,56.5C 95.4041,55.7434 95.7375,54.7434 94.5,53.5C 97.6257,51.882 100.959,50.5487 104.5,49.5C 106.045,49.5108 107.378,49.8442 108.5,50.5C 106.167,50.5 103.833,50.5 101.5,50.5C 101.784,52.4147 101.451,54.0813 100.5,55.5C 100.631,54.7611 100.464,54.0944 100,53.5C 98.4272,54.0865 96.9272,55.2531 95.5,57C 93.4787,57.1402 91.6453,57.3068 90,57.5C 89.6905,58.7659 89.1905,59.9326 88.5,61C 88.8333,61.3333 89.1667,61.6667 89.5,62C 86.9224,64.2166 86.2557,66.7166 87.5,69.5C 87.8333,69.5 88.1667,69.5 88.5,69.5C 88.9319,76.4649 90.5986,83.1316 93.5,89.5C 101.5,90.8333 109.5,90.8333 117.5,89.5C 120.108,83.0106 122.108,76.3439 123.5,69.5C 123.833,69.5 124.167,69.5 124.5,69.5C 124.5,71.1667 124.5,72.8333 124.5,74.5C 124.338,76.5273 124.505,78.5273 125,80.5C 128.173,83.4225 129.34,87.0892 128.5,91.5C 127.313,92.5336 126.48,93.867 126,95.5C 125.536,94.9056 125.369,94.2389 125.5,93.5C 123.421,87.443 121.087,87.2763 118.5,93C 109.833,93.6667 101.167,93.6667 92.5,93C 91.7924,90.2324 90.2924,89.3991 88,90.5C 87.9428,93.8511 87.1094,96.8511 85.5,99.5C 85.38,98.4138 84.7133,97.7472 83.5,97.5C 81.9458,98.3718 80.6124,98.3718 79.5,97.5C 81.1733,96.657 82.34,95.3237 83,93.5C 83.3333,90.1667 83.6667,86.8333 84,83.5C 85,82.8333 86,82.1667 87,81.5C 86.9829,76.4152 86.1496,71.4152 84.5,66.5C 85.1859,64.653 86.1859,62.9863 87.5,61.5C 85.0016,59.1442 83.0016,56.3109 81.5,53C 81.9842,50.5253 83.3175,48.6919 85.5,47.5C 86.1123,48.9953 86.1123,50.6619 85.5,52.5C 85.6399,54.0296 86.3065,55.0296 87.5,55.5 Z"/></g>
<g><path style="opacity:1" fill="#d2b640" d="M 93.5,53.5 C 93.8333,53.5 94.1667,53.5 94.5,53.5C 95.7375,54.7434 95.4041,55.7434 93.5,56.5C 92.4376,55.5754 92.4376,54.5754 93.5,53.5 Z"/></g>
<g><path style="opacity:1" fill="#9e9131" d="M 87.5,84.5 C 89.4646,84.9483 89.7979,85.9483 88.5,87.5C 87.6143,86.675 87.281,85.675 87.5,84.5 Z"/></g>
<g><path style="opacity:1" fill="#ed6b3f" d="M 1.5,4.5 C 2.83333,4.5 4.16667,4.5 5.5,4.5C 5.5,4.83333 5.5,5.16667 5.5,5.5C 4.77842,5.91753 4.27842,6.5842 4,7.5C 3.50005,26.1637 3.33339,44.8304 3.5,63.5C 4.5,63.5 5.5,63.5 6.5,63.5C 6.5,68.8333 6.5,74.1667 6.5,79.5C 5.8872,85.2709 6.55387,90.6042 8.5,95.5C 8.71182,97.3841 9.71182,98.7174 11.5,99.5C 13.3159,98.1851 14.9825,96.6851 16.5,95C 17.7494,94.2599 18.7494,94.4265 19.5,95.5C 17.4508,95.7058 17.1175,96.5391 18.5,98C 14.9493,97.6996 12.9493,99.533 12.5,103.5C 10.5,103.5 8.5,103.5 6.5,103.5C 6.5,108.833 6.5,114.167 6.5,119.5C 5.5,119.5 4.5,119.5 3.5,119.5C 4.03562,122.698 3.36895,125.365 1.5,127.5C 1.5,86.5 1.5,45.5 1.5,4.5 Z"/></g>
<g><path style="opacity:1" fill="#b26630" d="M 26.5,82.5 C 27.5983,83.6009 27.765,84.9343 27,86.5C 24.7355,87.9158 23.5688,89.9158 23.5,92.5C 22.5028,92.5299 21.8361,92.0299 21.5,91C 23.8035,88.5325 25.4701,85.6992 26.5,82.5 Z"/></g>
<g><path style="opacity:1" fill="#0b0908" d="M 169.5,87.5 C 172.559,98.3359 172.059,109.003 168,119.5C 165.357,124.647 161.19,127.647 155.5,128.5C 154.888,125.303 152.888,123.969 149.5,124.5C 149.285,122.821 149.952,121.821 151.5,121.5C 151.517,123.028 152.184,123.528 153.5,123C 155,121.167 156.5,119.333 158,117.5C 156.367,108.944 155.7,100.277 156,91.5C 159.74,84.1119 163.573,76.7786 167.5,69.5C 168.167,75.6535 168.833,81.6535 169.5,87.5 Z"/></g>
<g><path style="opacity:1" fill="#f3d839" d="M 202.5,79.5 C 203.355,80.5307 204.022,81.6974 204.5,83C 203.039,85.2983 201.372,87.4649 199.5,89.5C 201.19,91.5193 202.856,93.5193 204.5,95.5C 203.965,97.4456 202.632,98.4456 200.5,98.5C 197.515,93.43 194.182,93.2633 190.5,98C 189.101,98.5946 187.768,98.4279 186.5,97.5C 185.41,96.6086 185.41,95.6086 186.5,94.5C 187.728,92.679 189.394,91.679 191.5,91.5C 191.649,90.448 191.483,89.448 191,88.5C 188.256,87.2596 186.423,85.2596 185.5,82.5C 186.82,81.0582 188.486,80.3915 190.5,80.5C 191.793,82.2959 193.293,83.9625 195,85.5C 197.707,83.6125 200.207,81.6125 202.5,79.5 Z"/></g>
<g><path style="opacity:1" fill="#5a5957" d="M 142.5,91.5 C 140.552,93.3204 139.552,95.6538 139.5,98.5C 138.5,98.5 137.5,98.5 136.5,98.5C 136.274,95.7508 136.607,93.0841 137.5,90.5C 137.043,89.7025 136.376,89.3691 135.5,89.5C 135.973,88.0937 136.973,87.427 138.5,87.5C 139.15,87.1961 139.817,86.8627 140.5,86.5C 141.132,83.9703 142.132,81.637 143.5,79.5C 144.8,83.7377 144.467,87.7377 142.5,91.5 Z"/></g>
<g><path style="opacity:1" fill="#484948" d="M 63.5,76.5 C 64.9904,81.5969 66.4904,86.9303 68,92.5C 68.8253,96.2113 68.6586,99.878 67.5,103.5C 66.6816,100.893 66.1816,98.2263 66,95.5C 61.3259,89.5876 60.4925,83.2543 63.5,76.5 Z"/></g>
<g><path style="opacity:1" fill="#ebc93e" d="M 125.5,93.5 C 124.402,94.6009 124.235,95.9343 125,97.5C 126.419,99.9929 127.919,102.326 129.5,104.5C 130.301,106.042 130.634,107.708 130.5,109.5C 114.227,107.233 97.8937,107.233 81.5,109.5C 82.374,105.967 83.7073,102.634 85.5,99.5C 87.1094,96.8511 87.9428,93.8511 88,90.5C 90.2924,89.3991 91.7924,90.2324 92.5,93C 101.167,93.6667 109.833,93.6667 118.5,93C 121.087,87.2763 123.421,87.443 125.5,93.5 Z"/></g>
<g><path style="opacity:1" fill="#f1d229" d="M 26.5,82.5 C 25.4701,85.6992 23.8035,88.5325 21.5,91C 21.8361,92.0299 22.5028,92.5299 23.5,92.5C 24.6935,93.2719 25.6935,94.2719 26.5,95.5C 26.5852,96.9953 25.9185,97.9953 24.5,98.5C 22.6396,97.7401 20.973,96.7401 19.5,95.5C 18.7494,94.4265 17.7494,94.2599 16.5,95C 14.9825,96.6851 13.3159,98.1851 11.5,99.5C 9.71182,98.7174 8.71182,97.3841 8.5,95.5C 10.4788,94.1879 12.1455,92.5212 13.5,90.5C 10.6635,87.8581 9.33015,84.8581 9.5,81.5C 10.4232,80.6971 11.4232,80.5304 12.5,81C 14.3551,82.8551 16.1884,84.6884 18,86.5C 19.9955,84.3387 22.1622,82.3387 24.5,80.5C 25.5223,80.8555 26.189,81.5222 26.5,82.5 Z"/></g>
<g><path style="opacity:1" fill="#b49032" d="M 176.5,47.5 C 176.5,52.8333 176.5,58.1667 176.5,63.5C 175.683,65.9686 175.183,68.6353 175,71.5C 173.886,67.7009 172.553,67.7009 171,71.5C 170.827,77.0158 170.327,82.3491 169.5,87.5C 168.833,81.6535 168.167,75.6535 167.5,69.5C 163.573,76.7786 159.74,84.1119 156,91.5C 155.7,100.277 156.367,108.944 158,117.5C 156.5,119.333 155,121.167 153.5,123C 152.184,123.528 151.517,123.028 151.5,121.5C 151.666,117.486 151.499,113.486 151,109.5C 147.37,101.19 148.037,93.1897 153,85.5C 154.109,80.3521 153.109,75.6855 150,71.5C 149.313,69.4325 149.48,67.4325 150.5,65.5C 149.609,64.4104 148.609,64.4104 147.5,65.5C 146.667,64.5 145.833,63.5 145,62.5C 144.768,63.7375 144.268,64.7375 143.5,65.5C 143.5,64.1667 143.5,62.8333 143.5,61.5C 147.163,61.151 149.83,61.8177 151.5,63.5C 153.706,62.3724 155.706,62.539 157.5,64C 155.933,66.741 153.599,67.9077 150.5,67.5C 150.281,68.675 150.614,69.675 151.5,70.5C 155.15,68.7649 158.316,66.4315 161,63.5C 161.308,64.3081 161.808,64.9747 162.5,65.5C 163.382,64.2402 164.382,63.0736 165.5,62C 168.827,61.3897 172.161,60.8897 175.5,60.5C 175.182,55.9677 175.515,51.6344 176.5,47.5 Z"/></g>
<g><path style="opacity:1" fill="#2a2925" d="M 135.5,89.5 C 136.376,89.3691 137.043,89.7025 137.5,90.5C 136.607,93.0841 136.274,95.7508 136.5,98.5C 137.5,98.5 138.5,98.5 139.5,98.5C 139.552,95.6538 140.552,93.3204 142.5,91.5C 141.911,94.9413 140.577,98.108 138.5,101C 137.5,101.667 136.5,101.667 135.5,101C 133.443,97.7002 132.443,97.8669 132.5,101.5C 132.657,102.873 132.49,104.207 132,105.5C 131.329,104.748 130.496,104.414 129.5,104.5C 127.919,102.326 126.419,99.9929 125,97.5C 124.235,95.9343 124.402,94.6009 125.5,93.5C 125.369,94.2389 125.536,94.9056 126,95.5C 126.48,93.867 127.313,92.5336 128.5,91.5C 129.306,92.9972 129.972,94.6639 130.5,96.5C 131.325,97.3857 132.325,97.719 133.5,97.5C 133.283,94.5794 133.949,91.9128 135.5,89.5 Z"/></g>
<g><path style="opacity:1" fill="#686667" d="M 49.5,97.5 C 47.2032,101.751 46.0366,106.418 46,111.5C 44.7288,106.246 44.2288,100.913 44.5,95.5C 45.3067,89.326 45.4733,82.9927 45,76.5C 47.7799,78.8013 49.4466,81.8013 50,85.5C 50.4973,89.5239 50.3307,93.5239 49.5,97.5 Z"/></g>
<g><path style="opacity:1" fill="#ae5235" d="M 1.5,4.5 C 1.5,45.5 1.5,86.5 1.5,127.5C 1.5,130.167 1.5,132.833 1.5,135.5C 1.83333,137.5 2.16667,139.5 2.5,141.5C 2.16667,141.5 1.83333,141.5 1.5,141.5C 0.699293,139.958 0.36596,138.292 0.5,136.5C 0.167951,92.3302 0.501284,48.3302 1.5,4.5 Z"/></g>
<g><path style="opacity:1" fill="#9a1d26" d="M 185.5,82.5 C 186.423,85.2596 188.256,87.2596 191,88.5C 191.483,89.448 191.649,90.448 191.5,91.5C 189.394,91.679 187.728,92.679 186.5,94.5C 185.41,95.6086 185.41,96.6086 186.5,97.5C 187.768,98.4279 189.101,98.5946 190.5,98C 194.182,93.2633 197.515,93.43 200.5,98.5C 202.846,98.984 205.179,99.3173 207.5,99.5C 204.982,100.694 204.982,101.86 207.5,103C 205.866,103.494 204.199,103.66 202.5,103.5C 202.5,106.167 202.5,108.833 202.5,111.5C 197.2,111.382 194.534,114.049 194.5,119.5C 192.833,119.5 191.167,119.5 189.5,119.5C 189.598,123.25 188.431,126.583 186,129.5C 184.989,130.337 183.822,130.67 182.5,130.5C 182.737,129.209 182.404,128.209 181.5,127.5C 181.389,116.82 181.723,106.153 182.5,95.5C 182.601,92.3004 183.268,89.3004 184.5,86.5C 183.579,84.9686 183.912,83.6353 185.5,82.5 Z"/></g>
<g><path style="opacity:1" fill="#3e3e35" d="M 212.5,-0.5 C 212.833,-0.5 213.167,-0.5 213.5,-0.5C 213.5,45.8333 213.5,92.1667 213.5,138.5C 212.833,139.833 212.167,141.167 211.5,142.5C 212.433,116.85 212.766,91.1834 212.5,65.5C 212.5,43.5 212.5,21.5 212.5,-0.5 Z"/></g>
<g><path style="opacity:1" fill="#3c3d3d" d="M 160.5,87.5 C 161.5,87.5 162.5,87.5 163.5,87.5C 161.505,96.1073 160.838,104.774 161.5,113.5C 158.351,109.384 157.018,104.717 157.5,99.5C 157.667,97.1667 157.833,94.8333 158,92.5C 159.094,90.9221 159.928,89.2554 160.5,87.5 Z"/></g>
<g><path style="opacity:1" fill="#41423f" d="M 44.5,95.5 C 44.2288,100.913 44.7288,106.246 46,111.5C 46.0366,106.418 47.2032,101.751 49.5,97.5C 47.9715,104.172 47.3048,110.839 47.5,117.5C 45.8786,115.847 44.7119,113.847 44,111.5C 43.1826,105.984 43.3493,100.65 44.5,95.5 Z"/></g>
<g><path style="opacity:1" fill="#ef432a" d="M 32.5,79.5 C 32.9016,82.4766 33.9016,85.1433 35.5,87.5C 35.5,90.1667 35.5,92.8333 35.5,95.5C 34.0528,100.638 32.8862,105.971 32,111.5C 31.6667,109.5 31.3333,107.5 31,105.5C 25.812,109.205 21.6453,113.705 18.5,119C 19.8333,119.333 21.1667,119.667 22.5,120C 20.6061,121.101 19.9394,122.434 20.5,124C 17.272,128.14 13.6053,131.806 9.5,135C 9.16667,135.167 8.83333,135.333 8.5,135.5C 6.99753,131.626 6.33087,131.959 6.5,136.5C 4.84076,138.587 3.1741,138.254 1.5,135.5C 1.5,132.833 1.5,130.167 1.5,127.5C 3.36895,125.365 4.03562,122.698 3.5,119.5C 4.5,119.5 5.5,119.5 6.5,119.5C 6.5,114.167 6.5,108.833 6.5,103.5C 8.5,103.5 10.5,103.5 12.5,103.5C 12.9493,99.533 14.9493,97.6996 18.5,98C 17.1175,96.5391 17.4508,95.7058 19.5,95.5C 20.0312,97.6237 21.3645,99.1237 23.5,100C 24.5768,100.47 25.5768,100.303 26.5,99.5C 28.5158,98.5436 30.3492,97.2102 32,95.5C 32.4994,90.1771 32.666,84.8437 32.5,79.5 Z"/></g>
<g><path style="opacity:1" fill="#9d6421" d="M 19.5,95.5 C 20.973,96.7401 22.6396,97.7401 24.5,98.5C 25.9185,97.9953 26.5852,96.9953 26.5,95.5C 27.6857,96.7054 27.6857,98.0387 26.5,99.5C 25.5768,100.303 24.5768,100.47 23.5,100C 21.3645,99.1237 20.0312,97.6237 19.5,95.5 Z"/></g>
<g><path style="opacity:1" fill="#ab852e" d="M 176.5,63.5 C 176.667,87.5023 176.5,111.502 176,135.5C 175.427,137.641 174.594,139.641 173.5,141.5C 171.952,141.821 171.285,142.821 171.5,144.5C 170.5,144.5 169.5,144.5 168.5,144.5C 168.657,145.873 168.49,147.207 168,148.5C 166.387,147.378 165.22,147.878 164.5,150C 161.386,151.931 158.053,152.598 154.5,152C 155.61,149.263 155.777,146.429 155,143.5C 154.587,146.232 153.92,148.899 153,151.5C 152.506,149.866 152.34,148.199 152.5,146.5C 152.5,140.833 152.5,135.167 152.5,129.5C 153.791,129.737 154.791,129.404 155.5,128.5C 161.19,127.647 165.357,124.647 168,119.5C 172.059,109.003 172.559,98.3359 169.5,87.5C 170.327,82.3491 170.827,77.0158 171,71.5C 172.553,67.7009 173.886,67.7009 175,71.5C 175.183,68.6353 175.683,65.9686 176.5,63.5 Z"/></g>
<g><path style="opacity:1" fill="#7a1128" d="M 208.5,119.5 C 208.666,124.179 208.499,128.845 208,133.5C 205.312,137.494 203.645,141.827 203,146.5C 199.128,152.765 195.628,159.265 192.5,166C 192.833,166.333 193.167,166.667 193.5,167C 190.989,169.344 188.656,171.844 186.5,174.5C 186.357,172.738 186.691,171.071 187.5,169.5C 185.988,168.751 184.988,167.584 184.5,166C 188.362,156.408 185.528,153.908 176,158.5C 175.64,156.579 174.806,154.912 173.5,153.5C 179.625,147.876 185.625,142.042 191.5,136C 189.729,135.465 189.396,134.631 190.5,133.5C 193.276,131.87 196.276,131.203 199.5,131.5C 199.5,130.167 199.5,128.833 199.5,127.5C 203.76,126.24 206.76,123.573 208.5,119.5 Z"/></g>
<g><path style="opacity:1" fill="#272521" d="M 90.5,138.5 C 89.9569,138.56 89.6236,138.893 89.5,139.5C 91.0148,140.591 91.8481,141.924 92,143.5C 89.9361,144.591 87.7695,144.758 85.5,144C 84.9781,143.439 84.6448,142.772 84.5,142C 85.2677,139.864 85.9344,137.697 86.5,135.5C 86.2528,134.287 85.5862,133.62 84.5,133.5C 84.5,132.167 84.5,130.833 84.5,129.5C 85.7791,130.968 87.4458,131.635 89.5,131.5C 89.6567,130.127 89.49,128.793 89,127.5C 88.6667,127.833 88.3333,128.167 88,128.5C 87.6667,127.5 87.3333,126.5 87,125.5C 85.3333,126.833 83.6667,126.833 82,125.5C 81.4719,124.184 81.9719,123.517 83.5,123.5C 83.7828,124.289 84.2828,124.956 85,125.5C 86.1332,123.789 87.6332,123.289 89.5,124C 90.7082,129.29 92.3748,129.624 94.5,125C 94.3333,122.167 92.8333,120.667 90,120.5C 88.5657,120.862 87.3991,121.528 86.5,122.5C 86.6716,121.508 86.3382,120.842 85.5,120.5C 94.1519,116.969 97.6519,119.969 96,129.5C 94.7101,131.792 93.0435,133.792 91,135.5C 90.5172,136.448 90.3505,137.448 90.5,138.5 Z"/></g>
<g><path style="opacity:1" fill="#565756" d="M 83.5,123.5 C 84.609,123.443 85.609,123.11 86.5,122.5C 87.3991,121.528 88.5657,120.862 90,120.5C 92.8333,120.667 94.3333,122.167 94.5,125C 92.3748,129.624 90.7082,129.29 89.5,124C 87.6332,123.289 86.1332,123.789 85,125.5C 84.2828,124.956 83.7828,124.289 83.5,123.5 Z"/></g>
<g><path style="opacity:1" fill="#e6c23a" d="M 132.5,119.5 C 132.672,120.492 132.338,121.158 131.5,121.5C 128.353,120.12 125.02,119.12 121.5,118.5C 119.088,118.406 117.255,119.406 116,121.5C 115.333,124.167 115.333,126.833 116,129.5C 118.87,132.171 121.036,135.171 122.5,138.5C 117.771,137.984 113.104,137.984 108.5,138.5C 108.167,139.167 107.833,139.833 107.5,140.5C 112.434,141.662 112.601,142.996 108,144.5C 107.192,146.579 107.359,148.579 108.5,150.5C 109.735,149.66 110.735,148.66 111.5,147.5C 112.754,149.357 112.754,151.357 111.5,153.5C 113.021,153.88 114.687,154.046 116.5,154C 114.153,155.086 114.153,156.419 116.5,158C 114.419,160.744 111.752,162.744 108.5,164C 106.833,166.333 105.167,168.667 103.5,171C 101.345,172.357 99.1785,172.524 97,171.5C 95.6667,172.167 94.3333,172.833 93,173.5C 91.9231,172.571 90.7564,171.904 89.5,171.5C 93.5141,170.477 95.8475,167.81 96.5,163.5C 102.292,160.325 102.292,158.159 96.5,157C 99.7699,156.005 103.103,155.172 106.5,154.5C 107.872,152.38 107.205,151.38 104.5,151.5C 105.242,147.529 103.909,144.696 100.5,143C 101.793,142.51 103.127,142.343 104.5,142.5C 104.579,141.07 104.246,139.736 103.5,138.5C 98.976,138.095 94.6427,138.095 90.5,138.5C 90.3505,137.448 90.5172,136.448 91,135.5C 93.0435,133.792 94.7101,131.792 96,129.5C 97.6519,119.969 94.1519,116.969 85.5,120.5C 83.4889,122.387 81.4889,122.554 79.5,121C 82.9895,117.673 87.1562,115.839 92,115.5C 95.2634,114.932 96.7634,116.266 96.5,119.5C 97.5,119.5 98.5,119.5 99.5,119.5C 99.5,117.833 99.5,116.167 99.5,114.5C 100.5,114.5 101.5,114.5 102.5,114.5C 103.145,119.343 104.145,119.509 105.5,115C 104.251,113.462 104.418,112.295 106,111.5C 106.123,113.618 106.957,115.618 108.5,117.5C 111.981,111.979 113.314,112.645 112.5,119.5C 113.5,119.5 114.5,119.5 115.5,119.5C 115.33,118.178 115.663,117.011 116.5,116C 122.346,115.008 127.68,116.175 132.5,119.5 Z"/></g>
<g><path style="opacity:1" fill="#841825" d="M 177.5,34.5 C 178.332,66.9974 178.832,99.6641 179,132.5C 179.333,130.833 179.667,129.167 180,127.5C 180.829,138.146 181.329,138.146 181.5,127.5C 182.404,128.209 182.737,129.209 182.5,130.5C 183.822,130.67 184.989,130.337 186,129.5C 188.431,126.583 189.598,123.25 189.5,119.5C 191.167,119.5 192.833,119.5 194.5,119.5C 194.534,114.049 197.2,111.382 202.5,111.5C 202.5,108.833 202.5,106.167 202.5,103.5C 204.199,103.66 205.866,103.494 207.5,103C 204.982,101.86 204.982,100.694 207.5,99.5C 208.434,100.568 208.768,101.901 208.5,103.5C 208.5,108.833 208.5,114.167 208.5,119.5C 206.76,123.573 203.76,126.24 199.5,127.5C 199.5,128.833 199.5,130.167 199.5,131.5C 196.276,131.203 193.276,131.87 190.5,133.5C 189.396,134.631 189.729,135.465 191.5,136C 185.625,142.042 179.625,147.876 173.5,153.5C 174.806,154.912 175.64,156.579 176,158.5C 185.528,153.908 188.362,156.408 184.5,166C 184.988,167.584 185.988,168.751 187.5,169.5C 186.691,171.071 186.357,172.738 186.5,174.5C 185.833,174.5 185.167,174.5 184.5,174.5C 183.839,171.337 182.172,168.837 179.5,167C 180.27,165.225 181.437,163.725 183,162.5C 183.49,161.207 183.657,159.873 183.5,158.5C 183.265,157.903 182.765,157.57 182,157.5C 180.135,159.521 177.968,161.187 175.5,162.5C 173.5,160.833 171.5,159.167 169.5,157.5C 168.478,157.855 167.811,158.522 167.5,159.5C 164.849,161.134 164.849,162.801 167.5,164.5C 165.173,164.247 163.173,164.914 161.5,166.5C 160.914,166.291 160.414,165.957 160,165.5C 159.376,167.464 159.876,169.131 161.5,170.5C 158.833,171.833 158.833,173.167 161.5,174.5C 159.822,181.895 157.822,189.228 155.5,196.5C 154.153,197.171 152.986,197.171 152,196.5C 151.5,189.508 151.334,182.508 151.5,175.5C 152.978,175.762 154.311,175.429 155.5,174.5C 154.151,173.091 152.818,171.757 151.5,170.5C 153.833,167.833 156.167,165.167 158.5,162.5C 163.197,156.809 167.863,151.142 172.5,145.5C 173.458,145.047 174.292,144.381 175,143.5C 175.36,141.392 176.027,139.392 177,137.5C 177.5,103.168 177.667,68.835 177.5,34.5 Z"/></g>
<g><path style="opacity:1" fill="#ed2c26" d="M 35.5,95.5 C 35.5,108.833 35.5,122.167 35.5,135.5C 34.5963,135.535 33.9296,136.035 33.5,137C 34.1667,138.667 34.8333,140.333 35.5,142C 34.5765,143.811 33.7431,143.645 33,141.5C 27.4642,143.425 21.6309,144.092 15.5,143.5C 15.5,141.833 15.5,140.167 15.5,138.5C 13.1432,138.663 10.8098,138.497 8.5,138C 8.83333,137.667 9.16667,137.333 9.5,137C 8.23116,137.109 7.23116,136.942 6.5,136.5C 6.33087,131.959 6.99753,131.626 8.5,135.5C 8.83333,135.333 9.16667,135.167 9.5,135C 13.6053,131.806 17.272,128.14 20.5,124C 19.9394,122.434 20.6061,121.101 22.5,120C 21.1667,119.667 19.8333,119.333 18.5,119C 21.6453,113.705 25.812,109.205 31,105.5C 31.3333,107.5 31.6667,109.5 32,111.5C 32.8862,105.971 34.0528,100.638 35.5,95.5 Z"/></g>
<g><path style="opacity:1" fill="#eaca46" d="M 37.5,38.5 C 38.3321,62.6632 38.8321,86.9966 39,111.5C 39.3333,115.5 39.6667,119.5 40,123.5C 40.3333,123.167 40.6667,122.833 41,122.5C 41.6259,124.991 42.4593,124.991 43.5,122.5C 44.4287,123.689 44.762,125.022 44.5,126.5C 46.5648,126.517 48.5648,126.85 50.5,127.5C 52.2161,127.629 53.8828,127.962 55.5,128.5C 55.811,129.478 56.4777,130.145 57.5,130.5C 58.1669,134.982 58.8336,139.316 59.5,143.5C 60.0916,146.127 60.4249,148.794 60.5,151.5C 60.5,152.833 60.5,154.167 60.5,155.5C 58.396,155.201 56.396,155.534 54.5,156.5C 56.6241,157.149 58.6241,157.983 60.5,159C 59.6433,159.689 58.9767,160.522 58.5,161.5C 60.5,162.167 62.5,162.833 64.5,163.5C 68.7706,168.438 73.7706,173.438 79.5,178.5C 79.1788,180.048 78.1788,180.715 76.5,180.5C 59.6207,169.109 46.7874,154.109 38,135.5C 37.5,103.168 37.3334,70.8351 37.5,38.5 Z"/></g>
<g><path style="opacity:1" fill="#9e8d32" d="M 55.5,128.5 C 56.5832,128.539 57.5832,128.873 58.5,129.5C 59.4933,134.12 59.8266,138.786 59.5,143.5C 58.8336,139.316 58.1669,134.982 57.5,130.5C 56.4777,130.145 55.811,129.478 55.5,128.5 Z"/></g>
<g><path style="opacity:1" fill="#151211" d="M 131.5,121.5 C 130.391,122.29 129.058,122.79 127.5,123C 136.617,126.045 136.617,127.378 127.5,127C 130.769,128.063 134.102,128.896 137.5,129.5C 138.248,126.503 138.915,123.503 139.5,120.5C 140.325,119.614 141.325,119.281 142.5,119.5C 142.5,120.833 142.5,122.167 142.5,123.5C 141.85,123.196 141.183,122.863 140.5,122.5C 138.983,129.627 138.649,136.627 139.5,143.5C 139.833,144.167 140.167,144.833 140.5,145.5C 140.5,146.167 140.5,146.833 140.5,147.5C 139.685,146.571 138.852,145.571 138,144.5C 137.517,145.448 137.351,146.448 137.5,147.5C 136.833,146.833 136.167,146.167 135.5,145.5C 135.305,141.453 135.638,137.453 136.5,133.5C 134.297,130.644 131.297,129.311 127.5,129.5C 127.616,132.86 127.949,136.193 128.5,139.5C 130.346,139.222 131.68,139.889 132.5,141.5C 131.307,143.527 129.64,145.027 127.5,146C 124.118,146.176 120.785,146.676 117.5,147.5C 116.097,152.72 114.93,152.72 114,147.5C 113.023,146.226 112.189,146.226 111.5,147.5C 110.735,148.66 109.735,149.66 108.5,150.5C 107.359,148.579 107.192,146.579 108,144.5C 112.601,142.996 112.434,141.662 107.5,140.5C 107.833,139.833 108.167,139.167 108.5,138.5C 113.104,137.984 117.771,137.984 122.5,138.5C 121.036,135.171 118.87,132.171 116,129.5C 115.333,126.833 115.333,124.167 116,121.5C 117.255,119.406 119.088,118.406 121.5,118.5C 125.02,119.12 128.353,120.12 131.5,121.5 Z"/></g>
<g><path style="opacity:1" fill="#4d4d4e" d="M 118.5,121.5 C 119.833,121.5 121.167,121.5 122.5,121.5C 122.936,124.364 122.103,126.697 120,128.5C 117.354,126.633 116.854,124.3 118.5,121.5 Z"/></g>
<g><path style="opacity:1" fill="#787a75" d="M 140.5,145.5 C 140.167,144.833 139.833,144.167 139.5,143.5C 139.5,140.833 139.5,138.167 139.5,135.5C 140.5,135.5 141.5,135.5 142.5,135.5C 143.069,139.329 142.402,142.663 140.5,145.5 Z"/></g>
<g><path style="opacity:1" fill="#d5d6d3" d="M 1.5,141.5 C 1.83333,141.5 2.16667,141.5 2.5,141.5C 3.038,143.117 3.37133,144.784 3.5,146.5C 2.69057,145.531 1.69057,144.698 0.5,144C 1.25244,143.329 1.58577,142.496 1.5,141.5 Z"/></g>
<g><path style="opacity:1" fill="#3c3b3a" d="M 60.5,155.5 C 60.5,154.167 60.5,152.833 60.5,151.5C 61.7479,150.666 62.4146,149.333 62.5,147.5C 61.0787,141.458 61.2453,135.458 63,129.5C 63.6667,130.833 64.3333,132.167 65,133.5C 66.3144,141.051 66.4811,148.551 65.5,156C 65.1667,156.167 64.8333,156.333 64.5,156.5C 63.7568,155.092 62.9234,153.759 62,152.5C 61.7679,153.737 61.2679,154.737 60.5,155.5 Z"/></g>
<g><path style="opacity:1" fill="#1a1511" d="M 84.5,133.5 C 85.5862,133.62 86.2528,134.287 86.5,135.5C 85.9344,137.697 85.2677,139.864 84.5,142C 84.6448,142.772 84.9781,143.439 85.5,144C 87.7695,144.758 89.9361,144.591 92,143.5C 91.8481,141.924 91.0148,140.591 89.5,139.5C 89.6236,138.893 89.9569,138.56 90.5,138.5C 94.6427,138.095 98.976,138.095 103.5,138.5C 104.246,139.736 104.579,141.07 104.5,142.5C 103.127,142.343 101.793,142.51 100.5,143C 103.909,144.696 105.242,147.529 104.5,151.5C 103.163,150.685 102.163,149.518 101.5,148C 100.552,147.517 99.552,147.351 98.5,147.5C 97.9257,153.909 96.5923,154.076 94.5,148C 88.0087,148.925 83.0087,146.758 79.5,141.5C 83.1997,140.1 84.8663,137.433 84.5,133.5 Z"/></g>
<g><path style="opacity:1" fill="#e5fffa" d="M 0.5,145.5 C 1.52502,145.897 1.69169,146.563 1,147.5C 0.535656,146.906 0.368989,146.239 0.5,145.5 Z"/></g>
<g><path style="opacity:1" fill="#211611" d="M 37.5,35.5 C 37.5,36.1667 37.5,36.8333 37.5,37.5C 37.5,37.8333 37.5,38.1667 37.5,38.5C 37.3334,70.8351 37.5,103.168 38,135.5C 46.7874,154.109 59.6207,169.109 76.5,180.5C 82.0517,185.356 88.3851,189.023 95.5,191.5C 99.6047,194.976 104.271,195.976 109.5,194.5C 108.063,195.725 106.396,196.725 104.5,197.5C 81.5133,188.838 62.5133,174.838 47.5,155.5C 42.7913,149.417 39.1246,142.75 36.5,135.5C 36.1684,101.996 36.5017,68.6625 37.5,35.5 Z"/></g>
<g><path style="opacity:0.8" fill="#eeeaed" d="M 213.5,146.5 C 213.5,146.833 213.5,147.167 213.5,147.5C 212.83,147.019 212.83,146.685 213.5,146.5 Z"/></g>
<g><path style="opacity:0.267" fill="#edfffc" d="M -0.5,148.5 C 0.833333,149.167 0.833333,149.167 -0.5,148.5 Z"/></g>
<g><path style="opacity:0.4" fill="#f2f9ed" d="M 2.5,150.5 C 1.47498,150.103 1.30831,149.437 2,148.5C 2.46434,149.094 2.63101,149.761 2.5,150.5 Z"/></g>
<g><path style="opacity:1" fill="#414042" d="M 142.5,123.5 C 142.809,129.272 143.643,134.939 145,140.5C 145.758,146.891 145.424,153.224 144,159.5C 143.358,155.246 142.191,151.246 140.5,147.5C 140.5,146.833 140.5,146.167 140.5,145.5C 142.402,142.663 143.069,139.329 142.5,135.5C 141.5,135.5 140.5,135.5 139.5,135.5C 139.5,138.167 139.5,140.833 139.5,143.5C 138.649,136.627 138.983,129.627 140.5,122.5C 141.183,122.863 141.85,123.196 142.5,123.5 Z"/></g>
<g><path style="opacity:0.133" fill="#f7eff3" d="M 213.5,149.5 C 213.5,149.833 213.5,150.167 213.5,150.5C 212.83,150.019 212.83,149.685 213.5,149.5 Z"/></g>
<g><path style="opacity:0.267" fill="#edf7f1" d="M 2.5,150.5 C 3.83333,151.167 3.83333,151.167 2.5,150.5 Z"/></g>
<g><path style="opacity:1" fill="#d1ab35" d="M 135.5,145.5 C 135.5,147.5 135.5,149.5 135.5,151.5C 134.325,151.281 133.325,151.614 132.5,152.5C 131.786,154.811 130.786,156.978 129.5,159C 125.329,160.826 121.995,163.826 119.5,168C 120.167,168.333 120.833,168.667 121.5,169C 119.913,169.862 118.246,170.529 116.5,171C 113.457,175.044 109.791,178.377 105.5,181C 103.876,184.418 101.876,187.584 99.5,190.5C 98.3112,191.429 96.9778,191.762 95.5,191.5C 88.3851,189.023 82.0517,185.356 76.5,180.5C 78.1788,180.715 79.1788,180.048 79.5,178.5C 80.1577,179.398 80.8243,180.398 81.5,181.5C 82.3857,180.675 82.719,179.675 82.5,178.5C 83.5,178.5 84.5,178.5 85.5,178.5C 85.281,179.675 85.6143,180.675 86.5,181.5C 88.6204,180.597 88.9538,179.263 87.5,177.5C 89.0777,176.702 90.7444,176.202 92.5,176C 91.2695,174.595 89.9361,173.429 88.5,172.5C 89.1667,172.5 89.5,172.167 89.5,171.5C 90.7564,171.904 91.9231,172.571 93,173.5C 94.3333,172.833 95.6667,172.167 97,171.5C 99.1785,172.524 101.345,172.357 103.5,171C 105.167,168.667 106.833,166.333 108.5,164C 111.752,162.744 114.419,160.744 116.5,158C 114.153,156.419 114.153,155.086 116.5,154C 114.687,154.046 113.021,153.88 111.5,153.5C 112.754,151.357 112.754,149.357 111.5,147.5C 112.189,146.226 113.023,146.226 114,147.5C 114.93,152.72 116.097,152.72 117.5,147.5C 120.785,146.676 124.118,146.176 127.5,146C 129.64,145.027 131.307,143.527 132.5,141.5C 131.68,139.889 130.346,139.222 128.5,139.5C 127.949,136.193 127.616,132.86 127.5,129.5C 131.297,129.311 134.297,130.644 136.5,133.5C 135.638,137.453 135.305,141.453 135.5,145.5 Z"/></g>
<g><path style="opacity:1" fill="#de2626" d="M 1.5,135.5 C 3.1741,138.254 4.84076,138.587 6.5,136.5C 7.23116,136.942 8.23116,137.109 9.5,137C 9.16667,137.333 8.83333,137.667 8.5,138C 10.8098,138.497 13.1432,138.663 15.5,138.5C 15.5,140.167 15.5,141.833 15.5,143.5C 21.6309,144.092 27.4642,143.425 33,141.5C 33.7431,143.645 34.5765,143.811 35.5,142C 34.8333,140.333 34.1667,138.667 33.5,137C 33.9296,136.035 34.5963,135.535 35.5,135.5C 35.8333,135.5 36.1667,135.5 36.5,135.5C 39.1246,142.75 42.7913,149.417 47.5,155.5C 46.962,157.117 46.6287,158.784 46.5,160.5C 45.8333,160.167 45.1667,159.833 44.5,159.5C 44.189,158.522 43.5223,157.855 42.5,157.5C 40.6841,158.815 39.0175,160.315 37.5,162C 36.4232,162.47 35.4232,162.303 34.5,161.5C 33.5,160.833 32.5,160.167 31.5,159.5C 31.5299,158.503 31.0299,157.836 30,157.5C 28.662,158.506 27.3287,159.506 26,160.5C 25.3083,161.437 25.475,162.103 26.5,162.5C 26.9699,165.346 26.1366,167.679 24,169.5C 23.5,168.5 23,167.5 22.5,166.5C 22.8457,165.304 23.3457,165.304 24,166.5C 24.4828,165.552 24.6495,164.552 24.5,163.5C 22.6096,163.297 21.1096,163.963 20,165.5C 16.4804,163.976 14.3138,161.309 13.5,157.5C 12.7025,157.957 12.3691,158.624 12.5,159.5C 9.27914,155.417 6.27914,151.084 3.5,146.5C 3.37133,144.784 3.038,143.117 2.5,141.5C 2.16667,139.5 1.83333,137.5 1.5,135.5 Z"/></g>
<g><path style="opacity:1" fill="#9b762f" d="M 173.5,141.5 C 173.167,142.833 172.833,144.167 172.5,145.5C 167.863,151.142 163.197,156.809 158.5,162.5C 156.284,163.203 154.451,164.536 153,166.5C 153,165.167 153,163.833 153,162.5C 152.035,164.26 150.868,164.594 149.5,163.5C 150.243,162.818 150.909,162.151 151.5,161.5C 153.977,160.88 153.977,159.88 151.5,158.5C 153.369,157.376 155.369,156.543 157.5,156C 155.527,155.505 153.527,155.338 151.5,155.5C 151.19,152.287 151.523,149.287 152.5,146.5C 152.34,148.199 152.506,149.866 153,151.5C 153.92,148.899 154.587,146.232 155,143.5C 155.777,146.429 155.61,149.263 154.5,152C 158.053,152.598 161.386,151.931 164.5,150C 165.22,147.878 166.387,147.378 168,148.5C 168.49,147.207 168.657,145.873 168.5,144.5C 169.5,144.5 170.5,144.5 171.5,144.5C 171.285,142.821 171.952,141.821 173.5,141.5 Z"/></g>
<g><path style="opacity:1" fill="#eac639" d="M 84.5,129.5 C 84.5,130.833 84.5,132.167 84.5,133.5C 84.8663,137.433 83.1997,140.1 79.5,141.5C 83.0087,146.758 88.0087,148.925 94.5,148C 96.5923,154.076 97.9257,153.909 98.5,147.5C 99.552,147.351 100.552,147.517 101.5,148C 102.163,149.518 103.163,150.685 104.5,151.5C 107.205,151.38 107.872,152.38 106.5,154.5C 103.103,155.172 99.7699,156.005 96.5,157C 102.292,158.159 102.292,160.325 96.5,163.5C 95.8475,167.81 93.5141,170.477 89.5,171.5C 89.5,172.167 89.1667,172.5 88.5,172.5C 86.4727,172.662 84.4727,172.495 82.5,172C 77.2381,165.653 74.0715,158.486 73,150.5C 74.7398,149.284 75.7398,147.618 76,145.5C 76.6477,140.796 76.481,136.129 75.5,131.5C 78.5739,131.127 81.5739,130.461 84.5,129.5 Z"/></g>
<g><path style="opacity:0.8" fill="#e9f3ef" d="M 206.5,155.5 C 207.833,156.167 207.833,156.167 206.5,155.5 Z"/></g>
<g><path style="opacity:1" fill="#84655c" d="M 3.5,146.5 C 6.27914,151.084 9.27914,155.417 12.5,159.5C 13.5515,162.193 14.5515,164.86 15.5,167.5C 14.1964,166.013 13.0298,164.346 12,162.5C 11.3292,161.748 10.4959,161.414 9.5,161.5C 7.24143,156.643 5.24143,151.643 3.5,146.5 Z"/></g>
<g><path style="opacity:0.533" fill="#d4cecf" d="M 203.5,159.5 C 203.573,161.027 202.906,162.027 201.5,162.5C 201.427,160.973 202.094,159.973 203.5,159.5 Z"/></g>
<g><path style="opacity:0.267" fill="#edfffe" d="M 9.5,161.5 C 8.83333,162.167 8.83333,162.167 9.5,161.5 Z"/></g>
<g><path style="opacity:1" fill="#825b2d" d="M 167.5,159.5 C 168.321,162.663 169.988,165.33 172.5,167.5C 172.376,168.107 172.043,168.44 171.5,168.5C 170.5,166.833 169.167,165.5 167.5,164.5C 164.849,162.801 164.849,161.134 167.5,159.5 Z"/></g>
<g><path style="opacity:1" fill="#f6e374" d="M 183.5,158.5 C 181.599,160.922 179.266,162.922 176.5,164.5C 174.102,163.611 172.102,162.111 170.5,160C 169.552,159.517 168.552,159.351 167.5,159.5C 167.811,158.522 168.478,157.855 169.5,157.5C 171.5,159.167 173.5,160.833 175.5,162.5C 177.968,161.187 180.135,159.521 182,157.5C 182.765,157.57 183.265,157.903 183.5,158.5 Z"/></g>
<g><path style="opacity:0.4" fill="#ecfffe" d="M 10.5,164.5 C 11.8333,165.167 11.8333,165.167 10.5,164.5 Z"/></g>
<g><path style="opacity:1" fill="#644520" d="M 151.5,161.5 C 150.909,162.151 150.243,162.818 149.5,163.5C 150.868,164.594 152.035,164.26 153,162.5C 153,163.833 153,165.167 153,166.5C 154.451,164.536 156.284,163.203 158.5,162.5C 156.167,165.167 153.833,167.833 151.5,170.5C 149.754,172.252 147.754,173.585 145.5,174.5C 147.477,172.186 149.477,169.853 151.5,167.5C 149.257,166.526 146.924,166.192 144.5,166.5C 145.209,165.596 146.209,165.263 147.5,165.5C 147.167,162.5 148.5,161.167 151.5,161.5 Z"/></g>
<g><path style="opacity:1" fill="#997530" d="M 144.5,166.5 C 146.924,166.192 149.257,166.526 151.5,167.5C 149.477,169.853 147.477,172.186 145.5,174.5C 144.222,174.782 143.222,175.449 142.5,176.5C 138.975,177.759 135.975,179.759 133.5,182.5C 130.008,183.41 127.008,185.076 124.5,187.5C 123.167,187.833 121.833,188.167 120.5,188.5C 119.086,186.862 119.42,185.528 121.5,184.5C 118.785,179.046 119.619,178.379 124,182.5C 124.765,182.43 125.265,182.097 125.5,181.5C 127.104,180.713 127.771,179.38 127.5,177.5C 128.5,177.5 129.5,177.5 130.5,177.5C 130.612,181.339 131.279,181.339 132.5,177.5C 136.462,173.875 140.462,170.209 144.5,166.5 Z"/></g>
<g><path style="opacity:1" fill="#f1d62c" d="M 183.5,158.5 C 183.657,159.873 183.49,161.207 183,162.5C 181.437,163.725 180.27,165.225 179.5,167C 182.172,168.837 183.839,171.337 184.5,174.5C 183.292,175.234 181.959,175.567 180.5,175.5C 178.877,174.221 177.21,172.887 175.5,171.5C 173.177,173.065 170.844,174.232 168.5,175C 167.289,171.99 168.289,169.823 171.5,168.5C 172.043,168.44 172.376,168.107 172.5,167.5C 169.988,165.33 168.321,162.663 167.5,159.5C 168.552,159.351 169.552,159.517 170.5,160C 172.102,162.111 174.102,163.611 176.5,164.5C 179.266,162.922 181.599,160.922 183.5,158.5 Z"/></g>
<g><path style="opacity:1" fill="#ba9431" d="M 135.5,145.5 C 136.167,146.167 136.833,146.833 137.5,147.5C 139.484,149.46 140.317,151.793 140,154.5C 137.143,159.41 134.476,164.41 132,169.5C 129.772,171.968 126.938,173.135 123.5,173C 118.105,175.308 118.438,176.475 124.5,176.5C 124.216,178.415 124.549,180.081 125.5,181.5C 125.265,182.097 124.765,182.43 124,182.5C 119.619,178.379 118.785,179.046 121.5,184.5C 119.42,185.528 119.086,186.862 120.5,188.5C 116.607,190.276 112.94,192.276 109.5,194.5C 104.271,195.976 99.6047,194.976 95.5,191.5C 96.9778,191.762 98.3112,191.429 99.5,190.5C 101.876,187.584 103.876,184.418 105.5,181C 109.791,178.377 113.457,175.044 116.5,171C 118.246,170.529 119.913,169.862 121.5,169C 120.833,168.667 120.167,168.333 119.5,168C 121.995,163.826 125.329,160.826 129.5,159C 130.786,156.978 131.786,154.811 132.5,152.5C 133.325,151.614 134.325,151.281 135.5,151.5C 135.5,149.5 135.5,147.5 135.5,145.5 Z"/></g>
<g><path style="opacity:0.133" fill="#eff5ee" d="M 196.5,172.5 C 197.833,173.167 197.833,173.167 196.5,172.5 Z"/></g>
<g><path style="opacity:0.4" fill="#f3edf4" d="M 19.5,174.5 C 18.8333,175.167 18.8333,175.167 19.5,174.5 Z"/></g>
<g><path style="opacity:1" fill="#774a44" d="M 15.5,167.5 C 18.3672,168.99 21.0339,170.656 23.5,172.5C 24.0653,175.42 25.3986,178.086 27.5,180.5C 27.1667,180.5 26.8333,180.5 26.5,180.5C 24.1667,178.5 21.8333,176.5 19.5,174.5C 17.8487,172.356 16.5153,170.022 15.5,167.5 Z"/></g>
<g><path style="opacity:1" fill="#801526" d="M 167.5,164.5 C 169.167,165.5 170.5,166.833 171.5,168.5C 168.289,169.823 167.289,171.99 168.5,175C 170.844,174.232 173.177,173.065 175.5,171.5C 177.21,172.887 178.877,174.221 180.5,175.5C 181.028,176.847 181.195,178.181 181,179.5C 175.765,182.052 171.265,185.385 167.5,189.5C 165.914,192.114 164.248,194.78 162.5,197.5C 160.194,197.007 157.861,196.674 155.5,196.5C 157.822,189.228 159.822,181.895 161.5,174.5C 158.833,173.167 158.833,171.833 161.5,170.5C 159.876,169.131 159.376,167.464 160,165.5C 160.414,165.957 160.914,166.291 161.5,166.5C 163.173,164.914 165.173,164.247 167.5,164.5 Z"/></g>
<g><path style="opacity:1" fill="#3d1616" d="M 142.5,176.5 C 140.763,178.55 138.763,180.383 136.5,182C 135.552,182.483 134.552,182.649 133.5,182.5C 135.975,179.759 138.975,177.759 142.5,176.5 Z"/></g>
<g><path style="opacity:0.533" fill="#ebedee" d="M 189.5,180.5 C 190.833,181.167 190.833,181.167 189.5,180.5 Z"/></g>
<g><path style="opacity:0.667" fill="#ccd6d0" d="M 26.5,180.5 C 26.8333,180.5 27.1667,180.5 27.5,180.5C 28.1667,181.5 28.8333,182.5 29.5,183.5C 28.1667,183.167 26.8333,182.833 25.5,182.5C 25.8333,181.833 26.1667,181.167 26.5,180.5 Z"/></g>
<g><path style="opacity:1" fill="#3e2b2b" d="M 211.5,142.5 C 211.528,144.582 210.861,146.416 209.5,148C 210.634,149.016 210.301,149.683 208.5,150C 208.833,150.333 209.167,150.667 209.5,151C 207.624,151.918 206.624,153.418 206.5,155.5C 205.5,156.833 204.5,158.167 203.5,159.5C 202.094,159.973 201.427,160.973 201.5,162.5C 197.289,168.797 192.289,175.13 186.5,181.5C 184.167,183.167 182.167,185.167 180.5,187.5C 177.474,190.195 174.474,192.862 171.5,195.5C 168.808,197.862 166.141,200.196 163.5,202.5C 162.078,203.925 160.411,204.925 158.5,205.5C 158.389,204.883 158.056,204.383 157.5,204C 168.616,196.217 178.45,187.051 187,176.5C 187.333,176.833 187.667,177.167 188,177.5C 188.667,176.167 189.333,174.833 190,173.5C 190.333,173.833 190.667,174.167 191,174.5C 193.532,170.769 195.532,166.769 197,162.5C 202.149,155.883 206.983,149.216 211.5,142.5 Z"/></g>
<g><path style="opacity:0.133" fill="#eeefee" d="M 186.5,181.5 C 187.833,182.167 187.833,182.167 186.5,181.5 Z"/></g>
<g><path style="opacity:0.133" fill="#eefffd" d="M 25.5,182.5 C 24.8333,183.167 24.8333,183.167 25.5,182.5 Z"/></g>
<g><path style="opacity:1" fill="#4f0510" d="M 212.5,65.5 C 212.766,91.1834 212.433,116.85 211.5,142.5C 206.983,149.216 202.149,155.883 197,162.5C 195.532,166.769 193.532,170.769 191,174.5C 190.667,174.167 190.333,173.833 190,173.5C 189.333,174.833 188.667,176.167 188,177.5C 187.667,177.167 187.333,176.833 187,176.5C 178.45,187.051 168.616,196.217 157.5,204C 158.056,204.383 158.389,204.883 158.5,205.5C 154.801,206.477 151.134,207.644 147.5,209C 146.418,210.33 145.751,211.83 145.5,213.5C 141.363,214.487 137.363,215.82 133.5,217.5C 134.806,216.533 135.473,215.199 135.5,213.5C 137.564,213.313 139.564,212.813 141.5,212C 148.143,206.502 155.143,201.669 162.5,197.5C 164.248,194.78 165.914,192.114 167.5,189.5C 171.265,185.385 175.765,182.052 181,179.5C 181.195,178.181 181.028,176.847 180.5,175.5C 181.959,175.567 183.292,175.234 184.5,174.5C 185.167,174.5 185.833,174.5 186.5,174.5C 188.656,171.844 190.989,169.344 193.5,167C 193.167,166.667 192.833,166.333 192.5,166C 195.628,159.265 199.128,152.765 203,146.5C 203.645,141.827 205.312,137.494 208,133.5C 208.499,128.845 208.666,124.179 208.5,119.5C 208.5,114.167 208.5,108.833 208.5,103.5C 209.327,108.651 209.827,113.984 210,119.5C 210.333,116.833 210.667,114.167 211,111.5C 211.169,95.9945 211.669,80.6612 212.5,65.5 Z"/></g>
<g><path style="opacity:0.133" fill="#eef8f4" d="M 180.5,187.5 C 181.833,188.167 181.833,188.167 180.5,187.5 Z"/></g>
<g><path style="opacity:1" fill="#4d1c13" d="M 124.5,187.5 C 123.552,188.978 122.219,189.978 120.5,190.5C 116.89,192.145 113.223,193.478 109.5,194.5C 112.94,192.276 116.607,190.276 120.5,188.5C 121.833,188.167 123.167,187.833 124.5,187.5 Z"/></g>
<g><path style="opacity:1" fill="#bd2125" d="M 47.5,155.5 C 62.5133,174.838 81.5133,188.838 104.5,197.5C 106.396,196.725 108.063,195.725 109.5,194.5C 113.223,193.478 116.89,192.145 120.5,190.5C 121.672,191.705 123.005,191.705 124.5,190.5C 124.833,191 125.167,191.5 125.5,192C 123.386,194.883 121.053,197.549 118.5,200C 113.3,200.283 112.633,201.783 116.5,204.5C 117.799,203.91 118.632,202.91 119,201.5C 119.114,204.833 118.781,208.166 118,211.5C 117.302,212.691 116.469,213.691 115.5,214.5C 114.624,214.631 113.957,214.298 113.5,213.5C 115.086,211.827 115.753,209.827 115.5,207.5C 115.24,205.405 114.074,204.072 112,203.5C 109.667,204.833 107.333,206.167 105,207.5C 102.888,206.392 101.054,204.892 99.5,203C 98.5632,202.308 97.8966,202.475 97.5,203.5C 95.0876,203.244 93.4209,204.244 92.5,206.5C 90.3333,206.833 88.1667,207.167 86,207.5C 79.8677,206.395 73.7011,205.561 67.5,205C 63.4897,201.547 58.823,199.547 53.5,199C 51.3333,197.5 49.5,195.667 48,193.5C 47.6667,193.833 47.3333,194.167 47,194.5C 44.8282,193.491 43.6615,191.824 43.5,189.5C 42.1667,189.5 40.8333,189.5 39.5,189.5C 36.4482,187.133 33.1148,185.133 29.5,183.5C 28.8333,182.5 28.1667,181.5 27.5,180.5C 25.3986,178.086 24.0653,175.42 23.5,172.5C 21.0339,170.656 18.3672,168.99 15.5,167.5C 14.5515,164.86 13.5515,162.193 12.5,159.5C 12.3691,158.624 12.7025,157.957 13.5,157.5C 14.3138,161.309 16.4804,163.976 20,165.5C 21.1096,163.963 22.6096,163.297 24.5,163.5C 24.6495,164.552 24.4828,165.552 24,166.5C 23.3457,165.304 22.8457,165.304 22.5,166.5C 23,167.5 23.5,168.5 24,169.5C 26.1366,167.679 26.9699,165.346 26.5,162.5C 28.3008,164.138 29.9675,165.971 31.5,168C 30,169.5 28.5,171 27,172.5C 26.3828,173.449 26.5494,174.282 27.5,175C 28.8333,175.667 30.1667,175.667 31.5,175C 34.4101,172.198 37.0768,172.198 39.5,175C 46.5159,175.468 47.1826,173.635 41.5,169.5C 41.615,167.053 42.615,165.053 44.5,163.5C 45.1667,162.5 45.8333,161.5 46.5,160.5C 46.6287,158.784 46.962,157.117 47.5,155.5 Z"/></g>
<g><path style="opacity:1" fill="#e8d049" d="M 31.5,159.5 C 31.5394,160.583 31.8728,161.583 32.5,162.5C 31.9747,163.192 31.3081,163.692 30.5,164C 33.6559,166.155 34.8226,168.989 34,172.5C 35.9355,170.806 37.7688,169.139 39.5,167.5C 39.8333,168.5 40.5,169.167 41.5,169.5C 47.1826,173.635 46.5159,175.468 39.5,175C 37.0768,172.198 34.4101,172.198 31.5,175C 30.1667,175.667 28.8333,175.667 27.5,175C 26.5494,174.282 26.3828,173.449 27,172.5C 28.5,171 30,169.5 31.5,168C 29.9675,165.971 28.3008,164.138 26.5,162.5C 25.475,162.103 25.3083,161.437 26,160.5C 27.3287,159.506 28.662,158.506 30,157.5C 31.0299,157.836 31.5299,158.503 31.5,159.5 Z"/></g>
<g><path style="opacity:1" fill="#f7de23" d="M 31.5,159.5 C 32.5,160.167 33.5,160.833 34.5,161.5C 34.62,162.586 35.2867,163.253 36.5,163.5C 38.9322,161.744 41.5988,160.41 44.5,159.5C 45.1667,159.833 45.8333,160.167 46.5,160.5C 45.8333,161.5 45.1667,162.5 44.5,163.5C 42.2512,164.08 40.5846,165.413 39.5,167.5C 37.7688,169.139 35.9355,170.806 34,172.5C 34.8226,168.989 33.6559,166.155 30.5,164C 31.3081,163.692 31.9747,163.192 32.5,162.5C 31.8728,161.583 31.5394,160.583 31.5,159.5 Z"/></g>
<g><path style="opacity:1" fill="#875b1a" d="M 44.5,163.5 C 42.615,165.053 41.615,167.053 41.5,169.5C 40.5,169.167 39.8333,168.5 39.5,167.5C 40.5846,165.413 42.2512,164.08 44.5,163.5 Z"/></g>
<g><path style="opacity:1" fill="#f9dc7f" d="M 44.5,159.5 C 41.5988,160.41 38.9322,161.744 36.5,163.5C 35.2867,163.253 34.62,162.586 34.5,161.5C 35.4232,162.303 36.4232,162.47 37.5,162C 39.0175,160.315 40.6841,158.815 42.5,157.5C 43.5223,157.855 44.189,158.522 44.5,159.5 Z"/></g>
<g><path style="opacity:1" fill="#563b37" d="M 29.5,183.5 C 33.1148,185.133 36.4482,187.133 39.5,189.5C 39.281,190.675 39.6143,191.675 40.5,192.5C 46.2911,197.896 52.6245,202.563 59.5,206.5C 59.9175,207.222 60.5842,207.722 61.5,208C 60.944,208.383 60.6107,208.883 60.5,209.5C 60.1667,209.5 59.8333,209.5 59.5,209.5C 57.178,207.075 54.8447,205.409 52.5,204.5C 43.8367,198.499 36.1701,191.499 29.5,183.5 Z"/></g>
<g><path style="opacity:1" fill="#981b22" d="M 151.5,170.5 C 152.818,171.757 154.151,173.091 155.5,174.5C 154.311,175.429 152.978,175.762 151.5,175.5C 151.334,182.508 151.5,189.508 152,196.5C 152.986,197.171 154.153,197.171 155.5,196.5C 157.861,196.674 160.194,197.007 162.5,197.5C 155.143,201.669 148.143,206.502 141.5,212C 139.564,212.813 137.564,213.313 135.5,213.5C 135.473,215.199 134.806,216.533 133.5,217.5C 132.508,217.328 131.842,217.662 131.5,218.5C 126.414,220.749 121.081,221.749 115.5,221.5C 115.737,220.209 115.404,219.209 114.5,218.5C 112.856,216.519 111.19,214.519 109.5,212.5C 110.482,209.467 112.482,207.8 115.5,207.5C 115.753,209.827 115.086,211.827 113.5,213.5C 113.957,214.298 114.624,214.631 115.5,214.5C 117.544,215.031 119.211,216.198 120.5,218C 121.944,218.781 123.277,218.614 124.5,217.5C 126.177,215.24 128.343,213.573 131,212.5C 130.229,209.418 131.562,207.418 135,206.5C 135.497,204.19 135.663,201.857 135.5,199.5C 136.5,199.5 137.5,199.5 138.5,199.5C 138.662,197.473 138.495,195.473 138,193.5C 137.333,192.167 136.667,192.167 136,193.5C 135.696,191.559 134.863,189.893 133.5,188.5C 134.025,187.808 134.692,187.308 135.5,187C 134.338,186.173 133.171,185.34 132,184.5C 130.189,185.424 130.355,186.257 132.5,187C 129.806,186.388 127.14,186.555 124.5,187.5C 127.008,185.076 130.008,183.41 133.5,182.5C 134.552,182.649 135.552,182.483 136.5,182C 138.763,180.383 140.763,178.55 142.5,176.5C 143.222,175.449 144.222,174.782 145.5,174.5C 147.754,173.585 149.754,172.252 151.5,170.5 Z"/></g>
<g><path style="opacity:0.4" fill="#ecfff5" d="M 171.5,195.5 C 172.833,196.167 172.833,196.167 171.5,195.5 Z"/></g>
<g><path style="opacity:0.533" fill="#edecee" d="M 170.5,197.5 C 171.833,198.167 171.833,198.167 170.5,197.5 Z"/></g>
<g><path style="opacity:0.4" fill="#ecf3f0" d="M 174.5,198.5 C 175.833,199.167 175.833,199.167 174.5,198.5 Z"/></g>
<g><path style="opacity:1" fill="#ab1e24" d="M 115.5,214.5 C 116.469,213.691 117.302,212.691 118,211.5C 118.781,208.166 119.114,204.833 119,201.5C 118.632,202.91 117.799,203.91 116.5,204.5C 112.633,201.783 113.3,200.283 118.5,200C 121.053,197.549 123.386,194.883 125.5,192C 125.167,191.5 124.833,191 124.5,190.5C 123.005,191.705 121.672,191.705 120.5,190.5C 122.219,189.978 123.552,188.978 124.5,187.5C 127.14,186.555 129.806,186.388 132.5,187C 130.355,186.257 130.189,185.424 132,184.5C 133.171,185.34 134.338,186.173 135.5,187C 134.692,187.308 134.025,187.808 133.5,188.5C 134.863,189.893 135.696,191.559 136,193.5C 136.667,192.167 137.333,192.167 138,193.5C 138.495,195.473 138.662,197.473 138.5,199.5C 137.5,199.5 136.5,199.5 135.5,199.5C 135.663,201.857 135.497,204.19 135,206.5C 131.562,207.418 130.229,209.418 131,212.5C 128.343,213.573 126.177,215.24 124.5,217.5C 123.277,218.614 121.944,218.781 120.5,218C 119.211,216.198 117.544,215.031 115.5,214.5 Z"/></g>
<g><path style="opacity:0.8" fill="#eaf2e9" d="M 163.5,202.5 C 164.833,203.167 164.833,203.167 163.5,202.5 Z"/></g>
<g><path style="opacity:0.533" fill="#feecf6" d="M 47.5,204.5 C 48.8333,205.167 48.8333,205.167 47.5,204.5 Z"/></g>
<g><path style="opacity:1" fill="#e5f1ec" d="M 52.5,204.5 C 51.8333,205.167 51.8333,205.167 52.5,204.5 Z"/></g>
<g><path style="opacity:0.267" fill="#edf3ee" d="M 166.5,204.5 C 167.833,205.167 167.833,205.167 166.5,204.5 Z"/></g>
<g><path style="opacity:0.133" fill="#eef8f2" d="M 48.5,206.5 C 49.8333,207.167 49.8333,207.167 48.5,206.5 Z"/></g>
<g><path style="opacity:1" fill="#f1d738" d="M 115.5,207.5 C 112.482,207.8 110.482,209.467 109.5,212.5C 111.19,214.519 112.856,216.519 114.5,218.5C 113.5,220.167 112.167,221.5 110.5,222.5C 106.82,215.899 103.487,215.899 100.5,222.5C 98.4862,222.608 96.8195,221.942 95.5,220.5C 96.8835,217.646 98.5502,214.98 100.5,212.5C 99.5893,209.918 97.9226,207.918 95.5,206.5C 96.1925,205.482 96.8592,204.482 97.5,203.5C 97.8966,202.475 98.5632,202.308 99.5,203C 101.054,204.892 102.888,206.392 105,207.5C 107.333,206.167 109.667,204.833 112,203.5C 114.074,204.072 115.24,205.405 115.5,207.5 Z"/></g>
<g><path style="opacity:1" fill="#493330" d="M 158.5,205.5 C 154.741,208.89 150.408,211.557 145.5,213.5C 145.751,211.83 146.418,210.33 147.5,209C 151.134,207.644 154.801,206.477 158.5,205.5 Z"/></g>
<g><path style="opacity:1" fill="#eae5e6" d="M 56.5,209.5 C 57.8333,210.167 57.8333,210.167 56.5,209.5 Z"/></g>
<g><path style="opacity:0.933" fill="#e8f2ec" d="M 59.5,209.5 C 58.8333,210.167 58.8333,210.167 59.5,209.5 Z"/></g>
<g><path style="opacity:1" fill="#f0e5e6" d="M 56.5,210.5 C 55.8333,211.167 55.8333,211.167 56.5,210.5 Z"/></g>
<g><path style="opacity:1" fill="#382c2a" d="M 61.5,209.5 C 64.5549,210.524 67.5549,211.857 70.5,213.5C 71.2975,213.957 71.6309,214.624 71.5,215.5C 67.4945,214.502 64.1612,212.502 61.5,209.5 Z"/></g>
<g><path style="opacity:1" fill="#5f0a0b" d="M 59.5,206.5 C 64.2314,209.111 69.2314,211.278 74.5,213C 75.0712,214.205 75.7379,215.372 76.5,216.5C 78.6198,215.128 79.6198,215.795 79.5,218.5C 81.3797,218.229 82.713,218.896 83.5,220.5C 80.1295,219.424 76.7961,218.424 73.5,217.5C 72.5,217.167 71.8333,216.5 71.5,215.5C 71.6309,214.624 71.2975,213.957 70.5,213.5C 67.5549,211.857 64.5549,210.524 61.5,209.5C 61.1667,209.5 60.8333,209.5 60.5,209.5C 60.6107,208.883 60.944,208.383 61.5,208C 60.5842,207.722 59.9175,207.222 59.5,206.5 Z"/></g>
<g><path style="opacity:1" fill="#a81f22" d="M 39.5,189.5 C 40.8333,189.5 42.1667,189.5 43.5,189.5C 43.6615,191.824 44.8282,193.491 47,194.5C 47.3333,194.167 47.6667,193.833 48,193.5C 49.5,195.667 51.3333,197.5 53.5,199C 58.823,199.547 63.4897,201.547 67.5,205C 73.7011,205.561 79.8677,206.395 86,207.5C 88.1667,207.167 90.3333,206.833 92.5,206.5C 93.4209,204.244 95.0876,203.244 97.5,203.5C 96.8592,204.482 96.1925,205.482 95.5,206.5C 97.9226,207.918 99.5893,209.918 100.5,212.5C 98.5502,214.98 96.8835,217.646 95.5,220.5C 96.0283,221.847 96.195,223.181 96,224.5C 92.2206,221.871 88.0539,220.538 83.5,220.5C 82.713,218.896 81.3797,218.229 79.5,218.5C 79.6198,215.795 78.6198,215.128 76.5,216.5C 75.7379,215.372 75.0712,214.205 74.5,213C 69.2314,211.278 64.2314,209.111 59.5,206.5C 52.6245,202.563 46.2911,197.896 40.5,192.5C 39.6143,191.675 39.281,190.675 39.5,189.5 Z"/></g>
<g><path style="opacity:0.533" fill="#edeeeb" d="M 151.5,211.5 C 152.833,212.167 152.833,212.167 151.5,211.5 Z"/></g>
<g><path style="opacity:0.667" fill="#feebf6" d="M 62.5,212.5 C 63.8333,213.167 63.8333,213.167 62.5,212.5 Z"/></g>
<g><path style="opacity:0.667" fill="#eaf1ec" d="M 149.5,212.5 C 150.833,213.167 150.833,213.167 149.5,212.5 Z"/></g>
<g><path style="opacity:0.933" fill="#e8e9ea" d="M 158.5,213.5 C 159.833,214.167 159.833,214.167 158.5,213.5 Z"/></g>
<g><path style="opacity:0.133" fill="#eefbee" d="M 61.5,214.5 C 62.8333,215.167 62.8333,215.167 61.5,214.5 Z"/></g>
<g><path style="opacity:1" fill="#5b534e" d="M 73.5,217.5 C 76.7961,218.424 80.1295,219.424 83.5,220.5C 83.5,220.833 83.5,221.167 83.5,221.5C 83.8333,222.167 84.1667,222.833 84.5,223.5C 81.4116,221.625 78.0783,220.292 74.5,219.5C 74.1667,218.833 73.8333,218.167 73.5,217.5 Z"/></g>
<g><path style="opacity:1" fill="#4a3635" d="M 145.5,213.5 C 136.485,219.009 127.151,224.009 117.5,228.5C 113.345,229.742 109.678,231.742 106.5,234.5C 105.833,234.5 105.167,234.5 104.5,234.5C 102.924,233.857 101.59,232.857 100.5,231.5C 102.857,231.663 105.19,231.497 107.5,231C 115.089,226.182 123.089,222.015 131.5,218.5C 131.842,217.662 132.508,217.328 133.5,217.5C 137.363,215.82 141.363,214.487 145.5,213.5 Z"/></g>
<g><path style="opacity:0.8" fill="#e9eeee" d="M 74.5,219.5 C 74.5,219.833 74.5,220.167 74.5,220.5C 73.8299,220.019 73.8299,219.685 74.5,219.5 Z"/></g>
<g><path style="opacity:1" fill="#e6f2ed" d="M 71.5,220.5 C 72.8333,221.167 72.8333,221.167 71.5,220.5 Z"/></g>
<g><path style="opacity:1" fill="#fae8ed" d="M 74.5,220.5 C 75.8333,221.167 75.8333,221.167 74.5,220.5 Z"/></g>
<g><path style="opacity:0.133" fill="#eef1ef" d="M 138.5,220.5 C 139.833,221.167 139.833,221.167 138.5,220.5 Z"/></g>
<g><path style="opacity:1" fill="#841818" d="M 110.5,222.5 C 111.234,223.708 111.567,225.041 111.5,226.5C 107.611,227.965 103.611,228.465 99.5,228C 94.4611,224.976 89.1278,222.81 83.5,221.5C 83.5,221.167 83.5,220.833 83.5,220.5C 88.0539,220.538 92.2206,221.871 96,224.5C 96.195,223.181 96.0283,221.847 95.5,220.5C 96.8195,221.942 98.4862,222.608 100.5,222.5C 103.487,215.899 106.82,215.899 110.5,222.5 Z"/></g>
<g><path style="opacity:0.667" fill="#eaf7f4" d="M 131.5,222.5 C 132.833,223.167 132.833,223.167 131.5,222.5 Z"/></g>
<g><path style="opacity:1" fill="#7b716f" d="M 86.5,224.5 C 90.5468,224.355 93.5468,226.022 95.5,229.5C 93.9826,229.489 92.8159,228.823 92,227.5C 90.984,228.634 90.3173,228.301 90,226.5C 89.6667,226.833 89.3333,227.167 89,227.5C 88.3021,226.309 87.4687,225.309 86.5,224.5 Z"/></g>
<g><path style="opacity:1" fill="#550d0e" d="M 114.5,218.5 C 115.404,219.209 115.737,220.209 115.5,221.5C 121.081,221.749 126.414,220.749 131.5,218.5C 123.089,222.015 115.089,226.182 107.5,231C 105.19,231.497 102.857,231.663 100.5,231.5C 99.1667,231.167 97.8333,230.833 96.5,230.5C 96.5,229.833 96.1667,229.5 95.5,229.5C 93.5468,226.022 90.5468,224.355 86.5,224.5C 85.8333,224.167 85.1667,223.833 84.5,223.5C 84.1667,222.833 83.8333,222.167 83.5,221.5C 89.1278,222.81 94.4611,224.976 99.5,228C 103.611,228.465 107.611,227.965 111.5,226.5C 111.567,225.041 111.234,223.708 110.5,222.5C 112.167,221.5 113.5,220.167 114.5,218.5 Z"/></g>
<g><path style="opacity:0.133" fill="#eef3f3" d="M 121.5,227.5 C 122.833,228.167 122.833,228.167 121.5,227.5 Z"/></g>
<g><path style="opacity:0.133" fill="#f0eff3" d="M 125.5,227.5 C 126.833,228.167 126.833,228.167 125.5,227.5 Z"/></g>
<g><path style="opacity:0.533" fill="#f7ecf5" d="M 87.5,228.5 C 88.8333,229.167 88.8333,229.167 87.5,228.5 Z"/></g>
<g><path style="opacity:0.267" fill="#edf2f4" d="M 117.5,228.5 C 118.167,228.5 118.5,228.833 118.5,229.5C 118.167,229.167 117.833,228.833 117.5,228.5 Z"/></g>
<g><path style="opacity:0.533" fill="#edecf0" d="M 118.5,229.5 C 119.833,230.167 119.833,230.167 118.5,229.5 Z"/></g>
<g><path style="opacity:0.133" fill="#f2f4ee" d="M 126.5,229.5 C 127.833,230.167 127.833,230.167 126.5,229.5 Z"/></g>
<g><path style="opacity:0.8" fill="#e9fffa" d="M 87.5,230.5 C 88.8333,231.167 88.8333,231.167 87.5,230.5 Z"/></g>
<g><path style="opacity:0.533" fill="#ebf6f7" d="M 96.5,230.5 C 95.8333,231.167 95.8333,231.167 96.5,230.5 Z"/></g>
<g><path style="opacity:0.667" fill="#eaefef" d="M 116.5,230.5 C 117.833,231.167 117.833,231.167 116.5,230.5 Z"/></g>
</svg>
