<?xml version="1.0" encoding="UTF-8"?>
<!DOCTYPE svg PUBLIC "-//W3C//DTD SVG 1.1//EN" "http://www.w3.org/Graphics/SVG/1.1/DTD/svg11.dtd">
<svg xmlns="http://www.w3.org/2000/svg" version="1.1" width="204px" height="200px" style="shape-rendering:geometricPrecision; text-rendering:geometricPrecision; image-rendering:optimizeQuality; fill-rule:evenodd; clip-rule:evenodd" xmlns:xlink="http://www.w3.org/1999/xlink">
<g><path style="opacity:0.004" fill="#96999e" d="M 166.5,5.5 C 167.773,6.07683 167.773,6.7435 166.5,7.5C 165.537,7.03017 165.537,6.3635 166.5,5.5 Z"/></g>
<g><path style="opacity:0.004" fill="#989085" d="M 39.5,7.5 C 40.8333,8.16667 40.8333,8.16667 39.5,7.5 Z"/></g>
<g><path style="opacity:0.006" fill="#b88f40" d="M 56.5,8.5 C 57.3864,7.2241 58.3864,7.2241 59.5,8.5C 58.5754,9.56236 57.5754,9.56236 56.5,8.5 Z"/></g>
<g><path style="opacity:0.004" fill="#000000" d="M 125.5,14.5 C 126.525,14.8966 126.692,15.5632 126,16.5C 125.536,15.9056 125.369,15.2389 125.5,14.5 Z"/></g>
<g><path style="opacity:0.004" fill="#95a0a9" d="M 114.5,15.5 C 115.833,16.1667 115.833,16.1667 114.5,15.5 Z"/></g>
<g><path style="opacity:0.008" fill="#41494f" d="M 119.5,14.5 C 121.429,14.2308 123.095,14.7308 124.5,16C 122.5,16.6667 120.5,16.6667 118.5,16C 119.056,15.6174 119.389,15.1174 119.5,14.5 Z"/></g>
<g><path style="opacity:0.004" fill="#38393c" d="M 145.5,15.5 C 147.337,15.6395 147.67,16.3061 146.5,17.5C 145.702,17.0431 145.369,16.3764 145.5,15.5 Z"/></g>
<g><path style="opacity:0.006" fill="#23282d" d="M 120.5,19.5 C 117.863,17.8462 118.197,17.3462 121.5,18C 120.944,18.3826 120.611,18.8826 120.5,19.5 Z"/></g>
<g><path style="opacity:0.004" fill="#020c12" d="M 127.5,18.5 C 127.897,17.475 128.563,17.3083 129.5,18C 128.906,18.4643 128.239,18.631 127.5,18.5 Z"/></g>
<g><path style="opacity:0.016" fill="#36383a" d="M 161.5,18.5 C 163.048,18.8212 163.715,19.8212 163.5,21.5C 158.386,21.6505 157.719,20.6505 161.5,18.5 Z"/></g>
<g><path style="opacity:0.004" fill="#848d99" d="M 120.5,19.5 C 121.766,20.0899 123.099,20.5899 124.5,21C 122.833,21.6667 121.167,21.6667 119.5,21C 120.056,20.6174 120.389,20.1174 120.5,19.5 Z"/></g>
<g><path style="opacity:0.004" fill="#66676d" d="M 168.5,19.5 C 169.873,19.3433 171.207,19.51 172.5,20C 171.448,21.1192 170.281,21.6192 169,21.5C 168.536,20.9056 168.369,20.2389 168.5,19.5 Z"/></g>
<g><path style="opacity:0.278" fill="#5c595c" d="M 121.5,25.5 C 122.585,27.5869 124.251,28.9202 126.5,29.5C 127.11,30.391 127.443,31.391 127.5,32.5C 125.999,31.2485 124.332,30.2485 122.5,29.5C 119.68,26.9193 116.346,25.0859 112.5,24C 107.511,23.5007 102.511,23.3341 97.5,23.5C 94.8333,23.8333 92.1667,24.1667 89.5,24.5C 89.9175,23.7784 90.5842,23.2784 91.5,23C 96,22.5 100.5,22 105,21.5C 109.455,21.5987 113.621,22.5987 117.5,24.5C 119.031,23.5788 120.365,23.9122 121.5,25.5 Z"/></g>
<g><path style="opacity:0.004" fill="#868c94" d="M 133.5,25.5 C 130.175,25.506 127.841,24.006 126.5,21C 127.682,19.3217 128.848,19.4883 130,21.5C 131.162,20.8132 132.328,20.6466 133.5,21C 132.272,22.4902 132.272,23.9902 133.5,25.5 Z"/></g>
<g><path style="opacity:0.03" fill="#97989e" d="M 159.5,22.5 C 160.5,22.5 161.5,22.5 162.5,22.5C 162.949,24.9775 162.283,26.9775 160.5,28.5C 158.294,26.7733 157.961,24.7733 159.5,22.5 Z"/></g>
<g><path style="opacity:0.029" fill="#96959a" d="M 143.5,28.5 C 141.176,28.3385 139.509,27.1718 138.5,25C 139.333,24.1667 140.167,23.3333 141,22.5C 142.663,24.1579 143.496,26.1579 143.5,28.5 Z"/></g>
<g><path style="opacity:0.049" fill="#7c7f83" d="M 89.5,24.5 C 87.025,26.0057 84.3584,27.3391 81.5,28.5C 80.5748,29.3569 79.9081,30.3569 79.5,31.5C 77.2459,32.4151 75.2459,33.7484 73.5,35.5C 73.0113,34.0048 72.3446,32.6715 71.5,31.5C 75.2871,30.1159 78.9537,28.2826 82.5,26C 84.74,25.023 87.0733,24.523 89.5,24.5 Z"/></g>
<g><path style="opacity:0.043" fill="#7b848d" d="M 121.5,25.5 C 124.14,25.954 126.473,27.1207 128.5,29C 127.906,29.4643 127.239,29.631 126.5,29.5C 124.251,28.9202 122.585,27.5869 121.5,25.5 Z"/></g>
<g><path style="opacity:0.004" fill="#858b95" d="M 133.5,25.5 C 134.525,25.8966 134.692,26.5632 134,27.5C 133.536,26.9056 133.369,26.2389 133.5,25.5 Z"/></g>
<g><path style="opacity:0.004" fill="#949498" d="M 143.5,28.5 C 144.833,29.1667 144.833,29.1667 143.5,28.5 Z"/></g>
<g><path style="opacity:0.005" fill="#96979c" d="M 175.5,21.5 C 176.404,22.209 176.737,23.209 176.5,24.5C 178.942,24.3537 179.609,25.187 178.5,27C 176.82,27.0343 175.32,27.201 174,27.5C 173.974,31.1083 173.141,34.4417 171.5,37.5C 170.28,36.2889 169.113,36.2889 168,37.5C 167.667,36.1667 167.333,34.8333 167,33.5C 166.667,33.8333 166.333,34.1667 166,34.5C 165.333,31.5 165.333,28.5 166,25.5C 167.789,25.3775 169.622,25.3775 171.5,25.5C 173.808,25.0345 175.142,23.7012 175.5,21.5 Z"/></g>
<g><path style="opacity:0.004" fill="#9a9b9f" d="M 176.5,28.5 C 177.573,29.2506 177.74,30.2506 177,31.5C 176.517,30.552 176.351,29.552 176.5,28.5 Z"/></g>
<g><path style="opacity:0.004" fill="#969ea2" d="M 139.5,31.5 C 140.833,32.1667 140.833,32.1667 139.5,31.5 Z"/></g>
<g><path style="opacity:0.037" fill="#0a0000" d="M 127.5,32.5 C 129.833,32.8333 131.167,34.1667 131.5,36.5C 129.833,35.5 128.5,34.1667 127.5,32.5 Z"/></g>
<g><path style="opacity:0.004" fill="#91939d" d="M 142.5,33.5 C 143.833,34.1667 143.833,34.1667 142.5,33.5 Z"/></g>
<g><path style="opacity:0.048" fill="#8f9095" d="M 180.5,29.5 C 181.153,33.2494 180.319,36.916 178,40.5C 176.241,36.2698 177.075,32.6032 180.5,29.5 Z"/></g>
<g><path style="opacity:0.004" fill="#6f767a" d="M 139.5,34.5 C 140.833,35.1667 140.833,35.1667 139.5,34.5 Z"/></g>
<g><path style="opacity:0.939" fill="#05060d" d="M 71.5,31.5 C 72.3446,32.6715 73.0113,34.0048 73.5,35.5C 71.9019,37.6979 70.5686,40.0313 69.5,42.5C 68.4422,44.8084 67.2755,47.1417 66,49.5C 66.1049,46.9715 65.9383,44.6382 65.5,42.5C 65.1667,42.5 64.8333,42.5 64.5,42.5C 67.1094,38.9332 69.4428,35.2665 71.5,31.5 Z"/></g>
<g><path style="opacity:0.004" fill="#91969e" d="M 141.5,35.5 C 142.833,36.1667 142.833,36.1667 141.5,35.5 Z"/></g>
<g><path style="opacity:1" fill="#9c7862" d="M 86.5,55.5 C 87.1667,55.5 87.5,55.8333 87.5,56.5C 80.9362,54.776 76.9362,57.1093 75.5,63.5C 72.6274,65.4815 69.6274,65.8149 66.5,64.5C 66.2557,60.1436 67.2557,56.1436 69.5,52.5C 68.5515,49.2053 68.5515,45.872 69.5,42.5C 70.5686,40.0313 71.9019,37.6979 73.5,35.5C 75.2459,33.7484 77.2459,32.4151 79.5,31.5C 81.0174,31.4894 82.1841,30.8228 83,29.5C 86.5029,32.6601 86.3363,35.3268 82.5,37.5C 81.3279,37.0814 80.3279,36.4147 79.5,35.5C 77.3096,38.4622 76.8096,41.4622 78,44.5C 79.3848,43.4495 80.3848,42.1161 81,40.5C 81.6924,41.0253 82.1924,41.6919 82.5,42.5C 80.9866,43.8463 79.6533,45.3463 78.5,47C 80.847,48.5808 80.847,49.9141 78.5,51C 79.8802,52.3236 80.2135,53.6569 79.5,55C 81.8098,55.4966 84.1432,55.6633 86.5,55.5 Z"/></g>
<g><path style="opacity:0.004" fill="#272728" d="M 146.5,37.5 C 148.446,38.2544 149.279,39.5878 149,41.5C 147.519,40.5291 146.685,39.1958 146.5,37.5 Z"/></g>
<g><path style="opacity:0.004" fill="#151d23" d="M 142.5,39.5 C 144.496,38.3122 145.329,38.9789 145,41.5C 144.292,40.6195 143.458,39.9528 142.5,39.5 Z"/></g>
<g><path style="opacity:0.004" fill="#8a888d" d="M 174.5,38.5 C 175.525,38.8966 175.692,39.5632 175,40.5C 174.536,39.9056 174.369,39.2389 174.5,38.5 Z"/></g>
<g><path style="opacity:1" fill="#be9987" d="M 120.5,58.5 C 115.916,58.7889 113.249,56.7889 112.5,52.5C 109.43,51.7571 107.764,49.7571 107.5,46.5C 107.938,46.5654 108.272,46.3988 108.5,46C 108.002,44.8419 107.169,44.0085 106,43.5C 103.459,42.993 100.959,42.3263 98.5,41.5C 99.8905,41.8914 100.891,41.0581 101.5,39C 99.5568,39.3052 97.5568,39.3052 95.5,39C 97.1667,36.6667 98.8333,34.3333 100.5,32C 98.9651,31.5038 97.4651,31.6705 96,32.5C 96.0248,30.6783 95.1915,29.0116 93.5,27.5C 98.0526,26.4719 101.886,27.8053 105,31.5C 108.881,32.1519 112.381,33.6519 115.5,36C 114.315,38.7776 115.315,40.2776 118.5,40.5C 118.67,41.8221 118.337,42.9887 117.5,44C 119.689,44.677 120.022,45.8437 118.5,47.5C 118.977,48.4776 119.643,49.3109 120.5,50C 119.484,50.5194 118.818,51.3527 118.5,52.5C 118.977,54.5965 119.643,56.5965 120.5,58.5 Z"/></g>
<g><path style="opacity:1" fill="#c9b9b5" d="M 122.5,29.5 C 124.332,30.2485 125.999,31.2485 127.5,32.5C 128.5,34.1667 129.833,35.5 131.5,36.5C 131.893,38.2838 132.559,39.9505 133.5,41.5C 133.357,43.2624 133.691,44.9291 134.5,46.5C 133.273,47.5904 132.44,48.9238 132,50.5C 131,48.5 130,46.5 129,44.5C 128.221,45.7282 127.221,46.7282 126,47.5C 122.667,43.6898 120.167,39.3565 118.5,34.5C 118.968,32.8662 119.968,31.6995 121.5,31C 120.288,29.8932 120.621,29.3932 122.5,29.5 Z"/></g>
<g><path style="opacity:0.004" fill="#242526" d="M 189.5,41.5 C 190.376,41.3691 191.043,41.7025 191.5,42.5C 190.846,44.1151 190.346,45.7818 190,47.5C 189.535,46.0692 188.701,44.9025 187.5,44C 188.381,43.2917 189.047,42.4584 189.5,41.5 Z"/></g>
<g><path style="opacity:1" fill="#b48e7a" d="M 97.5,23.5 C 96.7375,24.2679 95.7375,24.7679 94.5,25C 93.7476,25.6708 93.4142,26.5041 93.5,27.5C 95.1915,29.0116 96.0248,30.6783 96,32.5C 97.4651,31.6705 98.9651,31.5038 100.5,32C 98.8333,34.3333 97.1667,36.6667 95.5,39C 97.5568,39.3052 99.5568,39.3052 101.5,39C 100.891,41.0581 99.8905,41.8914 98.5,41.5C 100.959,42.3263 103.459,42.993 106,43.5C 107.169,44.0085 108.002,44.8419 108.5,46C 108.272,46.3988 107.938,46.5654 107.5,46.5C 105.326,46.9202 103.326,46.9202 101.5,46.5C 100.614,47.325 100.281,48.325 100.5,49.5C 98.8762,49.6399 97.7096,48.9733 97,47.5C 96.0853,48.3279 95.4186,49.3279 95,50.5C 93.513,49.7471 93.3463,48.9138 94.5,48C 93.1667,47.3333 91.8333,47.3333 90.5,48C 91.5894,49.3823 91.5894,50.8823 90.5,52.5C 89.0986,53.5207 87.7653,54.5207 86.5,55.5C 84.1432,55.6633 81.8098,55.4966 79.5,55C 80.2135,53.6569 79.8802,52.3236 78.5,51C 80.847,49.9141 80.847,48.5808 78.5,47C 79.6533,45.3463 80.9866,43.8463 82.5,42.5C 82.1924,41.6919 81.6924,41.0253 81,40.5C 80.3848,42.1161 79.3848,43.4495 78,44.5C 76.8096,41.4622 77.3096,38.4622 79.5,35.5C 80.3279,36.4147 81.3279,37.0814 82.5,37.5C 86.3363,35.3268 86.5029,32.6601 83,29.5C 82.1841,30.8228 81.0174,31.4894 79.5,31.5C 79.9081,30.3569 80.5748,29.3569 81.5,28.5C 84.3584,27.3391 87.025,26.0057 89.5,24.5C 92.1667,24.1667 94.8333,23.8333 97.5,23.5 Z"/></g>
<g><path style="opacity:0.004" fill="#000000" d="M 61.5,46.5 C 62.8333,47.1667 62.8333,47.1667 61.5,46.5 Z"/></g>
<g><path style="opacity:0.004" fill="#000000" d="M 154.5,47.5 C 155.525,47.8966 155.692,48.5632 155,49.5C 154.536,48.9056 154.369,48.2389 154.5,47.5 Z"/></g>
<g><path style="opacity:1" fill="#b98d7c" d="M 107.5,46.5 C 107.764,49.7571 109.43,51.7571 112.5,52.5C 113.249,56.7889 115.916,58.7889 120.5,58.5C 121.492,58.3284 122.158,58.6618 122.5,59.5C 120.5,59.5 118.5,59.5 116.5,59.5C 113.368,58.9883 110.035,58.9883 106.5,59.5C 106.55,61.5901 105.55,62.9234 103.5,63.5C 102.614,62.675 102.281,61.675 102.5,60.5C 97.5616,58.8597 92.5616,57.5264 87.5,56.5C 87.5,55.8333 87.1667,55.5 86.5,55.5C 87.7653,54.5207 89.0986,53.5207 90.5,52.5C 91.5894,50.8823 91.5894,49.3823 90.5,48C 91.8333,47.3333 93.1667,47.3333 94.5,48C 93.3463,48.9138 93.513,49.7471 95,50.5C 95.4186,49.3279 96.0853,48.3279 97,47.5C 97.7096,48.9733 98.8762,49.6399 100.5,49.5C 100.281,48.325 100.614,47.325 101.5,46.5C 103.326,46.9202 105.326,46.9202 107.5,46.5 Z"/></g>
<g><path style="opacity:1" fill="#ba9f94" d="M 97.5,23.5 C 102.511,23.3341 107.511,23.5007 112.5,24C 116.346,25.0859 119.68,26.9193 122.5,29.5C 120.621,29.3932 120.288,29.8932 121.5,31C 119.968,31.6995 118.968,32.8662 118.5,34.5C 120.167,39.3565 122.667,43.6898 126,47.5C 127.221,46.7282 128.221,45.7282 129,44.5C 130,46.5 131,48.5 132,50.5C 132.44,48.9238 133.273,47.5904 134.5,46.5C 133.691,44.9291 133.357,43.2624 133.5,41.5C 138.166,49.1826 139.499,57.5159 137.5,66.5C 134.601,65.3584 131.601,64.6917 128.5,64.5C 126.243,63.1002 124.243,61.4336 122.5,59.5C 122.158,58.6618 121.492,58.3284 120.5,58.5C 119.643,56.5965 118.977,54.5965 118.5,52.5C 118.818,51.3527 119.484,50.5194 120.5,50C 119.643,49.3109 118.977,48.4776 118.5,47.5C 120.022,45.8437 119.689,44.677 117.5,44C 118.337,42.9887 118.67,41.8221 118.5,40.5C 115.315,40.2776 114.315,38.7776 115.5,36C 112.381,33.6519 108.881,32.1519 105,31.5C 101.886,27.8053 98.0526,26.4719 93.5,27.5C 93.4142,26.5041 93.7476,25.6708 94.5,25C 95.7375,24.7679 96.7375,24.2679 97.5,23.5 Z"/></g>
<g><path style="opacity:0.996" fill="#554844" d="M 64.5,42.5 C 64.8333,45.1667 65.1667,45.1667 65.5,42.5C 65.9383,44.6382 66.1049,46.9715 66,49.5C 67.2755,47.1417 68.4422,44.8084 69.5,42.5C 68.5515,45.872 68.5515,49.2053 69.5,52.5C 67.2557,56.1436 66.2557,60.1436 66.5,64.5C 65.2073,60.9656 65.2073,57.2989 66.5,53.5C 66.1543,52.3044 65.6543,52.3044 65,53.5C 64.3828,52.5509 64.5494,51.7175 65.5,51C 64.5842,50.7216 63.9175,50.2216 63.5,49.5C 63.5394,48.4168 63.8728,47.4168 64.5,46.5C 61.8937,45.0762 61.8937,43.7429 64.5,42.5 Z"/></g>
<g><path style="opacity:0.314" fill="#555959" d="M 139.5,45.5 C 139.833,45.5 140.167,45.5 140.5,45.5C 140.643,47.2624 140.309,48.9291 139.5,50.5C 140.642,53.3992 141.308,56.3992 141.5,59.5C 138.905,55.1764 138.239,50.5097 139.5,45.5 Z"/></g>
<g><path style="opacity:0.029" fill="#9b9ca1" d="M 149.5,70.5 C 148.833,70.5 148.167,70.5 147.5,70.5C 146.833,69.1667 146.167,69.1667 145.5,70.5C 143.833,70.5 142.167,70.5 140.5,70.5C 142.682,67.0521 143.016,63.3854 141.5,59.5C 141.308,56.3992 140.642,53.3992 139.5,50.5C 140.309,48.9291 140.643,47.2624 140.5,45.5C 140.435,45.0618 140.601,44.7284 141,44.5C 143.389,47.5992 143.889,50.9325 142.5,54.5C 143.115,56.1161 144.115,57.4495 145.5,58.5C 143.655,60.5364 143.155,62.8697 144,65.5C 144.604,63.3143 145.77,63.1476 147.5,65C 148.376,66.586 149.376,68.086 150.5,69.5C 150.376,70.1067 150.043,70.44 149.5,70.5 Z"/></g>
<g><path style="opacity:0.004" fill="#66676b" d="M 167.5,50.5 C 168.573,51.2506 168.74,52.2506 168,53.5C 167.517,52.552 167.351,51.552 167.5,50.5 Z"/></g>
<g><path style="opacity:0.004" fill="#6d6e73" d="M 187.5,49.5 C 190.819,50.3191 191.319,51.9858 189,54.5C 187.731,53.0953 187.231,51.4286 187.5,49.5 Z"/></g>
<g><path style="opacity:0.993" fill="#161717" d="M 131.5,36.5 C 134.994,38.5004 137.16,41.5004 138,45.5C 138.69,44.2617 139.19,44.2617 139.5,45.5C 138.239,50.5097 138.905,55.1764 141.5,59.5C 143.016,63.3854 142.682,67.0521 140.5,70.5C 140.167,71.1667 139.833,71.8333 139.5,72.5C 138.293,73.1888 136.959,73.3554 135.5,73C 134.745,75.1748 133.912,77.3415 133,79.5C 132.329,80.2524 131.496,80.5858 130.5,80.5C 132.312,78.5395 133.312,76.2061 133.5,73.5C 134.73,67.5148 132.396,64.8482 126.5,65.5C 126.842,64.6618 127.508,64.3284 128.5,64.5C 131.601,64.6917 134.601,65.3584 137.5,66.5C 139.499,57.5159 138.166,49.1826 133.5,41.5C 132.559,39.9505 131.893,38.2838 131.5,36.5 Z"/></g>
<g><path style="opacity:0.004" fill="#2f2e30" d="M 170.5,60.5 C 169.833,60.5 169.167,60.5 168.5,60.5C 168.561,53.9788 169.228,53.9788 170.5,60.5 Z"/></g>
<g><path style="opacity:0.008" fill="#777a7e" d="M 62.5,53.5 C 64.0306,58.711 63.3639,63.711 60.5,68.5C 59.8529,69.2739 59.5195,70.2739 59.5,71.5C 60.7128,77.1085 61.3795,82.7752 61.5,88.5C 60.1625,84.5716 58.8291,80.5716 57.5,76.5C 56.2887,79.7613 55.2887,83.0946 54.5,86.5C 53.4311,82.1066 54.0978,77.9399 56.5,74C 56.2716,73.6012 55.9382,73.4346 55.5,73.5C 54.1667,72.5 54.1667,71.5 55.5,70.5C 57.6281,69.7195 57.7947,68.7195 56,67.5C 55.6174,68.056 55.1174,68.3893 54.5,68.5C 54.5,68.1667 54.5,67.8333 54.5,67.5C 54.5,65.5 54.5,63.5 54.5,61.5C 55.8221,61.33 56.9887,61.6634 58,62.5C 58.2321,61.2625 58.7321,60.2625 59.5,59.5C 58.9111,57.6481 58.2444,55.8148 57.5,54C 59.4224,50.6539 60.0891,50.6539 59.5,54C 60.5768,54.4696 61.5768,54.3029 62.5,53.5 Z M 59.5,59.5 C 61.0281,59.5173 61.5281,60.184 61,61.5C 60.2828,60.9558 59.7828,60.2891 59.5,59.5 Z"/></g>
<g><path style="opacity:1" fill="#8c6155" d="M 87.5,56.5 C 92.5616,57.5264 97.5616,58.8597 102.5,60.5C 102.281,61.675 102.614,62.675 103.5,63.5C 105.55,62.9234 106.55,61.5901 106.5,59.5C 110.035,58.9883 113.368,58.9883 116.5,59.5C 113.976,60.8217 111.31,61.9884 108.5,63C 107.748,63.6708 107.414,64.5041 107.5,65.5C 104.098,65.6576 100.764,65.3242 97.5,64.5C 97.3429,62.1824 96.1762,60.5157 94,59.5C 91.5661,58.6777 89.0661,58.3444 86.5,58.5C 86.5,59.5 86.5,60.5 86.5,61.5C 89.0673,61.7215 91.4006,62.3882 93.5,63.5C 87.5,63.5 81.5,63.5 75.5,63.5C 76.9362,57.1093 80.9362,54.776 87.5,56.5 Z"/></g>
<g><path style="opacity:0.008" fill="#959499" d="M 168.5,60.5 C 169.167,60.5 169.833,60.5 170.5,60.5C 171.227,62.7166 171.06,65.0499 170,67.5C 169.71,65.0796 169.21,62.7463 168.5,60.5 Z"/></g>
<g><path style="opacity:1" fill="#56342c" d="M 97.5,64.5 C 96.7611,64.369 96.0944,64.5357 95.5,65C 96.4158,65.2784 97.0825,65.7784 97.5,66.5C 99.1157,68.4158 98.7823,69.9158 96.5,71C 91.9796,71.8136 87.6463,71.647 83.5,70.5C 85.8333,70.5 88.1667,70.5 90.5,70.5C 90.5,69.5 90.5,68.5 90.5,67.5C 86.2935,66.945 82.6269,67.945 79.5,70.5C 79.1034,71.525 78.4368,71.6917 77.5,71C 78.2123,69.575 78.379,68.075 78,66.5C 80.2983,67.4457 82.1316,66.779 83.5,64.5C 87.6214,64.837 90.9548,64.5036 93.5,63.5C 91.4006,62.3882 89.0673,61.7215 86.5,61.5C 86.5,60.5 86.5,59.5 86.5,58.5C 89.0661,58.3444 91.5661,58.6777 94,59.5C 96.1762,60.5157 97.3429,62.1824 97.5,64.5 Z"/></g>
<g><path style="opacity:0.016" fill="#94959c" d="M 163.5,70.5 C 162.5,70.5 161.5,70.5 160.5,70.5C 160.195,61.1647 161.195,61.1647 163.5,70.5 Z"/></g>
<g><path style="opacity:1" fill="#14191e" d="M 63.5,49.5 C 63.9175,50.2216 64.5842,50.7216 65.5,51C 64.5494,51.7175 64.3828,52.5509 65,53.5C 65.6543,52.3044 66.1543,52.3044 66.5,53.5C 65.2073,57.2989 65.2073,60.9656 66.5,64.5C 69.6274,65.8149 72.6274,65.4815 75.5,63.5C 81.5,63.5 87.5,63.5 93.5,63.5C 90.9548,64.5036 87.6214,64.837 83.5,64.5C 75.5859,63.414 72.5859,66.7473 74.5,74.5C 73.596,73.791 73.2627,72.791 73.5,71.5C 71.7116,70.3775 69.7116,70.2109 67.5,71C 66.8742,71.7504 66.3742,72.5838 66,73.5C 65.7216,72.5842 65.2216,71.9175 64.5,71.5C 63.596,70.791 63.2627,69.791 63.5,68.5C 62.5,68.5 61.5,68.5 60.5,68.5C 63.3639,63.711 64.0306,58.711 62.5,53.5C 62.2322,51.901 62.5655,50.5676 63.5,49.5 Z"/></g>
<g><path style="opacity:1" fill="#091012" d="M 97.5,64.5 C 100.764,65.3242 104.098,65.6576 107.5,65.5C 110.141,64.7369 112.808,64.5702 115.5,65C 113.782,65.346 112.115,65.846 110.5,66.5C 109.2,69.3092 109.2,71.9759 110.5,74.5C 111.34,76.8525 112.674,78.8525 114.5,80.5C 113.5,80.5 112.5,80.5 111.5,80.5C 109.74,77.3113 108.24,73.9779 107,70.5C 105.333,69.1667 103.667,69.1667 102,70.5C 100.477,74.893 97.9774,78.5597 94.5,81.5C 89.1667,81.5 83.8333,81.5 78.5,81.5C 75.9908,80.3176 74.6574,78.3176 74.5,75.5C 74.8333,75.5 75.1667,75.5 75.5,75.5C 75.9156,77.7525 77.249,79.2525 79.5,80C 84.1667,80.6667 88.8333,80.6667 93.5,80C 96.4934,78.8415 98.1601,76.6748 98.5,73.5C 99.1524,72.5514 99.4857,71.3847 99.5,70C 99.3917,68.3189 98.7251,67.1522 97.5,66.5C 97.0825,65.7784 96.4158,65.2784 95.5,65C 96.0944,64.5357 96.7611,64.369 97.5,64.5 Z"/></g>
<g><path style="opacity:0.004" fill="#959499" d="M 173.5,66.5 C 176.001,66.5109 176.168,67.1776 174,68.5C 173.536,67.9056 173.369,67.2389 173.5,66.5 Z"/></g>
<g><path style="opacity:0.006" fill="#000505" d="M 54.5,67.5 C 54.5,67.8333 54.5,68.1667 54.5,68.5C 54.3284,69.4916 54.6618,70.1583 55.5,70.5C 54.1667,71.5 54.1667,72.5 55.5,73.5C 54.448,73.6495 53.448,73.4828 52.5,73C 53.1094,71.0517 53.776,69.2184 54.5,67.5 Z"/></g>
<g><path style="opacity:0.004" fill="#999aa1" d="M 154.5,67.5 C 155.978,67.238 157.311,67.5713 158.5,68.5C 157.24,69.3816 156.074,70.3816 155,71.5C 154.51,70.2068 154.343,68.8734 154.5,67.5 Z"/></g>
<g><path style="opacity:1" fill="#120604" d="M 120.5,68.5 C 122.693,69.6805 125.026,70.6805 127.5,71.5C 128.773,72.2565 128.773,72.9232 127.5,73.5C 126.833,73.1667 126.167,72.8333 125.5,72.5C 120.684,71.6739 115.684,71.1739 110.5,71C 111.943,69.9328 113.276,68.7662 114.5,67.5C 116.409,68.3482 118.409,68.6816 120.5,68.5 Z"/></g>
<g><path style="opacity:0.009" fill="#bb850a" d="M 160.5,70.5 C 161.5,70.5 162.5,70.5 163.5,70.5C 162.462,74.458 161.462,74.458 160.5,70.5 Z"/></g>
<g><path style="opacity:1" fill="#55332b" d="M 116.5,59.5 C 118.5,59.5 120.5,59.5 122.5,59.5C 124.243,61.4336 126.243,63.1002 128.5,64.5C 127.508,64.3284 126.842,64.6618 126.5,65.5C 123.15,65.335 119.817,65.5017 116.5,66C 118.32,66.2004 119.653,67.0337 120.5,68.5C 118.409,68.6816 116.409,68.3482 114.5,67.5C 113.276,68.7662 111.943,69.9328 110.5,71C 115.684,71.1739 120.684,71.6739 125.5,72.5C 112.438,72.1596 112.438,73.3262 125.5,76C 120.317,76.908 115.317,76.408 110.5,74.5C 109.2,71.9759 109.2,69.3092 110.5,66.5C 112.115,65.846 113.782,65.346 115.5,65C 112.808,64.5702 110.141,64.7369 107.5,65.5C 107.414,64.5041 107.748,63.6708 108.5,63C 111.31,61.9884 113.976,60.8217 116.5,59.5 Z"/></g>
<g><path style="opacity:1" fill="#7b5141" d="M 83.5,64.5 C 82.1316,66.779 80.2983,67.4457 78,66.5C 78.379,68.075 78.2123,69.575 77.5,71C 78.4368,71.6917 79.1034,71.525 79.5,70.5C 80.8333,70.5 82.1667,70.5 83.5,70.5C 87.6463,71.647 91.9796,71.8136 96.5,71C 98.7823,69.9158 99.1157,68.4158 97.5,66.5C 98.7251,67.1522 99.3917,68.3189 99.5,70C 99.4857,71.3847 99.1524,72.5514 98.5,73.5C 98.5654,73.0618 98.3988,72.7284 98,72.5C 95.0228,74.9886 91.6895,76.6553 88,77.5C 84.5712,76.454 81.2379,75.1206 78,73.5C 76.6244,73.6842 75.7911,74.3509 75.5,75.5C 75.1667,75.5 74.8333,75.5 74.5,75.5C 74.5,75.1667 74.5,74.8333 74.5,74.5C 72.5859,66.7473 75.5859,63.414 83.5,64.5 Z"/></g>
<g><path style="opacity:1" fill="#110f12" d="M 83.5,70.5 C 82.1667,70.5 80.8333,70.5 79.5,70.5C 82.6269,67.945 86.2935,66.945 90.5,67.5C 90.5,68.5 90.5,69.5 90.5,70.5C 88.1667,70.5 85.8333,70.5 83.5,70.5 Z"/></g>
<g><path style="opacity:1" fill="#6f513a" d="M 126.5,65.5 C 132.396,64.8482 134.73,67.5148 133.5,73.5C 131.389,74.7416 129.389,74.7416 127.5,73.5C 128.773,72.9232 128.773,72.2565 127.5,71.5C 125.026,70.6805 122.693,69.6805 120.5,68.5C 119.653,67.0337 118.32,66.2004 116.5,66C 119.817,65.5017 123.15,65.335 126.5,65.5 Z"/></g>
<g><path style="opacity:1" fill="#72170f" d="M 144.5,75.5 C 143.094,75.9731 142.427,76.9731 142.5,78.5C 141.387,77.0536 141.22,75.3869 142,73.5C 143.813,72.3909 144.646,73.0576 144.5,75.5 Z"/></g>
<g><path style="opacity:0.008" fill="#727b7f" d="M 51.5,74.5 C 52.3764,74.3691 53.0431,74.7025 53.5,75.5C 52.011,80.6459 51.3443,80.3125 51.5,74.5 Z"/></g>
<g><path style="opacity:0.01" fill="#c1900f" d="M 147.5,70.5 C 148.167,70.5 148.833,70.5 149.5,70.5C 149.5,70.8333 149.5,71.1667 149.5,71.5C 149.5,72.1667 149.5,72.8333 149.5,73.5C 148.167,73.8333 148.167,74.1667 149.5,74.5C 149.328,75.4916 149.662,76.1583 150.5,76.5C 150.5,77.1667 150.5,77.8333 150.5,78.5C 150.063,81.225 148.73,83.225 146.5,84.5C 146.5,82.1667 146.5,79.8333 146.5,77.5C 146.441,74.9909 146.775,72.6575 147.5,70.5 Z"/></g>
<g><path style="opacity:1" fill="#a47a66" d="M 98.5,73.5 C 98.1601,76.6748 96.4934,78.8415 93.5,80C 88.8333,80.6667 84.1667,80.6667 79.5,80C 77.249,79.2525 75.9156,77.7525 75.5,75.5C 75.7911,74.3509 76.6244,73.6842 78,73.5C 81.2379,75.1206 84.5712,76.454 88,77.5C 91.6895,76.6553 95.0228,74.9886 98,72.5C 98.3988,72.7284 98.5654,73.0618 98.5,73.5 Z"/></g>
<g><path style="opacity:1" fill="#90584a" d="M 140.5,70.5 C 142.167,70.5 143.833,70.5 145.5,70.5C 145.784,72.4147 145.451,74.0813 144.5,75.5C 144.646,73.0576 143.813,72.3909 142,73.5C 141.22,75.3869 141.387,77.0536 142.5,78.5C 142.5,79.8333 142.5,81.1667 142.5,82.5C 141.388,84.5994 140.721,86.9327 140.5,89.5C 139.596,90.209 139.263,91.209 139.5,92.5C 138.315,85.983 138.315,79.3163 139.5,72.5C 139.833,71.8333 140.167,71.1667 140.5,70.5 Z"/></g>
<g><path style="opacity:0.004" fill="#b4965e" d="M 149.5,71.5 C 151.216,72.5739 152.216,74.2406 152.5,76.5C 152.145,77.5223 151.478,78.189 150.5,78.5C 150.5,77.8333 150.5,77.1667 150.5,76.5C 150.672,75.5084 150.338,74.8417 149.5,74.5C 149.5,74.1667 149.5,73.8333 149.5,73.5C 149.5,72.8333 149.5,72.1667 149.5,71.5 Z"/></g>
<g><path style="opacity:0.004" fill="#bf8f05" d="M 155.5,78.5 C 158.001,78.5109 158.168,79.1776 156,80.5C 155.536,79.9056 155.369,79.2389 155.5,78.5 Z"/></g>
<g><path style="opacity:1" fill="#a07360" d="M 125.5,72.5 C 126.167,72.8333 126.833,73.1667 127.5,73.5C 129.389,74.7416 131.389,74.7416 133.5,73.5C 133.312,76.2061 132.312,78.5395 130.5,80.5C 125.167,80.5 119.833,80.5 114.5,80.5C 112.674,78.8525 111.34,76.8525 110.5,74.5C 115.317,76.408 120.317,76.908 125.5,76C 112.438,73.3262 112.438,72.1596 125.5,72.5 Z"/></g>
<g><path style="opacity:0.004" fill="#596c74" d="M 57.5,79.5 C 58.6225,81.2884 58.7891,83.2884 58,85.5C 56.2041,83.5983 56.0374,81.5983 57.5,79.5 Z"/></g>
<g><path style="opacity:1" fill="#a86f68" d="M 111.5,80.5 C 111.703,82.0443 112.37,83.3777 113.5,84.5C 113.043,85.2975 112.376,85.6309 111.5,85.5C 111.167,85.5 110.833,85.5 110.5,85.5C 110.144,84.1301 109.31,83.1301 108,82.5C 104.195,82.9067 100.695,83.9067 97.5,85.5C 97.1667,85.5 96.8333,85.5 96.5,85.5C 95.7777,86.5511 94.7777,87.2178 93.5,87.5C 93.3253,85.3792 93.6586,83.3792 94.5,81.5C 97.9774,78.5597 100.477,74.893 102,70.5C 103.667,69.1667 105.333,69.1667 107,70.5C 108.24,73.9779 109.74,77.3113 111.5,80.5 Z"/></g>
<g><path style="opacity:0.016" fill="#969da3" d="M 144.5,75.5 C 144.343,76.8734 144.51,78.2068 145,79.5C 145.278,78.5842 145.778,77.9175 146.5,77.5C 146.5,79.8333 146.5,82.1667 146.5,84.5C 146.391,87.8992 145.058,90.5659 142.5,92.5C 143.475,88.7012 143.475,85.3679 142.5,82.5C 142.5,81.1667 142.5,79.8333 142.5,78.5C 142.427,76.9731 143.094,75.9731 144.5,75.5 Z"/></g>
<g><path style="opacity:1" fill="#93786b" d="M 139.5,72.5 C 138.315,79.3163 138.315,85.983 139.5,92.5C 139.833,93.5 140.5,94.1667 141.5,94.5C 140.575,98.0592 139.242,101.393 137.5,104.5C 135.732,100.956 134.898,96.9558 135,92.5C 134.333,91.1667 133.667,89.8333 133,88.5C 130.336,87.0016 128.17,85.0016 126.5,82.5C 122.5,81.8333 118.5,81.1667 114.5,80.5C 119.833,80.5 125.167,80.5 130.5,80.5C 131.496,80.5858 132.329,80.2524 133,79.5C 133.912,77.3415 134.745,75.1748 135.5,73C 136.959,73.3554 138.293,73.1888 139.5,72.5 Z"/></g>
<g><path style="opacity:1" fill="#a06d5d" d="M 73.5,71.5 C 73.2627,72.791 73.596,73.791 74.5,74.5C 74.5,74.8333 74.5,75.1667 74.5,75.5C 74.6574,78.3176 75.9908,80.3176 78.5,81.5C 82.3525,82.1663 86.3525,82.833 90.5,83.5C 86.9094,87.2994 82.9094,90.6327 78.5,93.5C 77.5481,95.0453 77.2148,96.712 77.5,98.5C 78.791,98.2627 79.791,98.596 80.5,99.5C 80.9195,101.094 81.5862,102.594 82.5,104C 81.6831,105.49 80.8498,106.99 80,108.5C 77.4581,106.083 75.9581,103.083 75.5,99.5C 76.3251,96.4364 76.3251,93.4364 75.5,90.5C 73.5784,88.9969 72.4117,86.9969 72,84.5C 71.3333,85.8333 70.3333,86.8333 69,87.5C 67.9005,82.4383 67.7339,77.4383 68.5,72.5C 70.2161,72.3713 71.8828,72.038 73.5,71.5 Z"/></g>
<g><path style="opacity:1" fill="#824a43" d="M 60.5,68.5 C 61.5,68.5 62.5,68.5 63.5,68.5C 63.2627,69.791 63.596,70.791 64.5,71.5C 65.4709,76.8692 65.4709,82.2025 64.5,87.5C 65.2725,90.4649 65.9392,93.4649 66.5,96.5C 66.4573,97.4164 66.1239,98.0831 65.5,98.5C 64.5,97.8333 63.5,97.1667 62.5,96.5C 62.5987,93.7628 62.2653,91.0961 61.5,88.5C 61.3795,82.7752 60.7128,77.1085 59.5,71.5C 59.5195,70.2739 59.8529,69.2739 60.5,68.5 Z"/></g>
<g><path style="opacity:1" fill="#85423a" d="M 78.5,81.5 C 83.8333,81.5 89.1667,81.5 94.5,81.5C 93.6586,83.3792 93.3253,85.3792 93.5,87.5C 92.0695,87.4208 90.7362,87.7542 89.5,88.5C 87.7807,91.2195 85.4474,93.2195 82.5,94.5C 81.5481,96.0453 81.2148,97.712 81.5,99.5C 81.1667,99.5 80.8333,99.5 80.5,99.5C 79.791,98.596 78.791,98.2627 77.5,98.5C 77.2148,96.712 77.5481,95.0453 78.5,93.5C 82.9094,90.6327 86.9094,87.2994 90.5,83.5C 86.3525,82.833 82.3525,82.1663 78.5,81.5 Z"/></g>
<g><path style="opacity:1" fill="#884a42" d="M 111.5,80.5 C 112.5,80.5 113.5,80.5 114.5,80.5C 118.5,81.1667 122.5,81.8333 126.5,82.5C 124.473,82.3379 122.473,82.5045 120.5,83C 121.506,86.4489 123.672,89.6156 127,92.5C 128.183,91.269 129.349,91.269 130.5,92.5C 129.717,94.2882 128.384,95.2882 126.5,95.5C 124.34,94.2661 122.173,92.9328 120,91.5C 119.439,92.0219 118.772,92.3552 118,92.5C 113.59,89.6163 108.923,88.9496 104,90.5C 102.809,87.4659 100.642,85.7993 97.5,85.5C 100.695,83.9067 104.195,82.9067 108,82.5C 109.31,83.1301 110.144,84.1301 110.5,85.5C 107.188,85.265 106.355,86.265 108,88.5C 109.95,88.2926 111.116,87.2926 111.5,85.5C 112.376,85.6309 113.043,85.2975 113.5,84.5C 112.37,83.3777 111.703,82.0443 111.5,80.5 Z"/></g>
<g><path style="opacity:1" fill="#130101" d="M 110.5,85.5 C 110.833,85.5 111.167,85.5 111.5,85.5C 111.116,87.2926 109.95,88.2926 108,88.5C 106.355,86.265 107.188,85.265 110.5,85.5 Z"/></g>
<g><path style="opacity:0.004" fill="#94979c" d="M 154.5,89.5 C 155.525,89.8966 155.692,90.5632 155,91.5C 154.536,90.9056 154.369,90.2389 154.5,89.5 Z"/></g>
<g><path style="opacity:1" fill="#623d3b" d="M 96.5,85.5 C 96.8333,85.5 97.1667,85.5 97.5,85.5C 100.642,85.7993 102.809,87.4659 104,90.5C 108.923,88.9496 113.59,89.6163 118,92.5C 118.772,92.3552 119.439,92.0219 120,91.5C 122.173,92.9328 124.34,94.2661 126.5,95.5C 126.984,98.7882 125.984,101.455 123.5,103.5C 122.292,102.766 120.959,102.433 119.5,102.5C 118.791,101.596 117.791,101.263 116.5,101.5C 116.5,101.167 116.5,100.833 116.5,100.5C 116.281,99.325 116.614,98.325 117.5,97.5C 119.323,98.7472 121.323,99.4139 123.5,99.5C 123.208,95.996 121.208,94.3293 117.5,94.5C 114.687,95.686 111.853,95.686 109,94.5C 106.761,95.0911 104.594,95.7578 102.5,96.5C 102.322,93.7835 101.822,91.1168 101,88.5C 98.9737,88.0853 97.4737,87.0853 96.5,85.5 Z"/></g>
<g><path style="opacity:0.042" fill="#60666a" d="M 58.5,93.5 C 58.1961,94.1499 57.8627,94.8165 57.5,95.5C 57.8457,96.6956 58.3457,96.6956 59,95.5C 59.5133,96.5266 60.0133,97.5266 60.5,98.5C 56.5547,99.4248 56.5547,100.591 60.5,102C 60.1667,102.333 59.8333,102.667 59.5,103C 57.6874,102.954 56.0207,103.12 54.5,103.5C 54.1667,103 53.8333,102.5 53.5,102C 56.123,98.1514 56.123,94.318 53.5,90.5C 54.2421,89.7132 55.0754,89.0465 56,88.5C 56.3736,90.4913 57.207,92.158 58.5,93.5 Z"/></g>
<g><path style="opacity:0.004" fill="#000000" d="M 58.5,92.5 C 59.8333,93.1667 59.8333,93.1667 58.5,92.5 Z"/></g>
<g><path style="opacity:1" fill="#7a5350" d="M 96.5,85.5 C 97.4737,87.0853 98.9737,88.0853 101,88.5C 101.822,91.1168 102.322,93.7835 102.5,96.5C 104.594,95.7578 106.761,95.0911 109,94.5C 111.853,95.686 114.687,95.686 117.5,94.5C 121.208,94.3293 123.208,95.996 123.5,99.5C 121.323,99.4139 119.323,98.7472 117.5,97.5C 116.614,98.325 116.281,99.325 116.5,100.5C 107.519,99.5248 98.519,99.3582 89.5,100C 88.2625,100.232 87.2625,100.732 86.5,101.5C 85.5429,98.8501 83.8762,98.1834 81.5,99.5C 81.2148,97.712 81.5481,96.0453 82.5,94.5C 85.4474,93.2195 87.7807,91.2195 89.5,88.5C 90.7362,87.7542 92.0695,87.4208 93.5,87.5C 94.7777,87.2178 95.7777,86.5511 96.5,85.5 Z"/></g>
<g><path style="opacity:1" fill="#81594d" d="M 73.5,71.5 C 71.8828,72.038 70.2161,72.3713 68.5,72.5C 67.7339,77.4383 67.9005,82.4383 69,87.5C 70.3333,86.8333 71.3333,85.8333 72,84.5C 72.4117,86.9969 73.5784,88.9969 75.5,90.5C 76.3251,93.4364 76.3251,96.4364 75.5,99.5C 75.9581,103.083 77.4581,106.083 80,108.5C 80.8498,106.99 81.6831,105.49 82.5,104C 81.5862,102.594 80.9195,101.094 80.5,99.5C 80.8333,99.5 81.1667,99.5 81.5,99.5C 83.8762,98.1834 85.5429,98.8501 86.5,101.5C 86.8417,102.338 87.5084,102.672 88.5,102.5C 89.1667,103.167 89.8333,103.833 90.5,104.5C 88.5,104.5 86.5,104.5 84.5,104.5C 84.9518,108.163 85.4518,111.83 86,115.5C 86.5792,118.588 87.9125,121.255 90,123.5C 92.6187,121.231 95.1187,121.231 97.5,123.5C 98.8304,121.653 98.497,120.153 96.5,119C 97.4162,118.626 98.2496,118.126 99,117.5C 102.147,119.301 105.313,121.134 108.5,123C 106.699,123.317 106.366,123.984 107.5,125C 110.878,125.048 114.211,124.548 117.5,123.5C 117.047,124.458 116.381,125.292 115.5,126C 111.305,127.225 107.138,128.392 103,129.5C 99.1504,127.806 94.9838,126.639 90.5,126C 88.6763,125.34 87.343,124.173 86.5,122.5C 85.1889,120.664 84.0222,118.664 83,116.5C 81.2494,117.174 79.5827,117.507 78,117.5C 77.3333,116.833 76.6667,116.167 76,115.5C 76.9791,113.721 76.6458,112.055 75,110.5C 74.8138,113.036 74.3138,115.369 73.5,117.5C 73.1667,117.5 72.8333,117.5 72.5,117.5C 72.5,117.167 72.5,116.833 72.5,116.5C 71.5806,110.741 70.2473,105.074 68.5,99.5C 67.209,99.7373 66.209,99.404 65.5,98.5C 66.1239,98.0831 66.4573,97.4164 66.5,96.5C 65.9392,93.4649 65.2725,90.4649 64.5,87.5C 65.4709,82.2025 65.4709,76.8692 64.5,71.5C 65.2216,71.9175 65.7216,72.5842 66,73.5C 66.3742,72.5838 66.8742,71.7504 67.5,71C 69.7116,70.2109 71.7116,70.3775 73.5,71.5 Z"/></g>
<g><path style="opacity:0.004" fill="#b58511" d="M 140.5,89.5 C 140.285,91.1788 140.952,92.1788 142.5,92.5C 142.672,93.4916 142.338,94.1583 141.5,94.5C 140.5,94.1667 139.833,93.5 139.5,92.5C 139.263,91.209 139.596,90.209 140.5,89.5 Z"/></g>
<g><path style="opacity:0.004" fill="#191a1a" d="M 53.5,94.5 C 54.5983,95.6009 54.765,96.9343 54,98.5C 53.51,97.2068 53.3433,95.8734 53.5,94.5 Z"/></g>
<g><path style="opacity:0.004" fill="#747172" d="M 47.5,98.5 C 48.8333,99.1667 48.8333,99.1667 47.5,98.5 Z"/></g>
<g><path style="opacity:0.032" fill="#706c6f" d="M 50.5,94.5 C 51.4561,97.6365 51.4561,100.636 50.5,103.5C 49.5,103.167 48.8333,102.5 48.5,101.5C 49.5771,99.2706 50.2437,96.9372 50.5,94.5 Z"/></g>
<g><path style="opacity:0.025" fill="#7e797b" d="M 11.5,109.5 C 11.5,107.5 10.5,106.5 8.5,106.5C 9.0366,103.357 10.0366,100.357 11.5,97.5C 12.0016,96.479 12.6683,96.3123 13.5,97C 14.3995,99.1917 15.3995,101.358 16.5,103.5C 15.1667,106.167 13.8333,108.833 12.5,111.5C 11.7025,111.043 11.3691,110.376 11.5,109.5 Z"/></g>
<g><path style="opacity:1" fill="#63191a" d="M 116.5,100.5 C 116.5,100.833 116.5,101.167 116.5,101.5C 115.167,101.5 113.833,101.5 112.5,101.5C 107.167,101.5 101.833,101.5 96.5,101.5C 93.1667,101.5 89.8333,101.5 86.5,101.5C 87.2625,100.732 88.2625,100.232 89.5,100C 98.519,99.3582 107.519,99.5248 116.5,100.5 Z"/></g>
<g><path style="opacity:0.004" fill="#726d6f" d="M 46.5,101.5 C 47.8333,102.167 47.8333,102.167 46.5,101.5 Z"/></g>
<g><path style="opacity:1" fill="#0d0300" d="M 86.5,101.5 C 89.8333,101.5 93.1667,101.5 96.5,101.5C 96.5,102.167 96.5,102.833 96.5,103.5C 93.8333,103.167 91.1667,102.833 88.5,102.5C 87.5084,102.672 86.8417,102.338 86.5,101.5 Z"/></g>
<g><path style="opacity:1" fill="#594737" d="M 96.5,101.5 C 101.833,101.5 107.167,101.5 112.5,101.5C 111.833,102.167 111.167,102.833 110.5,103.5C 105.833,103.5 101.167,103.5 96.5,103.5C 96.5,102.833 96.5,102.167 96.5,101.5 Z"/></g>
<g><path style="opacity:1" fill="#000000" d="M 112.5,101.5 C 113.833,101.5 115.167,101.5 116.5,101.5C 117.791,101.263 118.791,101.596 119.5,102.5C 116.57,103.299 113.57,103.632 110.5,103.5C 111.167,102.833 111.833,102.167 112.5,101.5 Z"/></g>
<g><path style="opacity:0.004" fill="#726d6f" d="M 6.5,103.5 C 7.61295,104.946 7.77961,106.613 7,108.5C 6.50649,106.866 6.33982,105.199 6.5,103.5 Z"/></g>
<g><path style="opacity:0.004" fill="#767174" d="M 30.5,97.5 C 31.6946,97.8656 32.3613,98.699 32.5,100C 32.2273,104.073 30.7273,107.573 28,110.5C 27.7118,105.874 28.5451,101.541 30.5,97.5 Z"/></g>
<g><path style="opacity:0.008" fill="#29292a" d="M 57.5,104.5 C 59.0481,104.821 59.7148,105.821 59.5,107.5C 55.7498,107.496 55.0831,106.496 57.5,104.5 Z"/></g>
<g><path style="opacity:0.004" fill="#0a080d" d="M 52.5,106.5 C 53.0768,105.227 53.7435,105.227 54.5,106.5C 54.0302,107.463 53.3635,107.463 52.5,106.5 Z"/></g>
<g><path style="opacity:0.745" fill="#625857" d="M 62.5,96.5 C 63.5,97.1667 64.5,97.8333 65.5,98.5C 66.209,99.404 67.209,99.7373 68.5,99.5C 70.2473,105.074 71.5806,110.741 72.5,116.5C 71.5416,116.047 70.7083,115.381 70,114.5C 68.9278,109.617 67.2612,104.95 65,100.5C 64.7508,101.624 64.2508,102.624 63.5,103.5C 62.6801,101.681 61.6801,100.014 60.5,98.5C 61.8333,98.5 62.5,97.8333 62.5,96.5 Z"/></g>
<g><path style="opacity:0.004" fill="#726c70" d="M 42.5,106.5 C 43.8333,107.167 43.8333,107.167 42.5,106.5 Z"/></g>
<g><path style="opacity:0.004" fill="#34302e" d="M 45.5,105.5 C 46.5735,106.251 46.7401,107.251 46,108.5C 45.5172,107.552 45.3505,106.552 45.5,105.5 Z"/></g>
<g><path style="opacity:0.005" fill="#191617" d="M 8.5,106.5 C 10.5,106.5 11.5,107.5 11.5,109.5C 11.1667,109.5 10.8333,109.5 10.5,109.5C 9.83333,109.167 9.16667,108.833 8.5,108.5C 8.5,107.833 8.5,107.167 8.5,106.5 Z"/></g>
<g><path style="opacity:0.004" fill="#131214" d="M 37.5,106.5 C 38.5735,107.251 38.7401,108.251 38,109.5C 37.5172,108.552 37.3505,107.552 37.5,106.5 Z"/></g>
<g><path style="opacity:1" fill="#856050" d="M 126.5,82.5 C 128.17,85.0016 130.336,87.0016 133,88.5C 133.667,89.8333 134.333,91.1667 135,92.5C 134.898,96.9558 135.732,100.956 137.5,104.5C 137.065,106.297 137.065,108.297 137.5,110.5C 136.194,110.879 134.861,111.212 133.5,111.5C 132.34,113.711 131.007,115.711 129.5,117.5C 129.808,115.076 129.474,112.743 128.5,110.5C 127.914,110.709 127.414,111.043 127,111.5C 126.184,110.177 125.017,109.511 123.5,109.5C 123.5,107.5 123.5,105.5 123.5,103.5C 125.984,101.455 126.984,98.7882 126.5,95.5C 128.384,95.2882 129.717,94.2882 130.5,92.5C 129.349,91.269 128.183,91.269 127,92.5C 123.672,89.6156 121.506,86.4489 120.5,83C 122.473,82.5045 124.473,82.3379 126.5,82.5 Z"/></g>
<g><path style="opacity:0.004" fill="#83807e" d="M 42.5,108.5 C 43.8333,109.167 43.8333,109.167 42.5,108.5 Z"/></g>
<g><path style="opacity:0.006" fill="#171a1b" d="M 60.5,106.5 C 62.8075,107.405 62.8075,108.738 60.5,110.5C 59.7084,109.3 59.7084,107.967 60.5,106.5 Z"/></g>
<g><path style="opacity:0.004" fill="#000000" d="M 32.5,111.5 C 32.369,110.761 32.5357,110.094 33,109.5C 33.6917,110.437 33.525,111.103 32.5,111.5 Z"/></g>
<g><path style="opacity:0.004" fill="#7a7d7d" d="M 57.5,109.5 C 58.8333,110.167 58.8333,110.167 57.5,109.5 Z"/></g>
<g><path style="opacity:0.004" fill="#252425" d="M 21.5,113.5 C 21.6854,111.804 22.5187,110.471 24,109.5C 24.2793,111.412 23.4459,112.746 21.5,113.5 Z"/></g>
<g><path style="opacity:0.004" fill="#918c8e" d="M 45.5,110.5 C 46.8333,111.167 46.8333,111.167 45.5,110.5 Z"/></g>
<g><path style="opacity:0.004" fill="#6a6a70" d="M 54.5,109.5 C 55.7733,110.077 55.7733,110.743 54.5,111.5C 53.537,111.03 53.537,110.363 54.5,109.5 Z"/></g>
<g><path style="opacity:1" fill="#7c4643" d="M 88.5,102.5 C 91.1667,102.833 93.8333,103.167 96.5,103.5C 101.167,103.5 105.833,103.5 110.5,103.5C 113.57,103.632 116.57,103.299 119.5,102.5C 119.389,103.117 119.056,103.617 118.5,104C 110.208,104.536 102.208,105.536 94.5,107C 101.368,108.77 108.368,108.937 115.5,107.5C 114.451,110.47 113.284,113.47 112,116.5C 106.799,112.93 101.299,112.597 95.5,115.5C 95.1667,115.333 94.8333,115.167 94.5,115C 95.5,114 96.5,113 97.5,112C 94.5305,111.237 92.0305,109.737 90,107.5C 89.5304,106.423 89.6971,105.423 90.5,104.5C 89.8333,103.833 89.1667,103.167 88.5,102.5 Z"/></g>
<g><path style="opacity:0.006" fill="#878285" d="M 8.5,108.5 C 9.16667,108.833 9.83333,109.167 10.5,109.5C 10.8719,112.022 10.0386,114.022 8,115.5C 7.29669,113.071 7.46336,110.738 8.5,108.5 Z"/></g>
<g><path style="opacity:0.004" fill="#000000" d="M 45.5,111.5 C 44.8333,112.167 44.8333,112.167 45.5,111.5 Z"/></g>
<g><path style="opacity:0.004" fill="#697077" d="M 59.5,111.5 C 60.8333,112.167 60.8333,112.167 59.5,111.5 Z"/></g>
<g><path style="opacity:0.004" fill="#504e4c" d="M 21.5,113.5 C 20.8333,114.167 20.8333,114.167 21.5,113.5 Z"/></g>
<g><path style="opacity:0.004" fill="#6a7074" d="M 56.5,113.5 C 57.8333,114.167 57.8333,114.167 56.5,113.5 Z"/></g>
<g><path style="opacity:1" fill="#77513e" d="M 86.5,122.5 C 84.663,122.639 84.3296,123.306 85.5,124.5C 92.7328,130.182 100.566,133.182 109,133.5C 102.581,134.313 96.0809,134.813 89.5,135C 88.9535,135.925 88.2868,136.758 87.5,137.5C 85.2785,135.096 82.6118,133.429 79.5,132.5C 76.6522,128.903 74.6522,124.903 73.5,120.5C 73.5,119.5 73.5,118.5 73.5,117.5C 74.3138,115.369 74.8138,113.036 75,110.5C 76.6458,112.055 76.9791,113.721 76,115.5C 76.6667,116.167 77.3333,116.833 78,117.5C 79.5827,117.507 81.2494,117.174 83,116.5C 84.0222,118.664 85.1889,120.664 86.5,122.5 Z"/></g>
<g><path style="opacity:0.004" fill="#5d6768" d="M 59.5,114.5 C 60.8333,115.167 60.8333,115.167 59.5,114.5 Z"/></g>
<g><path style="opacity:0.004" fill="#566168" d="M 61.5,113.5 C 62.525,113.897 62.6917,114.563 62,115.5C 61.5357,114.906 61.369,114.239 61.5,113.5 Z"/></g>
<g><path style="opacity:0.004" fill="#535f67" d="M 63.5,109.5 C 64.6885,110.048 65.8552,110.381 67,110.5C 67.6811,112.529 68.0144,114.529 68,116.5C 66.7308,115.095 66.2308,113.429 66.5,111.5C 64.8212,111.715 63.8212,111.048 63.5,109.5 Z"/></g>
<g><path style="opacity:0.004" fill="#6f6b6b" d="M 53.5,116.5 C 53.369,115.761 53.5357,115.094 54,114.5C 54.6917,115.437 54.525,116.103 53.5,116.5 Z"/></g>
<g><path style="opacity:0.008" fill="#746e71" d="M 32.5,111.5 C 33.3686,113.717 33.702,116.05 33.5,118.5C 31.1667,118.5 28.8333,118.5 26.5,118.5C 29.2467,116.757 31.2467,114.424 32.5,111.5 Z"/></g>
<g><path style="opacity:0.008" fill="#595557" d="M 52.5,106.5 C 50.5159,108.46 49.6826,110.793 50,113.5C 50.4186,112.328 51.0853,111.328 52,110.5C 51.857,114.253 50.5237,117.587 48,120.5C 45.8801,115.507 46.7135,111.007 50.5,107C 50.1667,106.667 49.8333,106.333 49.5,106C 50.5768,105.53 51.5768,105.697 52.5,106.5 Z"/></g>
<g><path style="opacity:0.004" fill="#544e53" d="M 53.5,116.5 C 52.8333,117.167 52.8333,117.167 53.5,116.5 Z"/></g>
<g><path style="opacity:0.005" fill="#101113" d="M 59.5,115.5 C 60.3081,117.3 59.8081,118.967 58,120.5C 57.4014,118.465 57.9014,116.799 59.5,115.5 Z"/></g>
<g><path style="opacity:0.004" fill="#505b65" d="M 65.5,117.5 C 66.525,117.897 66.6917,118.563 66,119.5C 65.5357,118.906 65.369,118.239 65.5,117.5 Z"/></g>
<g><path style="opacity:0.102" fill="#888587" d="M 137.5,110.5 C 136.442,113.413 135.109,116.246 133.5,119C 134.649,120.604 134.649,122.27 133.5,124C 134.009,125.169 134.842,126.002 136,126.5C 137.688,124.152 139.522,123.985 141.5,126C 139.944,126.72 138.944,127.887 138.5,129.5C 136.483,128.471 134.483,127.471 132.5,126.5C 131.609,125.89 130.609,125.557 129.5,125.5C 128.833,125.5 128.167,125.5 127.5,125.5C 127.283,122.579 127.949,119.913 129.5,117.5C 131.007,115.711 132.34,113.711 133.5,111.5C 134.861,111.212 136.194,110.879 137.5,110.5 Z"/></g>
<g><path style="opacity:0.008" fill="#78787b" d="M 170.5,115.5 C 172.377,116.659 172.877,118.326 172,120.5C 171.355,119.354 170.522,118.354 169.5,117.5C 169.863,116.817 170.196,116.15 170.5,115.5 Z"/></g>
<g><path style="opacity:0.009" fill="#000000" d="M 59.5,125.5 C 59.6716,124.508 59.3382,123.842 58.5,123.5C 59.0722,121.745 59.9055,120.078 61,118.5C 61.8699,119.108 62.3699,119.941 62.5,121C 61.4485,122.577 60.4485,124.077 59.5,125.5 Z"/></g>
<g><path style="opacity:0.004" fill="#505863" d="M 68.5,118.5 C 69.8333,119.167 69.8333,119.167 68.5,118.5 Z"/></g>
<g><path style="opacity:0.004" fill="#2b2b28" d="M 200.5,118.5 C 201.833,119.167 201.833,119.167 200.5,118.5 Z"/></g>
<g><path style="opacity:0.006" fill="#7d777a" d="M 41.5,118.5 C 42.7759,119.386 42.7759,120.386 41.5,121.5C 40.913,120.767 40.913,119.767 41.5,118.5 Z"/></g>
<g><path style="opacity:0.004" fill="#000000" d="M 55.5,119.5 C 56.8333,120.167 56.8333,120.167 55.5,119.5 Z"/></g>
<g><path style="opacity:1" fill="#95645a" d="M 119.5,102.5 C 120.959,102.433 122.292,102.766 123.5,103.5C 123.5,105.5 123.5,107.5 123.5,109.5C 124.598,110.397 124.598,111.23 123.5,112C 124.428,112.388 125.095,113.055 125.5,114C 124.293,115.3 123.626,116.8 123.5,118.5C 121.475,120.196 119.475,121.863 117.5,123.5C 114.211,124.548 110.878,125.048 107.5,125C 106.366,123.984 106.699,123.317 108.5,123C 105.313,121.134 102.147,119.301 99,117.5C 98.2496,118.126 97.4162,118.626 96.5,119C 98.497,120.153 98.8304,121.653 97.5,123.5C 95.1187,121.231 92.6187,121.231 90,123.5C 87.9125,121.255 86.5792,118.588 86,115.5C 85.4518,111.83 84.9518,108.163 84.5,104.5C 86.5,104.5 88.5,104.5 90.5,104.5C 89.6971,105.423 89.5304,106.423 90,107.5C 92.0305,109.737 94.5305,111.237 97.5,112C 96.5,113 95.5,114 94.5,115C 94.8333,115.167 95.1667,115.333 95.5,115.5C 101.299,112.597 106.799,112.93 112,116.5C 113.284,113.47 114.451,110.47 115.5,107.5C 108.368,108.937 101.368,108.77 94.5,107C 102.208,105.536 110.208,104.536 118.5,104C 119.056,103.617 119.389,103.117 119.5,102.5 Z"/></g>
<g><path style="opacity:0.008" fill="#181515" d="M 26.5,118.5 C 28.8333,118.5 31.1667,118.5 33.5,118.5C 34.0431,118.56 34.3764,118.893 34.5,119.5C 30.8579,123.999 26.8579,124.499 22.5,121C 23.4709,119.519 24.8042,118.685 26.5,118.5 Z"/></g>
<g><path style="opacity:0.004" fill="#000000" d="M 51.5,120.5 C 52.2891,120.783 52.9558,121.283 53.5,122C 52.2341,122.309 51.0674,122.809 50,123.5C 49.7613,122.212 50.2613,121.212 51.5,120.5 Z"/></g>
<g><path style="opacity:0.059" fill="#6e6d71" d="M 152.5,126.5 C 151.396,125.003 150.396,123.336 149.5,121.5C 149.556,120.263 150.056,119.263 151,118.5C 152.375,120.937 152.875,123.603 152.5,126.5 Z"/></g>
<g><path style="opacity:0.004" fill="#99989c" d="M 167.5,122.5 C 167.369,121.761 167.536,121.094 168,120.5C 168.692,121.437 168.525,122.103 167.5,122.5 Z"/></g>
<g><path style="opacity:0.004" fill="#000000" d="M 39.5,122.5 C 40.8333,123.167 40.8333,123.167 39.5,122.5 Z"/></g>
<g><path style="opacity:0.004" fill="#4f5966" d="M 146.5,119.5 C 147.844,121.185 147.677,122.852 146,124.5C 145.616,122.803 145.782,121.137 146.5,119.5 Z"/></g>
<g><path style="opacity:0.004" fill="#7f8184" d="M 164.5,122.5 C 165.833,123.167 165.833,123.167 164.5,122.5 Z"/></g>
<g><path style="opacity:0.004" fill="#969397" d="M 167.5,122.5 C 166.833,123.167 166.833,123.167 167.5,122.5 Z"/></g>
<g><path style="opacity:0.004" fill="#000000" d="M 169.5,122.5 C 170.833,123.167 170.833,123.167 169.5,122.5 Z"/></g>
<g><path style="opacity:0.004" fill="#000000" d="M 164.5,123.5 C 163.833,124.167 163.833,124.167 164.5,123.5 Z"/></g>
<g><path style="opacity:0.004" fill="#00000f" d="M 46.5,124.5 C 47.8333,125.167 47.8333,125.167 46.5,124.5 Z"/></g>
<g><path style="opacity:0.009" fill="#000002" d="M 42.5,130.5 C 42.5,132.5 42.5,134.5 42.5,136.5C 41.1667,137.167 41.1667,137.833 42.5,138.5C 42.5,138.833 42.5,139.167 42.5,139.5C 41.1667,139.833 41.1667,140.167 42.5,140.5C 42.1583,141.338 41.4916,141.672 40.5,141.5C 40.4226,140.25 39.756,139.417 38.5,139C 38.6158,137.732 38.9491,136.398 39.5,135C 38.0325,133.902 37.1992,132.402 37,130.5C 36.0853,131.328 35.4186,132.328 35,133.5C 33.6012,132.773 32.1012,132.273 30.5,132C 31.5707,131.148 32.5707,130.315 33.5,129.5C 35.1789,129.108 36.8455,128.608 38.5,128C 37.3961,126.869 37.7295,126.035 39.5,125.5C 39.5523,127.57 39.719,129.903 40,132.5C 40.7083,131.619 41.5416,130.953 42.5,130.5 Z"/></g>
<g><path style="opacity:0.005" fill="#02060c" d="M 53.5,125.5 C 54.3065,126.728 55.3065,127.728 56.5,128.5C 55.603,129.598 54.7697,129.598 54,128.5C 53.3946,130.481 52.3946,130.815 51,129.5C 50.5172,130.448 50.3505,131.448 50.5,132.5C 49.1667,131.833 48.1667,130.833 47.5,129.5C 48.1667,129.5 48.5,129.167 48.5,128.5C 50.0009,127.248 51.6675,126.248 53.5,125.5 Z"/></g>
<g><path style="opacity:0.008" fill="#575b62" d="M 58.5,123.5 C 59.3382,123.842 59.6716,124.508 59.5,125.5C 60.8333,126.833 60.8333,128.167 59.5,129.5C 59.1667,129.5 58.8333,129.5 58.5,129.5C 58.1583,128.662 57.4916,128.328 56.5,128.5C 55.3065,127.728 54.3065,126.728 53.5,125.5C 55.0109,124.498 56.6776,123.831 58.5,123.5 Z"/></g>
<g><path style="opacity:0.788" fill="#4b423a" d="M 72.5,117.5 C 72.8333,117.5 73.1667,117.5 73.5,117.5C 73.5,118.5 73.5,119.5 73.5,120.5C 73.9465,123.01 73.2798,125.01 71.5,126.5C 67.3939,129.429 63.3939,132.596 59.5,136C 56.5547,137.131 53.5547,137.964 50.5,138.5C 51.1667,137.833 51.8333,137.167 52.5,136.5C 56.3909,136.197 59.7242,134.697 62.5,132C 65.6667,128.833 68.8333,125.667 72,122.5C 72.4935,120.866 72.6602,119.199 72.5,117.5 Z"/></g>
<g><path style="opacity:0.004" fill="#000000" d="M 35.5,126.5 C 36.8333,127.167 36.8333,127.167 35.5,126.5 Z"/></g>
<g><path style="opacity:0.004" fill="#8a929e" d="M 148.5,127.5 C 149.077,126.227 149.743,126.227 150.5,127.5C 150.03,128.463 149.363,128.463 148.5,127.5 Z"/></g>
<g><path style="opacity:0.004" fill="#000000" d="M 152.5,126.5 C 153.833,127.167 153.833,127.167 152.5,126.5 Z"/></g>
<g><path style="opacity:0.004" fill="#000000" d="M 163.5,126.5 C 164.598,127.601 164.765,128.934 164,130.5C 163.51,129.207 163.343,127.873 163.5,126.5 Z"/></g>
<g><path style="opacity:1" fill="#09050c" d="M 129.5,126.5 C 132.973,128.637 135.306,131.637 136.5,135.5C 133.791,132.792 131.458,129.792 129.5,126.5 Z"/></g>
<g><path style="opacity:0.004" fill="#818997" d="M 143.5,127.5 C 144.833,128.167 144.833,128.167 143.5,127.5 Z"/></g>
<g><path style="opacity:0.004" fill="#636063" d="M 21.5,125.5 C 22.4734,125.987 23.4734,126.487 24.5,127C 23.1667,127.667 23.1667,128.333 24.5,129C 18.3166,132.316 17.3166,131.15 21.5,125.5 Z"/></g>
<g><path style="opacity:0.004" fill="#858184" d="M 33.5,129.5 C 32.7611,129.631 32.0944,129.464 31.5,129C 32.4368,128.308 33.1034,128.475 33.5,129.5 Z"/></g>
<g><path style="opacity:0.004" fill="#999ca2" d="M 167.5,130.5 C 167.351,129.448 167.517,128.448 168,127.5C 168.74,128.749 168.573,129.749 167.5,130.5 Z"/></g>
<g><path style="opacity:0.008" fill="#171317" d="M 10.5,127.5 C 11.7965,128.849 11.6298,130.182 10,131.5C 8.07003,129.923 8.23669,128.59 10.5,127.5 Z"/></g>
<g><path style="opacity:0.005" fill="#07080d" d="M 58.5,129.5 C 58.8333,129.5 59.1667,129.5 59.5,129.5C 60.5498,129.905 60.5498,130.571 59.5,131.5C 57.5767,132.308 55.5767,132.808 53.5,133C 57.449,133.807 57.449,134.307 53.5,134.5C 52.2905,134.068 51.2905,133.401 50.5,132.5C 53.1667,131.5 55.8333,130.5 58.5,129.5 Z"/></g>
<g><path style="opacity:0.012" fill="#7a7c80" d="M 163.5,124.5 C 163.5,125.167 163.5,125.833 163.5,126.5C 162.207,127.842 161.374,129.509 161,131.5C 159.745,130.789 158.579,129.956 157.5,129C 159.185,127.054 161.185,125.554 163.5,124.5 Z"/></g>
<g><path style="opacity:0.004" fill="#162941" d="M 146.5,129.5 C 148.337,129.639 148.67,130.306 147.5,131.5C 146.702,131.043 146.369,130.376 146.5,129.5 Z"/></g>
<g><path style="opacity:0.004" fill="#000000" d="M 32.5,134.5 C 31.6618,134.842 31.3284,135.508 31.5,136.5C 30.391,136.443 29.391,136.11 28.5,135.5C 28.62,134.414 29.2867,133.747 30.5,133.5C 31.4164,133.543 32.0831,133.876 32.5,134.5 Z"/></g>
<g><path style="opacity:1" fill="#654539" d="M 123.5,118.5 C 122.618,121.156 121.285,123.656 119.5,126C 119.833,126.333 120.167,126.667 120.5,127C 119.207,127.49 117.873,127.657 116.5,127.5C 116.444,130.561 117.778,132.728 120.5,134C 117.614,134.606 115.448,136.106 114,138.5C 109.638,136.933 105.638,137.6 102,140.5C 100.157,137.827 97.6566,136.66 94.5,137C 96.2853,138.593 96.452,140.093 95,141.5C 93.513,140.747 93.3463,139.914 94.5,139C 92.9556,137.813 91.2889,137.48 89.5,138C 91.1832,139.868 92.8498,141.701 94.5,143.5C 88.6522,140.985 83.6522,137.318 79.5,132.5C 82.6118,133.429 85.2785,135.096 87.5,137.5C 88.2868,136.758 88.9535,135.925 89.5,135C 96.0809,134.813 102.581,134.313 109,133.5C 100.566,133.182 92.7328,130.182 85.5,124.5C 84.3296,123.306 84.663,122.639 86.5,122.5C 87.343,124.173 88.6763,125.34 90.5,126C 94.9838,126.639 99.1504,127.806 103,129.5C 107.138,128.392 111.305,127.225 115.5,126C 116.381,125.292 117.047,124.458 117.5,123.5C 119.475,121.863 121.475,120.196 123.5,118.5 Z"/></g>
<g><path style="opacity:0.004" fill="#7b828e" d="M 167.5,130.5 C 166.265,132.773 166.598,134.606 168.5,136C 167.207,136.49 165.873,136.657 164.5,136.5C 164.912,134.113 165.912,132.113 167.5,130.5 Z"/></g>
<g><path style="opacity:0.004" fill="#000000" d="M 28.5,135.5 C 28.5,136.167 28.5,136.833 28.5,137.5C 23.2552,138.313 23.2552,137.646 28.5,135.5 Z"/></g>
<g><path style="opacity:0.038" fill="#505866" d="M 48.5,128.5 C 47.8333,128.5 47.5,128.833 47.5,129.5C 48.1667,130.833 49.1667,131.833 50.5,132.5C 51.2905,133.401 52.2905,134.068 53.5,134.5C 53.1667,135.167 52.8333,135.833 52.5,136.5C 50.2143,136.595 48.2143,137.262 46.5,138.5C 45.209,138.263 44.209,138.596 43.5,139.5C 43.5,140.167 43.1667,140.5 42.5,140.5C 42.5,140.167 42.5,139.833 42.5,139.5C 42.5,139.167 42.5,138.833 42.5,138.5C 43.5063,137.604 43.5063,136.938 42.5,136.5C 42.5,134.5 42.5,132.5 42.5,130.5C 42.7619,128.436 43.9286,127.103 46,126.5C 46.6667,127.833 47.3333,127.833 48,126.5C 48.4643,127.094 48.631,127.761 48.5,128.5 Z M 44.5,132.5 C 47.0009,132.511 47.1676,133.178 45,134.5C 44.5357,133.906 44.369,133.239 44.5,132.5 Z"/></g>
<g><path style="opacity:0.01" fill="#12121f" d="M 159.5,136.5 C 159.027,137.906 158.027,138.573 156.5,138.5C 156.528,135.658 157.862,134.491 160.5,135C 159.944,135.383 159.611,135.883 159.5,136.5 Z"/></g>
<g><path style="opacity:1" fill="#52350c" d="M 71.5,127.5 C 71.2755,135.389 71.9422,143.056 73.5,150.5C 73.5,152.167 73.5,153.833 73.5,155.5C 69.8077,146.889 68.8077,137.889 70.5,128.5C 70.5,127.833 70.8333,127.5 71.5,127.5 Z"/></g>
<g><path style="opacity:0.004" fill="#808b9a" d="M 177.5,136.5 C 178.833,137.167 178.833,137.167 177.5,136.5 Z"/></g>
<g><path style="opacity:1" fill="#6f4a3a" d="M 123.5,109.5 C 125.017,109.511 126.184,110.177 127,111.5C 127.414,111.043 127.914,110.709 128.5,110.5C 129.474,112.743 129.808,115.076 129.5,117.5C 127.949,119.913 127.283,122.579 127.5,125.5C 126.543,131.746 124.21,137.412 120.5,142.5C 116.474,145.204 112.474,147.871 108.5,150.5C 106.473,150.662 104.473,150.495 102.5,150C 99.5798,148.054 96.9131,145.887 94.5,143.5C 92.8498,141.701 91.1832,139.868 89.5,138C 91.2889,137.48 92.9556,137.813 94.5,139C 93.3463,139.914 93.513,140.747 95,141.5C 96.452,140.093 96.2853,138.593 94.5,137C 97.6566,136.66 100.157,137.827 102,140.5C 105.638,137.6 109.638,136.933 114,138.5C 115.448,136.106 117.614,134.606 120.5,134C 117.778,132.728 116.444,130.561 116.5,127.5C 117.873,127.657 119.207,127.49 120.5,127C 120.167,126.667 119.833,126.333 119.5,126C 121.285,123.656 122.618,121.156 123.5,118.5C 123.626,116.8 124.293,115.3 125.5,114C 125.095,113.055 124.428,112.388 123.5,112C 124.598,111.23 124.598,110.397 123.5,109.5 Z"/></g>
<g><path style="opacity:0.004" fill="#000000" d="M 13.5,138.5 C 14.8333,139.167 14.8333,139.167 13.5,138.5 Z"/></g>
<g><path style="opacity:0.004" fill="#ae6a00" d="M 196.5,138.5 C 197.833,139.167 197.833,139.167 196.5,138.5 Z"/></g>
<g><path style="opacity:0.008" fill="#131218" d="M 8.5,135.5 C 9.52887,136.126 10.5289,136.959 11.5,138C 10.8333,138.333 10.1667,138.667 9.5,139C 10.7932,139.49 12.1266,139.657 13.5,139.5C 13.238,140.978 13.5713,142.311 14.5,143.5C 15.944,142.019 16.6106,142.352 16.5,144.5C 16.1667,145.833 15.8333,147.167 15.5,148.5C 15.5,148.833 15.5,149.167 15.5,149.5C 15.1667,149.5 14.8333,149.5 14.5,149.5C 13.8333,149.5 13.5,149.833 13.5,150.5C 13.5,151.167 13.1667,151.5 12.5,151.5C 12.1667,150.167 11.8333,150.167 11.5,151.5C 11.5,152.167 11.1667,152.5 10.5,152.5C 9.83333,151.167 9.16667,151.167 8.5,152.5C 6.42136,152.971 4.42136,153.637 2.5,154.5C 2.19607,153.85 1.86273,153.183 1.5,152.5C 4.94803,150.55 8.61469,149.05 12.5,148C 11.1813,146.372 9.84794,146.539 8.5,148.5C 7.89333,148.376 7.55999,148.043 7.5,147.5C 8.35968,143.566 8.69302,139.566 8.5,135.5 Z"/></g>
<g><path style="opacity:0.007" fill="#000000" d="M 25.5,142.5 C 24.8333,142.5 24.5,142.833 24.5,143.5C 24.1667,143.5 23.8333,143.5 23.5,143.5C 23.1667,140.833 22.8333,140.833 22.5,143.5C 22.1667,143.5 21.8333,143.5 21.5,143.5C 21.5,142.5 21.5,141.5 21.5,140.5C 22.7079,139.766 24.0413,139.433 25.5,139.5C 25.5,140.5 25.5,141.5 25.5,142.5 Z"/></g>
<g><path style="opacity:0.004" fill="#ac6f00" d="M 196.5,139.5 C 195.833,140.167 195.833,140.167 196.5,139.5 Z"/></g>
<g><path style="opacity:0.004" fill="#4f5259" d="M 17.5,141.5 C 13.7566,141.541 13.5899,140.874 17,139.5C 17.4643,140.094 17.631,140.761 17.5,141.5 Z"/></g>
<g><path style="opacity:0.006" fill="#060405" d="M 28.5,140.5 C 28.5,141.833 28.5,143.167 28.5,144.5C 28.5,144.833 28.5,145.167 28.5,145.5C 28.1583,146.338 27.4916,146.672 26.5,146.5C 28.0251,143.543 27.3584,142.876 24.5,144.5C 24.5,144.167 24.5,143.833 24.5,143.5C 25.1667,143.5 25.5,143.167 25.5,142.5C 26.2223,141.449 27.2223,140.782 28.5,140.5 Z"/></g>
<g><path style="opacity:1" fill="#7e5d34" d="M 71.5,126.5 C 71.5,126.833 71.5,127.167 71.5,127.5C 70.8333,127.5 70.5,127.833 70.5,128.5C 69.8826,128.611 69.3826,128.944 69,129.5C 68.7931,133.089 68.2931,136.589 67.5,140C 67.8333,140.333 68.1667,140.667 68.5,141C 66.9706,142.791 65.3039,144.458 63.5,146C 61.6133,145.577 59.6133,145.744 57.5,146.5C 57.719,145.325 57.3857,144.325 56.5,143.5C 54.3805,145.614 54.3805,147.448 56.5,149C 56.1667,149.5 55.8333,150 55.5,150.5C 52.8121,149.975 51.1454,148.975 50.5,147.5C 46.8536,148.157 44.5202,150.157 43.5,153.5C 42.4265,154.251 42.2599,155.251 43,156.5C 45.0987,158.797 47.5987,160.464 50.5,161.5C 48.036,162.567 45.7026,163.9 43.5,165.5C 39.434,166.173 37.434,168.506 37.5,172.5C 38.7268,181.526 40.0601,190.526 41.5,199.5C 41.1667,199.5 40.8333,199.5 40.5,199.5C 38.4227,189.209 36.9227,178.875 36,168.5C 38.2336,166.3 40.7336,164.467 43.5,163C 40.0623,157 39.729,150.833 42.5,144.5C 42.4573,143.584 42.1239,142.917 41.5,142.5C 39.5,142.833 37.5,143.167 35.5,143.5C 36.7804,142.069 38.4471,141.402 40.5,141.5C 41.4916,141.672 42.1583,141.338 42.5,140.5C 43.1667,140.5 43.5,140.167 43.5,139.5C 44.791,139.737 45.791,139.404 46.5,138.5C 47.8333,138.5 49.1667,138.5 50.5,138.5C 53.5547,137.964 56.5547,137.131 59.5,136C 63.3939,132.596 67.3939,129.429 71.5,126.5 Z"/></g>
<g><path style="opacity:0.031" fill="#575e6f" d="M 32.5,134.5 C 36.7954,134.279 37.4621,135.612 34.5,138.5C 34.7093,139.086 35.0426,139.586 35.5,140C 33.9371,140.759 32.9371,141.926 32.5,143.5C 31.5084,143.328 30.8417,143.662 30.5,144.5C 29.8333,144.5 29.1667,144.5 28.5,144.5C 28.5,143.167 28.5,141.833 28.5,140.5C 28.5,139.5 28.5,138.5 28.5,137.5C 29.791,137.737 30.791,137.404 31.5,136.5C 33.6977,136.591 34.0311,135.925 32.5,134.5 Z"/></g>
<g><path style="opacity:0.031" fill="#76747c" d="M 8.5,135.5 C 8.69302,139.566 8.35968,143.566 7.5,147.5C 6.5,147.5 5.5,147.5 4.5,147.5C 4.16667,146.833 3.83333,146.167 3.5,145.5C 4.47565,144.185 5.47565,142.852 6.5,141.5C 5.33184,140.094 5.66518,138.928 7.5,138C 7.16667,137.667 6.83333,137.333 6.5,137C 7.19055,135.933 7.69055,134.766 8,133.5C 8.89277,132.289 9.7261,132.289 10.5,133.5C 9.75731,134.182 9.09065,134.849 8.5,135.5 Z"/></g>
<g><path style="opacity:0.004" fill="#626778" d="M 21.5,140.5 C 21.5,141.5 21.5,142.5 21.5,143.5C 21.0825,144.222 20.4158,144.722 19.5,145C 20.1667,145.333 20.8333,145.667 21.5,146C 20.4293,146.852 19.4293,147.685 18.5,148.5C 17.8333,148.5 17.1667,148.5 16.5,148.5C 16.1667,148.5 15.8333,148.5 15.5,148.5C 15.8333,147.167 16.1667,145.833 16.5,144.5C 17.404,143.791 17.7373,142.791 17.5,141.5C 18.5845,139.681 19.9178,138.015 21.5,136.5C 22.2916,137.7 22.2916,139.033 21.5,140.5 Z"/></g>
<g><path style="opacity:0.004" fill="#a66900" d="M 180.5,143.5 C 181.497,142.287 182.497,142.454 183.5,144C 182.423,144.47 181.423,144.303 180.5,143.5 Z"/></g>
<g><path style="opacity:0.008" fill="#02010b" d="M 3.5,145.5 C 3.83333,146.167 4.16667,146.833 4.5,147.5C 2.83333,148.167 1.16667,148.833 -0.5,149.5C -0.5,148.5 -0.5,147.5 -0.5,146.5C 0.789915,145.942 1.62325,144.942 2,143.5C 2.27842,144.416 2.77842,145.082 3.5,145.5 Z"/></g>
<g><path style="opacity:0.004" fill="#000000" d="M 22.5,143.5 C 22.8333,143.5 23.1667,143.5 23.5,143.5C 23.5,144.167 23.8333,144.5 24.5,144.5C 23.3774,145.757 22.7107,145.424 22.5,143.5 Z"/></g>
<g><path style="opacity:1" fill="#0d0708" d="M 120.5,142.5 C 117.679,146.666 114.012,149.666 109.5,151.5C 108.833,151.5 108.5,151.167 108.5,150.5C 112.474,147.871 116.474,145.204 120.5,142.5 Z"/></g>
<g><path style="opacity:0.012" fill="#7e8391" d="M 159.5,136.5 C 160.222,136.918 160.722,137.584 161,138.5C 161.71,137.027 162.876,136.36 164.5,136.5C 164.389,137.117 164.056,137.617 163.5,138C 165,139.115 166.667,139.948 168.5,140.5C 169.506,140.062 169.506,139.396 168.5,138.5C 169.325,137.614 170.325,137.281 171.5,137.5C 171.261,139.467 171.594,141.301 172.5,143C 175.022,144.341 177.689,145.174 180.5,145.5C 180.5,146.167 180.5,146.833 180.5,147.5C 180.5,147.833 180.5,148.167 180.5,148.5C 171.212,146.486 162.546,143.152 154.5,138.5C 155.167,138.5 155.833,138.5 156.5,138.5C 158.027,138.573 159.027,137.906 159.5,136.5 Z"/></g>
<g><path style="opacity:0.019" fill="#888080" d="M 194.5,147.5 C 192.005,147.031 189.339,147.031 186.5,147.5C 184.889,145.167 185.389,143.5 188,142.5C 190.193,144.182 192.359,145.848 194.5,147.5 Z"/></g>
<g><path style="opacity:1" fill="#546284" d="M 73.5,120.5 C 74.6522,124.903 76.6522,128.903 79.5,132.5C 83.6522,137.318 88.6522,140.985 94.5,143.5C 96.9131,145.887 99.5798,148.054 102.5,150C 104.473,150.495 106.473,150.662 108.5,150.5C 108.5,151.167 108.833,151.5 109.5,151.5C 106.742,152.967 107.075,153.633 110.5,153.5C 106.661,154.542 102.994,154.542 99.5,153.5C 97.2948,152.802 95.4615,151.468 94,149.5C 91.4164,150.861 89.4164,150.195 88,147.5C 86.7949,148.071 85.6283,148.738 84.5,149.5C 84.047,151.565 83.047,153.232 81.5,154.5C 79.9596,152.613 78.2929,150.78 76.5,149C 76.8333,148.667 77.1667,148.333 77.5,148C 75.9391,147.682 74.7724,146.849 74,145.5C 73.5065,147.134 73.3398,148.801 73.5,150.5C 71.9422,143.056 71.2755,135.389 71.5,127.5C 71.5,127.167 71.5,126.833 71.5,126.5C 73.2798,125.01 73.9465,123.01 73.5,120.5 Z"/></g>
<g><path style="opacity:1" fill="#120b10" d="M 136.5,135.5 C 137.793,136.842 138.626,138.509 139,140.5C 140.64,146.056 141.473,151.722 141.5,157.5C 139.255,150.413 137.589,143.08 136.5,135.5 Z"/></g>
<g><path style="opacity:0.004" fill="#000000" d="M 4.5,148.5 C 5.83333,149.167 5.83333,149.167 4.5,148.5 Z"/></g>
<g><path style="opacity:0.004" fill="#00284f" d="M 1.5,149.5 C 2.83333,150.167 2.83333,150.167 1.5,149.5 Z"/></g>
<g><path style="opacity:0.004" fill="#000000" d="M 4.5,149.5 C 3.83333,150.167 3.83333,150.167 4.5,149.5 Z"/></g>
<g><path style="opacity:1" fill="#5d6d93" d="M 99.5,153.5 C 98.1667,154.167 97.1667,155.167 96.5,156.5C 96.5,156.833 96.5,157.167 96.5,157.5C 92.8846,161.059 90.5512,165.393 89.5,170.5C 87.1667,173.167 84.8333,175.833 82.5,178.5C 82.1854,176.774 82.0187,175.107 82,173.5C 84.0846,174.647 85.5846,173.98 86.5,171.5C 84.5434,168.941 82.8767,169.274 81.5,172.5C 80.6659,169.498 79.3325,166.832 77.5,164.5C 76.5383,161.261 75.2049,158.261 73.5,155.5C 73.5,153.833 73.5,152.167 73.5,150.5C 73.3398,148.801 73.5065,147.134 74,145.5C 74.7724,146.849 75.9391,147.682 77.5,148C 77.1667,148.333 76.8333,148.667 76.5,149C 78.2929,150.78 79.9596,152.613 81.5,154.5C 83.047,153.232 84.047,151.565 84.5,149.5C 85.6283,148.738 86.7949,148.071 88,147.5C 89.4164,150.195 91.4164,150.861 94,149.5C 95.4615,151.468 97.2948,152.802 99.5,153.5 Z"/></g>
<g><path style="opacity:1" fill="#150a08" d="M 110.5,153.5 C 116.708,156.557 120.541,161.557 122,168.5C 124.001,171.331 126.167,173.997 128.5,176.5C 123.964,173.901 120.297,170.401 117.5,166C 116.251,165.26 115.251,165.427 114.5,166.5C 113.5,165.833 112.5,165.167 111.5,164.5C 111.351,163.448 111.517,162.448 112,161.5C 113.572,165.378 115.072,165.378 116.5,161.5C 113.789,156.417 110.789,155.417 107.5,158.5C 103.647,157.496 103.647,156.662 107.5,156C 106.833,155.833 106.167,155.667 105.5,155.5C 102.551,156.302 99.5514,156.636 96.5,156.5C 97.1667,155.167 98.1667,154.167 99.5,153.5C 102.994,154.542 106.661,154.542 110.5,153.5 Z"/></g>
<g><path style="opacity:1" fill="#a48e63" d="M 132.5,126.5 C 134.483,127.471 136.483,128.471 138.5,129.5C 142.839,134.152 148.172,137.152 154.5,138.5C 162.546,143.152 171.212,146.486 180.5,148.5C 180.833,148.5 181.167,148.5 181.5,148.5C 183.216,148.629 184.883,148.962 186.5,149.5C 187.514,150.674 188.847,151.34 190.5,151.5C 191.167,151.5 191.833,151.5 192.5,151.5C 192.5,152.167 192.833,152.5 193.5,152.5C 194.833,152.5 196.167,152.5 197.5,152.5C 198.779,153.968 200.446,154.635 202.5,154.5C 202.5,150.833 202.5,147.167 202.5,143.5C 202.833,143.5 203.167,143.5 203.5,143.5C 203.5,148.167 203.5,152.833 203.5,157.5C 202.105,155.946 201.439,156.279 201.5,158.5C 202.223,160.782 202.557,163.116 202.5,165.5C 201.288,164.77 200.288,163.77 199.5,162.5C 198.038,163.471 196.705,163.138 195.5,161.5C 194.5,162 193.5,162.5 192.5,163C 193.669,165.007 194.335,167.173 194.5,169.5C 193.127,169.657 191.793,169.49 190.5,169C 185.735,162.867 180.402,157.201 174.5,152C 166.249,147.958 158.082,143.791 150,139.5C 148.174,140.01 148.007,140.844 149.5,142C 148.833,142.667 148.167,143.333 147.5,144C 148.451,144.718 148.617,145.551 148,146.5C 146.693,144.808 145.193,143.475 143.5,142.5C 142.36,140.22 141.193,137.886 140,135.5C 137.502,132.509 135.002,129.509 132.5,126.5 Z M 194.5,147.5 C 197.307,150.044 196.64,151.044 192.5,150.5C 190.898,148.926 188.898,148.259 186.5,148.5C 186.5,148.167 186.5,147.833 186.5,147.5C 189.339,147.031 192.005,147.031 194.5,147.5 Z"/></g>
<g><path style="opacity:0.014" fill="#7d7f8c" d="M 186.5,148.5 C 188.898,148.259 190.898,148.926 192.5,150.5C 191.508,150.328 190.842,150.662 190.5,151.5C 188.847,151.34 187.514,150.674 186.5,149.5C 186.5,149.167 186.5,148.833 186.5,148.5 Z"/></g>
<g><path style="opacity:0.23" fill="#7f8694" d="M 202.5,143.5 C 202.5,147.167 202.5,150.833 202.5,154.5C 200.446,154.635 198.779,153.968 197.5,152.5C 197.5,152.167 197.5,151.833 197.5,151.5C 197.263,150.209 197.596,149.209 198.5,148.5C 199.791,147.458 199.791,146.292 198.5,145C 199.901,144.59 201.234,144.09 202.5,143.5 Z"/></g>
<g><path style="opacity:0.013" fill="#a36803" d="M 198.5,148.5 C 197.596,149.209 197.263,150.209 197.5,151.5C 195.901,151.232 194.568,151.566 193.5,152.5C 192.833,152.5 192.5,152.167 192.5,151.5C 192.5,151.167 192.5,150.833 192.5,150.5C 196.64,151.044 197.307,150.044 194.5,147.5C 196.456,145.825 197.789,146.158 198.5,148.5 Z"/></g>
<g><path style="opacity:0.02" fill="#a46400" d="M 180.5,145.5 C 182.5,146.167 184.5,146.833 186.5,147.5C 186.5,147.833 186.5,148.167 186.5,148.5C 186.5,148.833 186.5,149.167 186.5,149.5C 184.883,148.962 183.216,148.629 181.5,148.5C 181.5,147.833 181.167,147.5 180.5,147.5C 180.5,146.833 180.5,146.167 180.5,145.5 Z"/></g>
<g><path style="opacity:1" fill="#957843" d="M 41.5,142.5 C 41.6939,144.787 40.6939,146.787 38.5,148.5C 36.6612,149.752 34.8278,149.752 33,148.5C 30.9045,149.715 31.0712,150.549 33.5,151C 32.3874,153.205 31.3874,155.038 30.5,156.5C 28.0576,156.354 27.3909,157.187 28.5,159C 26.4687,159.632 24.802,160.799 23.5,162.5C 25.7946,163.136 27.4613,164.469 28.5,166.5C 27.9747,167.192 27.3081,167.692 26.5,168C 27.5326,173.186 27.366,178.353 26,183.5C 24.0851,179.335 21.9185,175.335 19.5,171.5C 18.147,172.685 16.9803,174.019 16,175.5C 15.3333,174.167 14.6667,172.833 14,171.5C 13.7265,173.329 12.8932,174.829 11.5,176C 11.3808,177.281 11.8808,178.448 13,179.5C 13.9147,178.672 14.5814,177.672 15,176.5C 16.4415,178.305 16.6082,180.305 15.5,182.5C 13.5,182.5 11.5,182.5 9.5,182.5C 6.66664,173.346 4.33331,164.013 2.5,154.5C 4.42136,153.637 6.42136,152.971 8.5,152.5C 9.16667,152.5 9.83333,152.5 10.5,152.5C 11.1667,152.5 11.5,152.167 11.5,151.5C 11.8333,151.5 12.1667,151.5 12.5,151.5C 13.1667,151.5 13.5,151.167 13.5,150.5C 14.1667,150.5 14.5,150.167 14.5,149.5C 14.8333,149.5 15.1667,149.5 15.5,149.5C 16.1667,149.5 16.5,149.167 16.5,148.5C 17.1667,148.5 17.8333,148.5 18.5,148.5C 21.221,148.037 23.8877,147.371 26.5,146.5C 27.4916,146.672 28.1583,146.338 28.5,145.5C 29.4916,145.672 30.1583,145.338 30.5,144.5C 31.4916,144.672 32.1583,144.338 32.5,143.5C 33.5,143.5 34.5,143.5 35.5,143.5C 37.5,143.167 39.5,142.833 41.5,142.5 Z"/></g>
<g><path style="opacity:1" fill="#937840" d="M 202.5,165.5 C 202.557,163.116 202.223,160.782 201.5,158.5C 201.439,156.279 202.105,155.946 203.5,157.5C 203.5,169.167 203.5,180.833 203.5,192.5C 202.209,190.051 201.209,187.384 200.5,184.5C 197.478,182.312 194.978,179.645 193,176.5C 193.744,178.165 193.577,179.831 192.5,181.5C 194.153,187.388 195.153,193.388 195.5,199.5C 194.5,199.5 193.5,199.5 192.5,199.5C 192.313,197.436 191.813,195.436 191,193.5C 189.093,191.554 187.26,189.554 185.5,187.5C 184.675,186.614 183.675,186.281 182.5,186.5C 182.36,184.876 183.027,183.71 184.5,183C 182.508,182.426 181.008,181.259 180,179.5C 180.043,176.437 180.377,173.437 181,170.5C 178.669,165.906 175.169,164.239 170.5,165.5C 168.014,164.538 168.014,163.705 170.5,163C 167.2,163.046 163.866,163.212 160.5,163.5C 160.328,161.508 160.995,159.842 162.5,158.5C 162.192,157.692 161.692,157.025 161,156.5C 160,158.167 159,159.833 158,161.5C 154.391,159.615 150.891,157.615 147.5,155.5C 147.5,154.833 147.5,154.167 147.5,153.5C 150.139,155.156 152.805,156.822 155.5,158.5C 156.281,157.271 156.781,155.938 157,154.5C 157.333,154.833 157.667,155.167 158,155.5C 160.618,152.86 162.952,153.194 165,156.5C 166.294,155.146 166.46,153.812 165.5,152.5C 166,152.167 166.5,151.833 167,151.5C 169.414,152.957 171.914,154.291 174.5,155.5C 176.174,157.513 178.174,159.18 180.5,160.5C 181.829,164.608 183.995,168.275 187,171.5C 187.617,172.449 187.451,173.282 186.5,174C 187.714,179.08 189.548,183.914 192,188.5C 191.837,183.856 191.337,179.189 190.5,174.5C 190.833,173.5 191.167,172.5 191.5,171.5C 194.47,172.637 196.636,174.637 198,177.5C 198.756,175.191 198.256,173.191 196.5,171.5C 197.522,170.646 198.355,169.646 199,168.5C 202.164,171.145 203.331,170.145 202.5,165.5 Z"/></g>
<g><path style="opacity:1" fill="#9f8654" d="M 202.5,165.5 C 203.331,170.145 202.164,171.145 199,168.5C 198.355,169.646 197.522,170.646 196.5,171.5C 198.256,173.191 198.756,175.191 198,177.5C 196.636,174.637 194.47,172.637 191.5,171.5C 191.167,172.5 190.833,173.5 190.5,174.5C 191.337,179.189 191.837,183.856 192,188.5C 189.548,183.914 187.714,179.08 186.5,174C 187.451,173.282 187.617,172.449 187,171.5C 183.995,168.275 181.829,164.608 180.5,160.5C 178.174,159.18 176.174,157.513 174.5,155.5C 171.914,154.291 169.414,152.957 167,151.5C 166.5,151.833 166,152.167 165.5,152.5C 166.46,153.812 166.294,155.146 165,156.5C 162.952,153.194 160.618,152.86 158,155.5C 157.667,155.167 157.333,154.833 157,154.5C 156.781,155.938 156.281,157.271 155.5,158.5C 152.805,156.822 150.139,155.156 147.5,153.5C 146.85,153.196 146.183,152.863 145.5,152.5C 144.67,149.179 144.003,145.846 143.5,142.5C 145.193,143.475 146.693,144.808 148,146.5C 148.617,145.551 148.451,144.718 147.5,144C 148.167,143.333 148.833,142.667 149.5,142C 148.007,140.844 148.174,140.01 150,139.5C 158.082,143.791 166.249,147.958 174.5,152C 180.402,157.201 185.735,162.867 190.5,169C 191.793,169.49 193.127,169.657 194.5,169.5C 194.335,167.173 193.669,165.007 192.5,163C 193.5,162.5 194.5,162 195.5,161.5C 196.705,163.138 198.038,163.471 199.5,162.5C 200.288,163.77 201.288,164.77 202.5,165.5 Z"/></g>
<g><path style="opacity:1" fill="#8b6934" d="M 41.5,142.5 C 42.1239,142.917 42.4573,143.584 42.5,144.5C 39.729,150.833 40.0623,157 43.5,163C 40.7336,164.467 38.2336,166.3 36,168.5C 36.9227,178.875 38.4227,189.209 40.5,199.5C 38.1667,199.5 35.8333,199.5 33.5,199.5C 33.375,193.094 32.375,187.261 30.5,182C 31.1739,176.337 31.1739,170.504 30.5,164.5C 32.1241,161.866 34.4574,160.533 37.5,160.5C 37.7135,158.856 37.3802,157.356 36.5,156C 37.1667,155.333 37.8333,154.667 38.5,154C 38.3482,152.076 38.3482,150.242 38.5,148.5C 40.6939,146.787 41.6939,144.787 41.5,142.5 Z"/></g>
<g><path style="opacity:1" fill="#492911" d="M 43.5,153.5 C 46.5725,155.569 48.9059,158.236 50.5,161.5C 47.5987,160.464 45.0987,158.797 43,156.5C 42.2599,155.251 42.4265,154.251 43.5,153.5 Z"/></g>
<g><path style="opacity:1" fill="#876535" d="M 70.5,128.5 C 68.8077,137.889 69.8077,146.889 73.5,155.5C 74.0231,163.49 74.3564,171.49 74.5,179.5C 72.502,171.573 67.502,168.073 59.5,169C 57.7183,168.186 56.2183,167.019 55,165.5C 54.6667,165.833 54.3333,166.167 54,166.5C 53.5814,165.328 52.9147,164.328 52,163.5C 50.0731,167.975 47.2397,168.642 43.5,165.5C 45.7026,163.9 48.036,162.567 50.5,161.5C 48.9059,158.236 46.5725,155.569 43.5,153.5C 44.5202,150.157 46.8536,148.157 50.5,147.5C 51.1454,148.975 52.8121,149.975 55.5,150.5C 55.8333,150 56.1667,149.5 56.5,149C 54.3805,147.448 54.3805,145.614 56.5,143.5C 57.3857,144.325 57.719,145.325 57.5,146.5C 59.6133,145.744 61.6133,145.577 63.5,146C 65.3039,144.458 66.9706,142.791 68.5,141C 68.1667,140.667 67.8333,140.333 67.5,140C 68.2931,136.589 68.7931,133.089 69,129.5C 69.3826,128.944 69.8826,128.611 70.5,128.5 Z"/></g>
<g><path style="opacity:1" fill="#77580a" d="M 111.5,164.5 C 110.778,164.918 110.278,165.584 110,166.5C 109.768,165.263 109.268,164.263 108.5,163.5C 109.091,162.849 109.757,162.182 110.5,161.5C 108.579,159.834 106.579,159.5 104.5,160.5C 104.782,161.778 105.449,162.778 106.5,163.5C 105.566,164.568 105.232,165.901 105.5,167.5C 101.044,165.382 98.0442,162.049 96.5,157.5C 96.5,157.167 96.5,156.833 96.5,156.5C 99.5514,156.636 102.551,156.302 105.5,155.5C 106.167,155.667 106.833,155.833 107.5,156C 103.647,156.662 103.647,157.496 107.5,158.5C 110.789,155.417 113.789,156.417 116.5,161.5C 115.072,165.378 113.572,165.378 112,161.5C 111.517,162.448 111.351,163.448 111.5,164.5 Z"/></g>
<g><path style="opacity:1" fill="#180c0a" d="M 108.5,163.5 C 107.833,163.5 107.167,163.5 106.5,163.5C 105.449,162.778 104.782,161.778 104.5,160.5C 106.579,159.5 108.579,159.834 110.5,161.5C 109.757,162.182 109.091,162.849 108.5,163.5 Z"/></g>
<g><path style="opacity:1" fill="#140a02" d="M 104.5,160.5 C 102.516,161.694 100.516,161.694 98.5,160.5C 98.8333,159.5 99.5,158.833 100.5,158.5C 102.026,158.994 103.359,159.661 104.5,160.5 Z"/></g>
<g><path style="opacity:1" fill="#1c2835" d="M 141.5,157.5 C 142.612,159.599 143.279,161.933 143.5,164.5C 141.837,162.562 141.171,160.228 141.5,157.5 Z"/></g>
<g><path style="opacity:1" fill="#7084a0" d="M 127.5,125.5 C 128.167,125.5 128.833,125.5 129.5,125.5C 129.5,125.833 129.5,126.167 129.5,126.5C 131.458,129.792 133.791,132.792 136.5,135.5C 137.589,143.08 139.255,150.413 141.5,157.5C 141.171,160.228 141.837,162.562 143.5,164.5C 143.923,169.54 145.256,174.207 147.5,178.5C 148.779,185.453 149.779,192.453 150.5,199.5C 148.833,199.5 147.167,199.5 145.5,199.5C 145.59,197.304 145.923,195.137 146.5,193C 145.215,188.782 144.215,184.615 143.5,180.5C 143.665,177.15 143.498,173.817 143,170.5C 139.09,160.013 135.756,149.346 133,138.5C 132.847,151.124 132.347,163.791 131.5,176.5C 130.5,176.5 129.5,176.5 128.5,176.5C 126.167,173.997 124.001,171.331 122,168.5C 120.541,161.557 116.708,156.557 110.5,153.5C 107.075,153.633 106.742,152.967 109.5,151.5C 114.012,149.666 117.679,146.666 120.5,142.5C 124.21,137.412 126.543,131.746 127.5,125.5 Z"/></g>
<g><path style="opacity:0.998" fill="#94753a" d="M 74.5,179.5 C 74.8333,179.5 75.1667,179.5 75.5,179.5C 75.5,186.167 75.5,192.833 75.5,199.5C 64.1667,199.5 52.8333,199.5 41.5,199.5C 40.0601,190.526 38.7268,181.526 37.5,172.5C 37.434,168.506 39.434,166.173 43.5,165.5C 47.2397,168.642 50.0731,167.975 52,163.5C 52.9147,164.328 53.5814,165.328 54,166.5C 54.3333,166.167 54.6667,165.833 55,165.5C 56.2183,167.019 57.7183,168.186 59.5,169C 67.502,168.073 72.502,171.573 74.5,179.5 Z"/></g>
<g><path style="opacity:1" fill="#121426" d="M 96.5,157.5 C 98.0442,162.049 101.044,165.382 105.5,167.5C 106.609,168.29 107.942,168.79 109.5,169C 108.789,170.255 107.956,171.421 107,172.5C 106.586,172.043 106.086,171.709 105.5,171.5C 104.059,174.736 104.392,177.736 106.5,180.5C 102.877,186.674 102.544,193.008 105.5,199.5C 103.833,199.5 102.167,199.5 100.5,199.5C 101.173,191.471 102.173,183.471 103.5,175.5C 103.562,171.095 101.395,168.428 97,167.5C 94.9803,168.032 94.147,169.365 94.5,171.5C 92.5853,171.784 90.9187,171.451 89.5,170.5C 90.5512,165.393 92.8846,161.059 96.5,157.5 Z"/></g>
<g><path style="opacity:1" fill="#8c7417" d="M 106.5,163.5 C 107.167,163.5 107.833,163.5 108.5,163.5C 109.268,164.263 109.768,165.263 110,166.5C 110.278,165.584 110.778,164.918 111.5,164.5C 112.5,165.167 113.5,165.833 114.5,166.5C 115.446,171.199 115.446,175.866 114.5,180.5C 112.883,181.589 112.05,183.256 112,185.5C 110.175,184.429 109.008,185.096 108.5,187.5C 108.808,188.308 109.308,188.975 110,189.5C 110.816,188.177 111.983,187.511 113.5,187.5C 113.67,182.725 114.67,182.392 116.5,186.5C 117.291,188.309 117.291,190.309 116.5,192.5C 115.833,193.167 115.167,193.833 114.5,194.5C 113.596,193.791 113.263,192.791 113.5,191.5C 112.5,191.5 111.5,191.5 110.5,191.5C 105.55,190.189 104.384,191.855 107,196.5C 107.498,194.456 108.665,193.122 110.5,192.5C 110.5,193.5 110.5,194.5 110.5,195.5C 111.791,195.263 112.791,195.596 113.5,196.5C 113.443,197.609 113.11,198.609 112.5,199.5C 110.167,199.5 107.833,199.5 105.5,199.5C 102.544,193.008 102.877,186.674 106.5,180.5C 104.392,177.736 104.059,174.736 105.5,171.5C 106.086,171.709 106.586,172.043 107,172.5C 107.956,171.421 108.789,170.255 109.5,169C 107.942,168.79 106.609,168.29 105.5,167.5C 105.232,165.901 105.566,164.568 106.5,163.5 Z"/></g>
<g><path style="opacity:1" fill="#23222d" d="M 143.5,164.5 C 145.434,168.888 146.767,173.555 147.5,178.5C 145.256,174.207 143.923,169.54 143.5,164.5 Z"/></g>
<g><path style="opacity:1" fill="#111d35" d="M 73.5,155.5 C 75.2049,158.261 76.5383,161.261 77.5,164.5C 79.1441,173.14 80.8108,181.807 82.5,190.5C 81.7063,193.152 81.0396,192.985 80.5,190C 79.4868,184.378 78.1534,178.878 76.5,173.5C 75.5344,175.396 75.2011,177.396 75.5,179.5C 75.1667,179.5 74.8333,179.5 74.5,179.5C 74.3564,171.49 74.0231,163.49 73.5,155.5 Z"/></g>
<g><path style="opacity:1" fill="#241a0c" d="M 111.5,169.5 C 112.782,170.708 112.782,172.042 111.5,173.5C 110.479,176.037 108.813,177.537 106.5,178C 106.167,177.667 105.833,177.333 105.5,177C 107.639,174.522 109.639,172.022 111.5,169.5 Z"/></g>
<g><path style="opacity:1" fill="#906f2e" d="M 129.5,126.5 C 129.5,126.167 129.5,125.833 129.5,125.5C 130.609,125.557 131.609,125.89 132.5,126.5C 135.002,129.509 137.502,132.509 140,135.5C 141.193,137.886 142.36,140.22 143.5,142.5C 144.003,145.846 144.67,149.179 145.5,152.5C 146.183,152.863 146.85,153.196 147.5,153.5C 147.5,154.167 147.5,154.833 147.5,155.5C 147.335,158.518 147.502,161.518 148,164.5C 150.535,167.713 151.369,171.213 150.5,175C 153.976,182.855 156.643,191.022 158.5,199.5C 156.833,199.5 155.167,199.5 153.5,199.5C 152.258,192.183 150.258,185.183 147.5,178.5C 146.767,173.555 145.434,168.888 143.5,164.5C 143.279,161.933 142.612,159.599 141.5,157.5C 141.473,151.722 140.64,146.056 139,140.5C 138.626,138.509 137.793,136.842 136.5,135.5C 135.306,131.637 132.973,128.637 129.5,126.5 Z"/></g>
<g><path style="opacity:1" fill="#3a4862" d="M 100.5,199.5 C 100.167,199.5 99.8333,199.5 99.5,199.5C 98.5242,193.177 98.3576,186.844 99,180.5C 97.2739,181.576 95.4406,181.743 93.5,181C 91.6499,178.982 89.6499,177.149 87.5,175.5C 86.6184,176.76 85.6184,177.926 84.5,179C 83.5632,179.692 82.8966,179.525 82.5,178.5C 84.8333,175.833 87.1667,173.167 89.5,170.5C 90.9187,171.451 92.5853,171.784 94.5,171.5C 94.147,169.365 94.9803,168.032 97,167.5C 101.395,168.428 103.562,171.095 103.5,175.5C 102.173,183.471 101.173,191.471 100.5,199.5 Z"/></g>
<g><path style="opacity:1" fill="#495873" d="M 143.5,180.5 C 143.817,183.572 143.484,186.572 142.5,189.5C 140.354,180.584 138.687,171.584 137.5,162.5C 136.167,162.5 134.833,162.5 133.5,162.5C 134.332,169.486 134.499,176.486 134,183.5C 132.252,181.416 130.418,179.416 128.5,177.5C 124.495,179.879 120.662,179.879 117,177.5C 116.517,178.448 116.351,179.448 116.5,180.5C 115.833,180.5 115.167,180.5 114.5,180.5C 115.446,175.866 115.446,171.199 114.5,166.5C 115.251,165.427 116.251,165.26 117.5,166C 120.297,170.401 123.964,173.901 128.5,176.5C 129.5,176.5 130.5,176.5 131.5,176.5C 132.347,163.791 132.847,151.124 133,138.5C 135.756,149.346 139.09,160.013 143,170.5C 143.498,173.817 143.665,177.15 143.5,180.5 Z"/></g>
<g><path style="opacity:0.995" fill="#997e45" d="M 147.5,155.5 C 150.891,157.615 154.391,159.615 158,161.5C 159,159.833 160,158.167 161,156.5C 161.692,157.025 162.192,157.692 162.5,158.5C 160.995,159.842 160.328,161.508 160.5,163.5C 163.866,163.212 167.2,163.046 170.5,163C 168.014,163.705 168.014,164.538 170.5,165.5C 173.338,166.17 175.838,167.504 178,169.5C 178.193,179.627 179.36,189.627 181.5,199.5C 173.833,199.5 166.167,199.5 158.5,199.5C 156.643,191.022 153.976,182.855 150.5,175C 151.369,171.213 150.535,167.713 148,164.5C 147.502,161.518 147.335,158.518 147.5,155.5 Z"/></g>
<g><path style="opacity:1" fill="#858484" d="M 166.5,176.5 C 169.86,176.616 173.193,176.949 176.5,177.5C 176.5,179.5 176.5,181.5 176.5,183.5C 173.193,182.949 169.86,182.616 166.5,182.5C 166.5,180.5 166.5,178.5 166.5,176.5 Z"/></g>
<g><path style="opacity:1" fill="#8e6e38" d="M 38.5,148.5 C 38.3482,150.242 38.3482,152.076 38.5,154C 37.8333,154.667 37.1667,155.333 36.5,156C 37.3802,157.356 37.7135,158.856 37.5,160.5C 34.4574,160.533 32.1241,161.866 30.5,164.5C 31.1739,170.504 31.1739,176.337 30.5,182C 32.375,187.261 33.375,193.094 33.5,199.5C 22.1667,199.5 10.8333,199.5 -0.5,199.5C -0.5,183.833 -0.5,168.167 -0.5,152.5C 0.222348,153.551 1.22235,154.218 2.5,154.5C 4.33331,164.013 6.66664,173.346 9.5,182.5C 11.5,182.5 13.5,182.5 15.5,182.5C 16.6082,180.305 16.4415,178.305 15,176.5C 14.5814,177.672 13.9147,178.672 13,179.5C 11.8808,178.448 11.3808,177.281 11.5,176C 12.8932,174.829 13.7265,173.329 14,171.5C 14.6667,172.833 15.3333,174.167 16,175.5C 16.9803,174.019 18.147,172.685 19.5,171.5C 21.9185,175.335 24.0851,179.335 26,183.5C 27.366,178.353 27.5326,173.186 26.5,168C 27.3081,167.692 27.9747,167.192 28.5,166.5C 27.4613,164.469 25.7946,163.136 23.5,162.5C 24.802,160.799 26.4687,159.632 28.5,159C 27.3909,157.187 28.0576,156.354 30.5,156.5C 31.3874,155.038 32.3874,153.205 33.5,151C 31.0712,150.549 30.9045,149.715 33,148.5C 34.8278,149.752 36.6612,149.752 38.5,148.5 Z"/></g>
<g><path style="opacity:1" fill="#7e5d28" d="M 203.5,192.5 C 203.5,194.833 203.5,197.167 203.5,199.5C 200.833,199.5 198.167,199.5 195.5,199.5C 195.153,193.388 194.153,187.388 192.5,181.5C 193.577,179.831 193.744,178.165 193,176.5C 194.978,179.645 197.478,182.312 200.5,184.5C 201.209,187.384 202.209,190.051 203.5,192.5 Z"/></g>
<g><path style="opacity:1" fill="#1c0f06" d="M 114.5,180.5 C 115.167,180.5 115.833,180.5 116.5,180.5C 116.5,181.5 116.5,182.5 116.5,183.5C 116.5,184.5 116.5,185.5 116.5,186.5C 114.67,182.392 113.67,182.725 113.5,187.5C 111.983,187.511 110.816,188.177 110,189.5C 109.308,188.975 108.808,188.308 108.5,187.5C 109.008,185.096 110.175,184.429 112,185.5C 112.05,183.256 112.883,181.589 114.5,180.5 Z"/></g>
<g><path style="opacity:0.995" fill="#111216" d="M 147.5,178.5 C 150.258,185.183 152.258,192.183 153.5,199.5C 152.5,199.5 151.5,199.5 150.5,199.5C 149.779,192.453 148.779,185.453 147.5,178.5 Z"/></g>
<g><path style="opacity:1" fill="#3c0300" d="M 113.5,187.5 C 115.465,187.948 115.798,188.948 114.5,190.5C 113.614,189.675 113.281,188.675 113.5,187.5 Z"/></g>
<g><path style="opacity:0.996" fill="#556680" d="M 77.5,164.5 C 79.3325,166.832 80.6659,169.498 81.5,172.5C 82.8767,169.274 84.5434,168.941 86.5,171.5C 85.5846,173.98 84.0846,174.647 82,173.5C 82.0187,175.107 82.1854,176.774 82.5,178.5C 82.8966,179.525 83.5632,179.692 84.5,179C 85.6184,177.926 86.6184,176.76 87.5,175.5C 89.6499,177.149 91.6499,178.982 93.5,181C 95.4406,181.743 97.2739,181.576 99,180.5C 98.3576,186.844 98.5242,193.177 99.5,199.5C 94.1667,199.5 88.8333,199.5 83.5,199.5C 83.81,196.287 83.4767,193.287 82.5,190.5C 80.8108,181.807 79.1441,173.14 77.5,164.5 Z"/></g>
<g><path style="opacity:1" fill="#1e1008" d="M 110.5,191.5 C 110.5,191.833 110.5,192.167 110.5,192.5C 108.665,193.122 107.498,194.456 107,196.5C 104.384,191.855 105.55,190.189 110.5,191.5 Z"/></g>
<g><path style="opacity:1" fill="#4e310e" d="M 110.5,191.5 C 111.5,191.5 112.5,191.5 113.5,191.5C 113.263,192.791 113.596,193.791 114.5,194.5C 114.672,195.492 114.338,196.158 113.5,196.5C 112.791,195.596 111.791,195.263 110.5,195.5C 110.5,194.5 110.5,193.5 110.5,192.5C 110.5,192.167 110.5,191.833 110.5,191.5 Z"/></g>
<g><path style="opacity:1" fill="#49576b" d="M 116.5,183.5 C 117.222,183.918 117.722,184.584 118,185.5C 118.519,184.484 119.353,183.818 120.5,183.5C 122.135,184.046 123.801,184.38 125.5,184.5C 126.822,189.428 127.822,194.428 128.5,199.5C 125.833,199.5 123.167,199.5 120.5,199.5C 120.313,197.436 119.813,195.436 119,193.5C 118.329,192.748 117.496,192.414 116.5,192.5C 117.291,190.309 117.291,188.309 116.5,186.5C 116.5,185.5 116.5,184.5 116.5,183.5 Z"/></g>
<g><path style="opacity:1" fill="#81602b" d="M 170.5,165.5 C 175.169,164.239 178.669,165.906 181,170.5C 180.377,173.437 180.043,176.437 180,179.5C 181.008,181.259 182.508,182.426 184.5,183C 183.027,183.71 182.36,184.876 182.5,186.5C 183.675,186.281 184.675,186.614 185.5,187.5C 187.26,189.554 189.093,191.554 191,193.5C 191.813,195.436 192.313,197.436 192.5,199.5C 188.833,199.5 185.167,199.5 181.5,199.5C 179.36,189.627 178.193,179.627 178,169.5C 175.838,167.504 173.338,166.17 170.5,165.5 Z"/></g>
<g><path style="opacity:1" fill="#3e506c" d="M 82.5,190.5 C 83.4767,193.287 83.81,196.287 83.5,199.5C 80.8333,199.5 78.1667,199.5 75.5,199.5C 75.5,192.833 75.5,186.167 75.5,179.5C 75.2011,177.396 75.5344,175.396 76.5,173.5C 78.1534,178.878 79.4868,184.378 80.5,190C 81.0396,192.985 81.7063,193.152 82.5,190.5 Z"/></g>
<g><path style="opacity:1" fill="#1b0d04" d="M 116.5,192.5 C 116.539,193.583 116.873,194.583 117.5,195.5C 116.37,196.622 115.703,197.956 115.5,199.5C 114.5,199.5 113.5,199.5 112.5,199.5C 113.11,198.609 113.443,197.609 113.5,196.5C 114.338,196.158 114.672,195.492 114.5,194.5C 115.167,193.833 115.833,193.167 116.5,192.5 Z"/></g>
<g><path style="opacity:1" fill="#60738a" d="M 143.5,180.5 C 144.215,184.615 145.215,188.782 146.5,193C 145.923,195.137 145.59,197.304 145.5,199.5C 139.833,199.5 134.167,199.5 128.5,199.5C 127.822,194.428 126.822,189.428 125.5,184.5C 123.801,184.38 122.135,184.046 120.5,183.5C 119.353,183.818 118.519,184.484 118,185.5C 117.722,184.584 117.222,183.918 116.5,183.5C 116.5,182.5 116.5,181.5 116.5,180.5C 116.351,179.448 116.517,178.448 117,177.5C 120.662,179.879 124.495,179.879 128.5,177.5C 130.418,179.416 132.252,181.416 134,183.5C 134.499,176.486 134.332,169.486 133.5,162.5C 134.833,162.5 136.167,162.5 137.5,162.5C 138.687,171.584 140.354,180.584 142.5,189.5C 143.484,186.572 143.817,183.572 143.5,180.5 Z"/></g>
<g><path style="opacity:0.898" fill="#87771b" d="M 116.5,192.5 C 117.496,192.414 118.329,192.748 119,193.5C 119.813,195.436 120.313,197.436 120.5,199.5C 118.833,199.5 117.167,199.5 115.5,199.5C 115.703,197.956 116.37,196.622 117.5,195.5C 116.873,194.583 116.539,193.583 116.5,192.5 Z"/></g>
</svg>
