<?xml version="1.0" encoding="UTF-8"?>
<!DOCTYPE svg PUBLIC "-//W3C//DTD SVG 1.1//EN" "http://www.w3.org/Graphics/SVG/1.1/DTD/svg11.dtd">
<svg xmlns="http://www.w3.org/2000/svg" version="1.1" width="154px" height="200px" style="shape-rendering:geometricPrecision; text-rendering:geometricPrecision; image-rendering:optimizeQuality; fill-rule:evenodd; clip-rule:evenodd" xmlns:xlink="http://www.w3.org/1999/xlink">
<g><path style="opacity:0.984" fill="#c29280" d="M -0.5,-0.5 C 49.8333,-0.5 100.167,-0.5 150.5,-0.5C 150.5,0.166667 150.167,0.5 149.5,0.5C 99.6639,0.167802 49.9972,0.501136 0.5,1.5C 0.5,1.83333 0.5,2.16667 0.5,2.5C 0.5,34.8333 0.5,67.1667 0.5,99.5C 0.166667,99.5 -0.166667,99.5 -0.5,99.5C -0.5,66.1667 -0.5,32.8333 -0.5,-0.5 Z"/></g>
<g><path style="opacity:1" fill="#ec9783" d="M 0.5,1.5 C 49.9972,0.501136 99.6639,0.167802 149.5,0.5C 149.672,1.49162 149.338,2.15829 148.5,2.5C 142.833,2.5 137.167,2.5 131.5,2.5C 88.0032,1.50129 44.3365,1.16796 0.5,1.5 Z"/></g>
<g><path style="opacity:1" fill="#ee8a67" d="M 0.5,2.5 C 0.5,2.16667 0.5,1.83333 0.5,1.5C 44.3365,1.16796 88.0032,1.50129 131.5,2.5C 100.827,2.41552 70.1607,2.74885 39.5,3.5C 38.5,3.5 37.5,3.5 36.5,3.5C 24.6783,2.50492 12.6783,2.17159 0.5,2.5 Z"/></g>
<g><path style="opacity:1" fill="#ef6035" d="M 131.5,2.5 C 131.5,2.83333 131.5,3.16667 131.5,3.5C 129.5,3.5 127.5,3.5 125.5,3.5C 106.5,3.5 87.5,3.5 68.5,3.5C 65.7462,3.78449 63.0795,4.45115 60.5,5.5C 57.9124,9.67559 55.0791,13.6756 52,17.5C 50.7978,19.6775 50.2978,22.0108 50.5,24.5C 42.1667,24.5 33.8333,24.5 25.5,24.5C 30.3979,17.7193 35.0645,10.7193 39.5,3.5C 70.1607,2.74885 100.827,2.41552 131.5,2.5 Z"/></g>
<g><path style="opacity:1" fill="#e82c26" d="M 68.5,3.5 C 87.5,3.5 106.5,3.5 125.5,3.5C 123.619,6.10544 121.786,8.77211 120,11.5C 119.501,15.4862 119.334,19.4862 119.5,23.5C 113.642,23.1778 107.975,23.5111 102.5,24.5C 88.1667,24.5 73.8333,24.5 59.5,24.5C 59.5,23.5 59.5,22.5 59.5,21.5C 62.2776,21.9783 64.2776,20.9783 65.5,18.5C 67.0464,20.484 68.7131,20.8174 70.5,19.5C 72.9811,15.6292 75.6478,15.6292 78.5,19.5C 79.5,19.1667 80.1667,18.5 80.5,17.5C 76.9058,14.9352 76.7391,12.2685 80,9.5C 80.7828,7.68148 80.2828,6.34815 78.5,5.5C 76.8513,6.64768 75.3513,7.98101 74,9.5C 72.6244,8.29493 71.4577,6.9616 70.5,5.5C 69.8333,4.83333 69.1667,4.16667 68.5,3.5 Z"/></g>
<g><path style="opacity:1" fill="#9e2d28" d="M 131.5,3.5 C 131.5,3.16667 131.5,2.83333 131.5,2.5C 137.167,2.5 142.833,2.5 148.5,2.5C 149.103,7.6186 148.436,12.2853 146.5,16.5C 141.519,14.4601 141.353,12.1267 146,9.5C 146.301,6.90852 145.134,6.07519 142.5,7C 141.646,8.02173 140.646,8.85506 139.5,9.5C 137.929,7.58499 135.929,6.58499 133.5,6.5C 133.881,5.06888 134.881,4.23555 136.5,4C 134.866,3.50649 133.199,3.33982 131.5,3.5 Z"/></g>
<g><path style="opacity:1" fill="#f0d42f" d="M 133.5,6.5 C 135.929,6.58499 137.929,7.58499 139.5,9.5C 140.646,8.85506 141.646,8.02173 142.5,7C 145.134,6.07519 146.301,6.90852 146,9.5C 141.353,12.1267 141.519,14.4601 146.5,16.5C 146.582,18.2517 145.749,19.2517 144,19.5C 142.374,18.7113 140.874,17.7113 139.5,16.5C 137.466,17.5588 135.466,18.5588 133.5,19.5C 132.903,19.2648 132.57,18.7648 132.5,18C 133.5,16.3333 134.5,14.6667 135.5,13C 134.711,11.3745 133.711,9.87446 132.5,8.5C 132.863,7.81654 133.196,7.14987 133.5,6.5 Z"/></g>
<g><path style="opacity:1" fill="#f0d627" d="M 70.5,5.5 C 71.4577,6.9616 72.6244,8.29493 74,9.5C 75.3513,7.98101 76.8513,6.64768 78.5,5.5C 80.2828,6.34815 80.7828,7.68148 80,9.5C 76.7391,12.2685 76.9058,14.9352 80.5,17.5C 80.1667,18.5 79.5,19.1667 78.5,19.5C 75.6478,15.6292 72.9811,15.6292 70.5,19.5C 68.7483,19.5824 67.7483,18.7491 67.5,17C 68.2173,15.469 69.2173,14.1357 70.5,13C 69.7082,11.0403 68.3749,9.54026 66.5,8.5C 67.2826,6.71182 68.6159,5.71182 70.5,5.5 Z"/></g>
<g><path style="opacity:1" fill="#ed4d2d" d="M 68.5,3.5 C 69.1667,4.16667 69.8333,4.83333 70.5,5.5C 68.6159,5.71182 67.2826,6.71182 66.5,8.5C 68.3749,9.54026 69.7082,11.0403 70.5,13C 69.2173,14.1357 68.2173,15.469 67.5,17C 67.7483,18.7491 68.7483,19.5824 70.5,19.5C 68.7131,20.8174 67.0464,20.484 65.5,18.5C 64.2776,20.9783 62.2776,21.9783 59.5,21.5C 59.5,22.5 59.5,23.5 59.5,24.5C 56.5,24.5 53.5,24.5 50.5,24.5C 50.2978,22.0108 50.7978,19.6775 52,17.5C 55.0791,13.6756 57.9124,9.67559 60.5,5.5C 63.0795,4.45115 65.7462,3.78449 68.5,3.5 Z"/></g>
<g><path style="opacity:1" fill="#941c24" d="M 150.5,-0.5 C 150.833,-0.5 151.167,-0.5 151.5,-0.5C 150.541,22.4738 150.208,45.4738 150.5,68.5C 148.82,69.7822 147.487,71.4489 146.5,73.5C 144.72,74.9899 144.054,76.9899 144.5,79.5C 143.167,79.5 141.833,79.5 140.5,79.5C 140.52,81.143 139.853,82.4763 138.5,83.5C 138.709,84.086 139.043,84.586 139.5,85C 135.533,85.6283 132.699,87.795 131,91.5C 130.667,90.5 130.333,89.5 130,88.5C 129.667,91.1667 129.333,93.8333 129,96.5C 128.722,95.5842 128.222,94.9175 127.5,94.5C 127.5,89.5 127.5,84.5 127.5,79.5C 128.167,81.5 128.833,83.5 129.5,85.5C 130.496,85.5858 131.329,85.2524 132,84.5C 133.388,79.7891 133.888,75.1224 133.5,70.5C 135.929,70.415 137.929,69.415 139.5,67.5C 140.874,68.7113 142.374,69.7113 144,70.5C 145.946,70.2373 146.612,69.2373 146,67.5C 144.513,66.8448 143.347,65.8448 142.5,64.5C 143.833,62.8333 145.167,61.1667 146.5,59.5C 145.995,58.0815 144.995,57.4148 143.5,57.5C 146.118,50.6437 146.118,43.6437 143.5,36.5C 144.095,33.8599 144.428,31.1933 144.5,28.5C 143.167,28.5 141.833,28.5 140.5,28.5C 140.256,25.7374 138.923,23.5707 136.5,22C 137.167,21.3333 137.833,20.6667 138.5,20C 136.68,20.4759 135.013,20.3093 133.5,19.5C 135.466,18.5588 137.466,17.5588 139.5,16.5C 140.874,17.7113 142.374,18.7113 144,19.5C 145.749,19.2517 146.582,18.2517 146.5,16.5C 148.436,12.2853 149.103,7.6186 148.5,2.5C 149.338,2.15829 149.672,1.49162 149.5,0.5C 150.167,0.5 150.5,0.166667 150.5,-0.5 Z"/></g>
<g><path style="opacity:1" fill="#eb3b28" d="M 36.5,3.5 C 37.5,3.5 38.5,3.5 39.5,3.5C 35.0645,10.7193 30.3979,17.7193 25.5,24.5C 23.982,28.5659 23.1487,32.8993 23,37.5C 22.6667,36.5 22.3333,35.5 22,34.5C 18.9201,39.0827 15.0868,42.7494 10.5,45.5C 9.73601,48.787 7.90268,51.4537 5,53.5C 4.17786,51.2115 3.5112,48.8782 3,46.5C 2.50009,32.1705 2.33342,17.8372 2.5,3.5C 13.8333,3.5 25.1667,3.5 36.5,3.5 Z"/></g>
<g><path style="opacity:1" fill="#d5b846" d="M 18.5,6.5 C 18.3146,8.19578 17.4813,9.52912 16,10.5C 15.235,12.0657 15.4017,13.3991 16.5,14.5C 18.2132,15.6354 18.8799,17.302 18.5,19.5C 16.0712,19.415 14.0712,18.415 12.5,16.5C 11.8165,16.8627 11.1499,17.1961 10.5,17.5C 11.1834,15.8235 12.5168,15.1568 14.5,15.5C 14.5,13.8333 14.5,12.1667 14.5,10.5C 13.209,10.7373 12.209,10.404 11.5,9.5C 13.6282,8.04275 15.9616,7.04275 18.5,6.5 Z"/></g>
<g><path style="opacity:1" fill="#955f2a" d="M 18.5,6.5 C 19.0967,6.7352 19.4301,7.2352 19.5,8C 17.7991,9.86032 16.7991,12.027 16.5,14.5C 15.4017,13.3991 15.235,12.0657 16,10.5C 17.4813,9.52912 18.3146,8.19578 18.5,6.5 Z"/></g>
<g><path style="opacity:1" fill="#edce33" d="M 11.5,9.5 C 12.209,10.404 13.209,10.7373 14.5,10.5C 14.5,12.1667 14.5,13.8333 14.5,15.5C 12.5168,15.1568 11.1834,15.8235 10.5,17.5C 9.18047,18.9418 7.5138,19.6085 5.5,19.5C 5.79909,17.027 6.79909,14.8603 8.5,13C 7.7113,11.3745 6.7113,9.87446 5.5,8.5C 7.65463,4.84678 9.65463,5.18012 11.5,9.5 Z"/></g>
<g><path style="opacity:1" fill="#543618" d="M 25.5,24.5 C 33.8333,24.5 42.1667,24.5 50.5,24.5C 53.5,24.5 56.5,24.5 59.5,24.5C 73.8333,24.5 88.1667,24.5 102.5,24.5C 110.5,24.5 118.5,24.5 126.5,24.5C 126.5,24.8333 126.5,25.1667 126.5,25.5C 126.167,25.5 125.833,25.5 125.5,25.5C 111.833,25.5 98.1667,25.5 84.5,25.5C 83.5,25.5 82.5,25.5 81.5,25.5C 77.1667,25.5 72.8333,25.5 68.5,25.5C 66.8813,28.5479 65.8813,31.8812 65.5,35.5C 65.5,32.1667 65.5,28.8333 65.5,25.5C 52.5,25.5 39.5,25.5 26.5,25.5C 26.5,49.5 26.5,73.5 26.5,97.5C 26.1667,97.5 25.8333,97.5 25.5,97.5C 25.5,73.1667 25.5,48.8333 25.5,24.5 Z"/></g>
<g><path style="opacity:1" fill="#e0bb39" d="M 84.5,25.5 C 98.1667,25.5 111.833,25.5 125.5,25.5C 125.5,30.1667 125.5,34.8333 125.5,39.5C 123.167,39.5 120.833,39.5 118.5,39.5C 118.079,35.7999 117.412,32.1333 116.5,28.5C 108.282,31.6601 101.115,36.3268 95,42.5C 93.7163,41.4281 93.3829,40.0948 94,38.5C 93.6667,38.8333 93.3333,39.1667 93,39.5C 92.7679,38.2625 92.2679,37.2625 91.5,36.5C 91.2172,35.7109 90.7172,35.0442 90,34.5C 89.8843,40.1095 88.2176,40.7762 85,36.5C 84.5014,32.8484 84.3347,29.1817 84.5,25.5 Z"/></g>
<g><path style="opacity:1" fill="#a92124" d="M 131.5,3.5 C 133.199,3.33982 134.866,3.50649 136.5,4C 134.881,4.23555 133.881,5.06888 133.5,6.5C 133.196,7.14987 132.863,7.81654 132.5,8.5C 133.711,9.87446 134.711,11.3745 135.5,13C 134.5,14.6667 133.5,16.3333 132.5,18C 132.57,18.7648 132.903,19.2648 133.5,19.5C 135.013,20.3093 136.68,20.4759 138.5,20C 137.833,20.6667 137.167,21.3333 136.5,22C 138.923,23.5707 140.256,25.7374 140.5,28.5C 141.833,28.5 143.167,28.5 144.5,28.5C 144.428,31.1933 144.095,33.8599 143.5,36.5C 146.118,43.6437 146.118,50.6437 143.5,57.5C 142.185,58.4756 140.852,59.4756 139.5,60.5C 137.572,58.4219 135.405,57.7552 133,58.5C 132.333,59.1667 132.333,59.8333 133,60.5C 134.353,61.6853 135.52,63.0186 136.5,64.5C 133.479,65.7726 132.479,67.7726 133.5,70.5C 133.888,75.1224 133.388,79.7891 132,84.5C 131.329,85.2524 130.496,85.5858 129.5,85.5C 128.974,80.8907 129.641,76.5573 131.5,72.5C 131.555,70.6861 131.221,68.6861 130.5,66.5C 130.39,64.626 131.056,63.126 132.5,62C 132,61.5 131.5,61 131,60.5C 130.28,54.6394 130.446,48.806 131.5,43C 130.92,38.4935 129.92,34.1602 128.5,30C 128.667,28.8333 128.833,27.6667 129,26.5C 129.423,27.9561 130.256,28.4561 131.5,28C 130.398,25.081 129.398,22.2477 128.5,19.5C 128.766,17.3403 129.766,15.6736 131.5,14.5C 129.058,10.7195 129.058,7.05285 131.5,3.5 Z"/></g>
<g><path style="opacity:1" fill="#edd04f" d="M 65.5,35.5 C 64.0256,36.4363 63.0256,37.7697 62.5,39.5C 61.4138,39.38 60.7472,38.7133 60.5,37.5C 61.0431,36.1362 61.2098,34.8029 61,33.5C 57.9579,36.1394 57.7913,38.8061 60.5,41.5C 62.1042,42.287 62.7709,43.6203 62.5,45.5C 61.2749,46.1522 60.6083,47.3189 60.5,49C 60.4967,51.4839 61.1634,53.6505 62.5,55.5C 62.5391,57.3588 61.7058,58.6921 60,59.5C 59.855,63.0373 59.0216,66.3706 57.5,69.5C 54.9,65.9581 52.5667,62.2914 50.5,58.5C 56.9136,58.7573 57.5803,57.5906 52.5,55C 56.4592,55.2087 58.1258,53.3754 57.5,49.5C 54.4552,49.4921 51.4552,49.1587 48.5,48.5C 48.6567,47.1266 48.49,45.7932 48,44.5C 46.9681,46.0267 45.8014,47.36 44.5,48.5C 43.3614,51.9486 42.3614,55.4486 41.5,59C 41.8675,61.8294 42.8675,64.3294 44.5,66.5C 44.5,67.5 44.5,68.5 44.5,69.5C 43.3045,75.0902 42.3045,80.7569 41.5,86.5C 40.5832,85.8728 39.5832,85.5394 38.5,85.5C 37.9816,84.4226 37.6483,83.2559 37.5,82C 40.5008,74.5593 40.1675,67.3927 36.5,60.5C 35.2049,56.5766 33.3716,52.9099 31,49.5C 30.6981,55.5331 30.1981,61.5331 29.5,67.5C 27.2175,76.4326 29.2175,84.2659 35.5,91C 37.2475,91.3519 38.9142,91.8519 40.5,92.5C 41.1031,96.2728 41.7698,99.9394 42.5,103.5C 42.5,104.167 42.5,104.833 42.5,105.5C 42.5,107.5 42.5,109.5 42.5,111.5C 37.407,111.612 37.407,112.445 42.5,114C 42.0426,114.414 41.7093,114.914 41.5,115.5C 42.6888,116.429 44.0222,116.762 45.5,116.5C 45.2852,118.179 45.9519,119.179 47.5,119.5C 47.585,121.929 48.585,123.929 50.5,125.5C 50.3764,126.107 50.0431,126.44 49.5,126.5C 48.1667,125.5 46.8333,124.5 45.5,123.5C 42.8333,120.167 39.8333,117.167 36.5,114.5C 36.2624,112.596 35.2624,111.262 33.5,110.5C 33.573,108.973 32.9063,107.973 31.5,107.5C 30.0834,104.331 28.4168,101.331 26.5,98.5C 26.5,98.1667 26.5,97.8333 26.5,97.5C 26.5,73.5 26.5,49.5 26.5,25.5C 39.5,25.5 52.5,25.5 65.5,25.5C 65.5,28.8333 65.5,32.1667 65.5,35.5 Z"/></g>
<g><path style="opacity:1" fill="#d4b039" d="M 125.5,39.5 C 125.5,39.8333 125.5,40.1667 125.5,40.5C 121.158,41.6321 116.991,43.2988 113,45.5C 110.332,45.1669 107.499,45.1669 104.5,45.5C 104.44,44.9569 104.107,44.6236 103.5,44.5C 102.614,45.325 102.281,46.325 102.5,47.5C 99.6644,48.7755 96.6644,49.4422 93.5,49.5C 93.2627,50.791 93.596,51.791 94.5,52.5C 94.8807,53.9311 95.8807,54.7645 97.5,55C 96.4293,55.8518 95.4293,56.6851 94.5,57.5C 100.778,57.7781 101.611,59.7781 97,63.5C 95.9914,65.0249 95.4914,66.6916 95.5,68.5C 93.7333,69.65 92.5666,68.9833 92,66.5C 91.8844,61.7449 90.7177,57.4116 88.5,53.5C 89.6327,51.9448 90.2994,50.1114 90.5,48C 89.6216,46.1999 88.955,44.3666 88.5,42.5C 90.385,40.9468 91.385,38.9468 91.5,36.5C 92.2679,37.2625 92.7679,38.2625 93,39.5C 93.3333,39.1667 93.6667,38.8333 94,38.5C 93.3829,40.0948 93.7163,41.4281 95,42.5C 101.115,36.3268 108.282,31.6601 116.5,28.5C 117.412,32.1333 118.079,35.7999 118.5,39.5C 120.833,39.5 123.167,39.5 125.5,39.5 Z"/></g>
<g><path style="opacity:1" fill="#ba1f25" d="M 125.5,3.5 C 127.5,3.5 129.5,3.5 131.5,3.5C 129.058,7.05285 129.058,10.7195 131.5,14.5C 129.766,15.6736 128.766,17.3403 128.5,19.5C 129.398,22.2477 130.398,25.081 131.5,28C 130.256,28.4561 129.423,27.9561 129,26.5C 128.833,27.6667 128.667,28.8333 128.5,30C 129.92,34.1602 130.92,38.4935 131.5,43C 130.446,48.806 130.28,54.6394 131,60.5C 131.5,61 132,61.5 132.5,62C 131.056,63.126 130.39,64.626 130.5,66.5C 131.221,68.6861 131.555,70.6861 131.5,72.5C 129.641,76.5573 128.974,80.8907 129.5,85.5C 128.833,83.5 128.167,81.5 127.5,79.5C 127.83,60.9924 127.497,42.6591 126.5,24.5C 118.5,24.5 110.5,24.5 102.5,24.5C 107.975,23.5111 113.642,23.1778 119.5,23.5C 119.334,19.4862 119.501,15.4862 120,11.5C 121.786,8.77211 123.619,6.10544 125.5,3.5 Z"/></g>
<g><path style="opacity:1" fill="#100d0c" d="M 68.5,25.5 C 68.5,28.1667 68.5,30.8333 68.5,33.5C 72.8333,33.5 77.1667,33.5 81.5,33.5C 81.5,30.8333 81.5,28.1667 81.5,25.5C 82.5,25.5 83.5,25.5 84.5,25.5C 84.3347,29.1817 84.5014,32.8484 85,36.5C 88.2176,40.7762 89.8843,40.1095 90,34.5C 90.7172,35.0442 91.2172,35.7109 91.5,36.5C 91.385,38.9468 90.385,40.9468 88.5,42.5C 87.5655,43.5676 87.2322,44.901 87.5,46.5C 86.209,46.7373 85.209,46.404 84.5,45.5C 85.404,44.791 85.7373,43.791 85.5,42.5C 80.8113,43.3163 78.3113,41.3163 78,36.5C 76,35.1667 74,35.1667 72,36.5C 71.8832,40.7851 69.7166,42.7851 65.5,42.5C 65.5,43.5 65.5,44.5 65.5,45.5C 64.5,46.8333 63.5,46.8333 62.5,45.5C 62.7709,43.6203 62.1042,42.287 60.5,41.5C 61.1667,40.8333 61.8333,40.1667 62.5,39.5C 63.0256,37.7697 64.0256,36.4363 65.5,35.5C 65.8813,31.8812 66.8813,28.5479 68.5,25.5 Z"/></g>
<g><path style="opacity:1" fill="#9f8d36" d="M 68.5,25.5 C 72.8333,25.5 77.1667,25.5 81.5,25.5C 81.5,28.1667 81.5,30.8333 81.5,33.5C 77.1667,33.5 72.8333,33.5 68.5,33.5C 68.5,30.8333 68.5,28.1667 68.5,25.5 Z"/></g>
<g><path style="opacity:1" fill="#f3d34d" d="M 69.5,26.5 C 73.1667,26.5 76.8333,26.5 80.5,26.5C 80.5,28.5 80.5,30.5 80.5,32.5C 76.8333,32.5 73.1667,32.5 69.5,32.5C 69.5,30.5 69.5,28.5 69.5,26.5 Z"/></g>
<g><path style="opacity:1" fill="#3b321a" d="M 62.5,39.5 C 61.8333,40.1667 61.1667,40.8333 60.5,41.5C 57.7913,38.8061 57.9579,36.1394 61,33.5C 61.2098,34.8029 61.0431,36.1362 60.5,37.5C 60.7472,38.7133 61.4138,39.38 62.5,39.5 Z"/></g>
<g><path style="opacity:1" fill="#927e32" d="M 66.5,37.5 C 68.0481,37.8212 68.7148,38.8212 68.5,40.5C 65.7524,40.5983 65.0857,39.5983 66.5,37.5 Z"/></g>
<g><path style="opacity:1" fill="#737127" d="M 81.5,38.5 C 83.337,38.6395 83.6704,39.3061 82.5,40.5C 81.7025,40.0431 81.3691,39.3764 81.5,38.5 Z"/></g>
<g><path style="opacity:1" fill="#e6c747" d="M 84.5,45.5 C 78.1667,45.5 71.8333,45.5 65.5,45.5C 65.5,44.5 65.5,43.5 65.5,42.5C 69.7166,42.7851 71.8832,40.7851 72,36.5C 74,35.1667 76,35.1667 78,36.5C 78.3113,41.3163 80.8113,43.3163 85.5,42.5C 85.7373,43.791 85.404,44.791 84.5,45.5 Z"/></g>
<g><path style="opacity:1" fill="#352e14" d="M 88.5,42.5 C 88.955,44.3666 89.6216,46.1999 90.5,48C 90.2994,50.1114 89.6327,51.9448 88.5,53.5C 88.5,52.8333 88.1667,52.5 87.5,52.5C 87.5,52.1667 87.5,51.8333 87.5,51.5C 88.4345,50.4324 88.7678,49.099 88.5,47.5C 79.8333,47.5 71.1667,47.5 62.5,47.5C 62.2155,49.4147 62.5489,51.0813 63.5,52.5C 63.5,53.1667 63.5,53.8333 63.5,54.5C 62.8333,54.5 62.5,54.8333 62.5,55.5C 61.1634,53.6505 60.4967,51.4839 60.5,49C 60.6083,47.3189 61.2749,46.1522 62.5,45.5C 63.5,46.8333 64.5,46.8333 65.5,45.5C 71.8333,45.5 78.1667,45.5 84.5,45.5C 85.209,46.404 86.209,46.7373 87.5,46.5C 87.2322,44.901 87.5655,43.5676 88.5,42.5 Z"/></g>
<g><path style="opacity:1" fill="#baa339" d="M 87.5,51.5 C 87.5,50.5 87.5,49.5 87.5,48.5C 79.5,48.5 71.5,48.5 63.5,48.5C 63.5,49.8333 63.5,51.1667 63.5,52.5C 62.5489,51.0813 62.2155,49.4147 62.5,47.5C 71.1667,47.5 79.8333,47.5 88.5,47.5C 88.7678,49.099 88.4345,50.4324 87.5,51.5 Z"/></g>
<g><path style="opacity:1" fill="#151310" d="M 62.5,55.5 C 62.5,54.8333 62.8333,54.5 63.5,54.5C 63.8399,57.1441 63.1733,59.4775 61.5,61.5C 62.1272,62.4168 62.4606,63.4168 62.5,64.5C 61.6909,66.2922 61.1909,68.2922 61,70.5C 59.6976,71.0848 58.531,71.7515 57.5,72.5C 53.1157,74.3935 50.2824,77.7269 49,82.5C 48.235,86.9151 46.5684,90.9151 44,94.5C 43.8227,98.3563 43.3227,102.023 42.5,105.5C 42.5,104.833 42.5,104.167 42.5,103.5C 43.0803,99.351 42.4136,95.6843 40.5,92.5C 38.9142,91.8519 37.2475,91.3519 35.5,91C 29.2175,84.2659 27.2175,76.4326 29.5,67.5C 30.3238,71.3123 30.8238,75.3123 31,79.5C 31.2896,81.0441 31.9563,82.3774 33,83.5C 34.3963,75.72 35.563,68.0533 36.5,60.5C 40.1675,67.3927 40.5008,74.5593 37.5,82C 37.6483,83.2559 37.9816,84.4226 38.5,85.5C 39.4006,87.7271 41.0672,88.7271 43.5,88.5C 43.1496,83.0098 43.8163,77.6765 45.5,72.5C 45.4805,71.2739 45.1471,70.2739 44.5,69.5C 44.5,68.5 44.5,67.5 44.5,66.5C 45.4584,66.9528 46.2917,67.6195 47,68.5C 47.1667,67.6667 47.3333,66.8333 47.5,66C 46.2201,62.4936 46.2201,58.9936 47.5,55.5C 47.1822,54.3527 46.5156,53.5194 45.5,53C 46.1667,52.6667 46.8333,52.3333 47.5,52C 46.1859,51.015 45.1859,49.8484 44.5,48.5C 45.8014,47.36 46.9681,46.0267 48,44.5C 48.49,45.7932 48.6567,47.1266 48.5,48.5C 51.4552,49.1587 54.4552,49.4921 57.5,49.5C 58.1258,53.3754 56.4592,55.2087 52.5,55C 57.5803,57.5906 56.9136,58.7573 50.5,58.5C 52.5667,62.2914 54.9,65.9581 57.5,69.5C 59.0216,66.3706 59.855,63.0373 60,59.5C 61.7058,58.6921 62.5391,57.3588 62.5,55.5 Z"/></g>
<g><path style="opacity:1" fill="#bd9732" d="M 125.5,40.5 C 125.665,44.1817 125.499,47.8484 125,51.5C 124.692,50.6919 124.192,50.0253 123.5,49.5C 122.473,50.7914 121.473,50.7914 120.5,49.5C 117.466,54.2398 114.799,59.2398 112.5,64.5C 111.833,64.5 111.5,64.8333 111.5,65.5C 110.883,65.6107 110.383,65.944 110,66.5C 109.506,64.8659 109.34,63.1992 109.5,61.5C 109.663,59.1432 109.497,56.8098 109,54.5C 107.441,52.7834 106.608,50.7834 106.5,48.5C 107.043,48.44 107.376,48.1067 107.5,47.5C 106.398,46.8243 105.398,46.1577 104.5,45.5C 107.499,45.1669 110.332,45.1669 113,45.5C 116.991,43.2988 121.158,41.6321 125.5,40.5 Z"/></g>
<g><path style="opacity:1" fill="#3e3c35" d="M 104.5,45.5 C 105.398,46.1577 106.398,46.8243 107.5,47.5C 107.376,48.1067 107.043,48.44 106.5,48.5C 104.741,48.0461 102.741,48.0461 100.5,48.5C 100.241,52.0681 98.2407,53.4015 94.5,52.5C 93.596,51.791 93.2627,50.791 93.5,49.5C 96.6644,49.4422 99.6644,48.7755 102.5,47.5C 102.281,46.325 102.614,45.325 103.5,44.5C 104.107,44.6236 104.44,44.9569 104.5,45.5 Z"/></g>
<g><path style="opacity:1" fill="#100e0d" d="M 106.5,48.5 C 106.608,50.7834 107.441,52.7834 109,54.5C 109.497,56.8098 109.663,59.1432 109.5,61.5C 107.218,64.3219 105.885,67.6552 105.5,71.5C 106.985,76.0459 107.652,80.7126 107.5,85.5C 106.528,87.4931 105.195,87.8264 103.5,86.5C 103.88,84.302 103.213,82.6354 101.5,81.5C 99.9128,78.7318 98.0795,76.0652 96,73.5C 94.8873,72.695 93.7206,72.0283 92.5,71.5C 91.3065,70.7281 90.3065,69.7281 89.5,68.5C 89.8799,66.302 89.2132,64.6354 87.5,63.5C 86.5551,60.3651 86.5551,57.0318 87.5,53.5C 87.5,53.1667 87.5,52.8333 87.5,52.5C 88.1667,52.5 88.5,52.8333 88.5,53.5C 90.7177,57.4116 91.8844,61.7449 92,66.5C 92.5666,68.9833 93.7333,69.65 95.5,68.5C 96.404,69.209 96.7373,70.209 96.5,71.5C 97.8221,71.67 98.9887,71.3366 100,70.5C 101.299,67.853 102.632,65.1863 104,62.5C 104.497,60.1902 104.663,57.8568 104.5,55.5C 101.413,57.017 98.0794,57.6837 94.5,57.5C 95.4293,56.6851 96.4293,55.8518 97.5,55C 95.8807,54.7645 94.8807,53.9311 94.5,52.5C 98.2407,53.4015 100.241,52.0681 100.5,48.5C 102.741,48.0461 104.741,48.0461 106.5,48.5 Z"/></g>
<g><path style="opacity:1" fill="#eecb41" d="M 87.5,51.5 C 87.5,51.8333 87.5,52.1667 87.5,52.5C 87.5,52.8333 87.5,53.1667 87.5,53.5C 86.0297,57.0015 84.6964,60.6682 83.5,64.5C 77.8333,65.8333 72.1667,65.8333 66.5,64.5C 65.2829,61.1035 64.2829,57.7702 63.5,54.5C 63.5,53.8333 63.5,53.1667 63.5,52.5C 63.5,51.1667 63.5,49.8333 63.5,48.5C 71.5,48.5 79.5,48.5 87.5,48.5C 87.5,49.5 87.5,50.5 87.5,51.5 Z"/></g>
<g><path style="opacity:1" fill="#a5812d" d="M 125.5,25.5 C 125.833,25.5 126.167,25.5 126.5,25.5C 126.814,50.2115 126.481,74.8782 125.5,99.5C 121.647,99.6856 119.981,101.686 120.5,105.5C 118.077,105.424 116.244,106.424 115,108.5C 111.203,110.391 110.037,109.558 111.5,106C 111.333,105.167 111.167,104.333 111,103.5C 110.667,103.833 110.333,104.167 110,104.5C 108.841,99.614 109.674,95.2807 112.5,91.5C 113.492,91.6716 114.158,91.3382 114.5,90.5C 117.135,89.5265 119.135,87.8598 120.5,85.5C 122.019,82.4744 122.685,79.1411 122.5,75.5C 122.497,72.9746 122.163,70.6413 121.5,68.5C 120.68,62.2026 120.347,55.8692 120.5,49.5C 121.473,50.7914 122.473,50.7914 123.5,49.5C 124.192,50.0253 124.692,50.6919 125,51.5C 125.499,47.8484 125.665,44.1817 125.5,40.5C 125.5,40.1667 125.5,39.8333 125.5,39.5C 125.5,34.8333 125.5,30.1667 125.5,25.5 Z"/></g>
<g><path style="opacity:1" fill="#43413c" d="M 95.5,68.5 C 95.4914,66.6916 95.9914,65.0249 97,63.5C 101.611,59.7781 100.778,57.7781 94.5,57.5C 98.0794,57.6837 101.413,57.017 104.5,55.5C 104.663,57.8568 104.497,60.1902 104,62.5C 102.632,65.1863 101.299,67.853 100,70.5C 98.9887,71.3366 97.8221,71.67 96.5,71.5C 96.7373,70.209 96.404,69.209 95.5,68.5 Z"/></g>
<g><path style="opacity:1" fill="#0e0c09" d="M 120.5,49.5 C 120.347,55.8692 120.68,62.2026 121.5,68.5C 121.625,74.2031 121.292,79.8698 120.5,85.5C 119.135,87.8598 117.135,89.5265 114.5,90.5C 111.366,89.8924 110.699,88.2258 112.5,85.5C 113.301,83.9582 113.634,82.2915 113.5,80.5C 115.596,81.6036 116.596,80.7703 116.5,78C 115.167,73.6667 115.167,69.3333 116.5,65C 116.167,64.1667 115.833,63.3333 115.5,62.5C 114.735,63.6119 113.735,64.2786 112.5,64.5C 114.799,59.2398 117.466,54.2398 120.5,49.5 Z"/></g>
<g><path style="opacity:1" fill="#3e3c35" d="M 44.5,48.5 C 45.1859,49.8484 46.1859,51.015 47.5,52C 46.8333,52.3333 46.1667,52.6667 45.5,53C 46.5156,53.5194 47.1822,54.3527 47.5,55.5C 46.2201,58.9936 46.2201,62.4936 47.5,66C 47.3333,66.8333 47.1667,67.6667 47,68.5C 46.2917,67.6195 45.4584,66.9528 44.5,66.5C 42.8675,64.3294 41.8675,61.8294 41.5,59C 42.3614,55.4486 43.3614,51.9486 44.5,48.5 Z"/></g>
<g><path style="opacity:1" fill="#581619" d="M 151.5,-0.5 C 151.833,-0.5 152.167,-0.5 152.5,-0.5C 152.5,32.1667 152.5,64.8333 152.5,97.5C 151.072,102.601 148.739,107.268 145.5,111.5C 141.737,116.006 137.737,120.339 133.5,124.5C 134.642,121.62 135.642,118.62 136.5,115.5C 138.952,112.94 141.619,110.607 144.5,108.5C 145.762,105.885 146.928,103.218 148,100.5C 149.906,89.9276 150.74,79.261 150.5,68.5C 150.208,45.4738 150.541,22.4738 151.5,-0.5 Z"/></g>
<g><path style="opacity:1" fill="#eed332" d="M 143.5,57.5 C 144.995,57.4148 145.995,58.0815 146.5,59.5C 145.167,61.1667 143.833,62.8333 142.5,64.5C 143.347,65.8448 144.513,66.8448 146,67.5C 146.612,69.2373 145.946,70.2373 144,70.5C 142.374,69.7113 140.874,68.7113 139.5,67.5C 137.929,69.415 135.929,70.415 133.5,70.5C 132.479,67.7726 133.479,65.7726 136.5,64.5C 135.52,63.0186 134.353,61.6853 133,60.5C 132.333,59.8333 132.333,59.1667 133,58.5C 135.405,57.7552 137.572,58.4219 139.5,60.5C 140.852,59.4756 142.185,58.4756 143.5,57.5 Z"/></g>
<g><path style="opacity:1" fill="#3a321f" d="M 87.5,53.5 C 86.5551,57.0318 86.5551,60.3651 87.5,63.5C 86.1667,63.5 85.5,64.1667 85.5,65.5C 79.5907,66.4553 73.5907,66.7886 67.5,66.5C 65.8333,65.8333 64.1667,65.1667 62.5,64.5C 62.4606,63.4168 62.1272,62.4168 61.5,61.5C 63.1733,59.4775 63.8399,57.1441 63.5,54.5C 64.2829,57.7702 65.2829,61.1035 66.5,64.5C 72.1667,65.8333 77.8333,65.8333 83.5,64.5C 84.6964,60.6682 86.0297,57.0015 87.5,53.5 Z"/></g>
<g><path style="opacity:1" fill="#e2c44a" d="M 62.5,64.5 C 64.1667,65.1667 65.8333,65.8333 67.5,66.5C 67.1667,67.5 66.5,68.1667 65.5,68.5C 64.5041,68.4142 63.6708,68.7476 63,69.5C 62.5065,67.8659 62.3398,66.1992 62.5,64.5 Z"/></g>
<g><path style="opacity:1" fill="#d1b23d" d="M 87.5,63.5 C 89.2132,64.6354 89.8799,66.302 89.5,68.5C 88.609,67.8902 87.609,67.5569 86.5,67.5C 86.1667,66.8333 85.8333,66.1667 85.5,65.5C 85.5,64.1667 86.1667,63.5 87.5,63.5 Z"/></g>
<g><path style="opacity:1" fill="#a3822f" d="M 109.5,61.5 C 109.34,63.1992 109.506,64.8659 110,66.5C 110.383,65.944 110.883,65.6107 111.5,65.5C 111.091,70.6974 111.758,75.6974 113.5,80.5C 113.634,82.2915 113.301,83.9582 112.5,85.5C 111.33,87.2785 109.664,88.2785 107.5,88.5C 107.5,87.5 107.5,86.5 107.5,85.5C 107.652,80.7126 106.985,76.0459 105.5,71.5C 105.885,67.6552 107.218,64.3219 109.5,61.5 Z"/></g>
<g><path style="opacity:1" fill="#383838" d="M 113.5,80.5 C 111.758,75.6974 111.091,70.6974 111.5,65.5C 111.5,64.8333 111.833,64.5 112.5,64.5C 113.735,64.2786 114.735,63.6119 115.5,62.5C 115.833,63.3333 116.167,64.1667 116.5,65C 115.167,69.3333 115.167,73.6667 116.5,78C 116.596,80.7703 115.596,81.6036 113.5,80.5 Z"/></g>
<g><path style="opacity:1" fill="#ea5e37" d="M 0.5,2.5 C 12.6783,2.17159 24.6783,2.50492 36.5,3.5C 25.1667,3.5 13.8333,3.5 2.5,3.5C 2.33342,17.8372 2.50009,32.1705 3,46.5C 3.5112,48.8782 4.17786,51.2115 5,53.5C 7.90268,51.4537 9.73601,48.787 10.5,45.5C 15.0868,42.7494 18.9201,39.0827 22,34.5C 22.3333,35.5 22.6667,36.5 23,37.5C 23.1487,32.8993 23.982,28.5659 25.5,24.5C 25.5,48.8333 25.5,73.1667 25.5,97.5C 24.5104,91.69 24.1771,85.69 24.5,79.5C 24.83,72.8002 24.4967,66.1335 23.5,59.5C 22.914,59.7093 22.414,60.0426 22,60.5C 21.5774,59.0439 20.7441,58.5439 19.5,59C 19.9437,60.5333 20.277,62.0333 20.5,63.5C 18.9045,62.9563 17.5712,63.6229 16.5,65.5C 15.9569,65.44 15.6236,65.1067 15.5,64.5C 17.415,62.9288 18.415,60.9288 18.5,58.5C 16.0712,58.585 14.0712,59.585 12.5,61.5C 10.8333,60.1667 9.16667,58.8333 7.5,57.5C 6.28014,57.8869 5.61348,58.7202 5.5,60C 6.43935,61.9439 7.77268,63.6106 9.5,65C 7.36194,66.4216 6.19528,68.255 6,70.5C 6.41395,70.9574 6.91395,71.2907 7.5,71.5C 9.16667,70.1667 10.8333,68.8333 12.5,67.5C 13.5244,68.8518 14.5244,70.1851 15.5,71.5C 13.8762,71.3601 12.7096,72.0267 12,73.5C 11.3333,72.8333 10.6667,72.1667 10,71.5C 8.33333,74.1667 6.66667,76.8333 5,79.5C 3.95523,86.1253 3.28857,92.792 3,99.5C 2.66667,99.1667 2.33333,98.8333 2,98.5C 1.51722,99.448 1.35055,100.448 1.5,101.5C 0.661754,101.158 0.32842,100.492 0.5,99.5C 0.5,67.1667 0.5,34.8333 0.5,2.5 Z"/></g>
<g><path style="opacity:1" fill="#ebcb2e" d="M 16.5,65.5 C 18.0808,67.1417 18.7475,69.1417 18.5,71.5C 17.5,71.5 16.5,71.5 15.5,71.5C 14.5244,70.1851 13.5244,68.8518 12.5,67.5C 10.8333,68.8333 9.16667,70.1667 7.5,71.5C 6.91395,71.2907 6.41395,70.9574 6,70.5C 6.19528,68.255 7.36194,66.4216 9.5,65C 7.77268,63.6106 6.43935,61.9439 5.5,60C 5.61348,58.7202 6.28014,57.8869 7.5,57.5C 9.16667,58.8333 10.8333,60.1667 12.5,61.5C 14.0712,59.585 16.0712,58.585 18.5,58.5C 18.415,60.9288 17.415,62.9288 15.5,64.5C 15.6236,65.1067 15.9569,65.44 16.5,65.5 Z"/></g>
<g><path style="opacity:1" fill="#ba9f93" d="M 86.5,67.5 C 87.609,67.5569 88.609,67.8902 89.5,68.5C 90.3065,69.7281 91.3065,70.7281 92.5,71.5C 91.0267,72.072 89.6934,72.9054 88.5,74C 90.2941,77.0877 91.9608,80.2544 93.5,83.5C 94.6507,84.731 95.8173,84.731 97,83.5C 99.4901,88.2999 100.99,87.6332 101.5,81.5C 103.213,82.6354 103.88,84.302 103.5,86.5C 103.411,89.7086 103.744,92.8752 104.5,96C 104.316,97.3756 103.649,98.2089 102.5,98.5C 99.6871,97.9182 97.0204,96.9182 94.5,95.5C 93.5994,93.2729 91.9328,92.2729 89.5,92.5C 89.631,87.1371 89.131,82.1371 88,77.5C 84.9466,74.9186 81.4466,73.0853 77.5,72C 78.8333,71 78.8333,70 77.5,69C 80.3508,67.7114 83.3508,67.2114 86.5,67.5 Z"/></g>
<g><path style="opacity:1" fill="#454440" d="M 36.5,60.5 C 35.563,68.0533 34.3963,75.72 33,83.5C 31.9563,82.3774 31.2896,81.0441 31,79.5C 30.8238,75.3123 30.3238,71.3123 29.5,67.5C 30.1981,61.5331 30.6981,55.5331 31,49.5C 33.3716,52.9099 35.2049,56.5766 36.5,60.5 Z"/></g>
<g><path style="opacity:1" fill="#706d71" d="M 32.5,57.5 C 35.1109,63.7316 34.9442,70.0649 32,76.5C 32.0125,70.1819 32.1792,63.8486 32.5,57.5 Z"/></g>
<g><path style="opacity:1" fill="#39302b" d="M 57.5,72.5 C 55.5879,74.6572 53.9213,76.9906 52.5,79.5C 50.2361,85.1831 49.4027,91.1831 50,97.5C 52.1203,98.6053 54.2869,98.6053 56.5,97.5C 56.9382,97.4346 57.2716,97.6012 57.5,98C 55.9632,99.1096 55.2965,100.61 55.5,102.5C 53.2075,102.244 51.0408,102.577 49,103.5C 48.0922,101.561 46.5922,100.561 44.5,100.5C 44.9109,106.964 45.9109,113.297 47.5,119.5C 45.9519,119.179 45.2852,118.179 45.5,116.5C 44.0222,116.762 42.6888,116.429 41.5,115.5C 41.7093,114.914 42.0426,114.414 42.5,114C 37.407,112.445 37.407,111.612 42.5,111.5C 42.5,109.5 42.5,107.5 42.5,105.5C 43.3227,102.023 43.8227,98.3563 44,94.5C 46.5684,90.9151 48.235,86.9151 49,82.5C 50.2824,77.7269 53.1157,74.3935 57.5,72.5 Z"/></g>
<g><path style="opacity:1" fill="#c0b1ad" d="M 92.5,71.5 C 93.7206,72.0283 94.8873,72.695 96,73.5C 98.0795,76.0652 99.9128,78.7318 101.5,81.5C 100.99,87.6332 99.4901,88.2999 97,83.5C 95.8173,84.731 94.6507,84.731 93.5,83.5C 91.9608,80.2544 90.2941,77.0877 88.5,74C 89.6934,72.9054 91.0267,72.072 92.5,71.5 Z"/></g>
<g><path style="opacity:1" fill="#a07b67" d="M 62.5,64.5 C 62.3398,66.1992 62.5065,67.8659 63,69.5C 63.6708,68.7476 64.5041,68.4142 65.5,68.5C 64.9423,69.7899 63.9423,70.6232 62.5,71C 65.0959,72.7972 64.7626,74.1305 61.5,75C 62.6537,75.9138 62.487,76.7471 61,77.5C 60.3457,76.3044 59.8457,76.3044 59.5,77.5C 60.1667,78.5 60.8333,79.5 61.5,80.5C 59.3295,83.2697 59.1628,86.2697 61,89.5C 70.4126,90.8974 79.9126,91.8974 89.5,92.5C 91.9328,92.2729 93.5994,93.2729 94.5,95.5C 92.1843,94.8401 89.851,94.1734 87.5,93.5C 84.5121,94.2172 81.6787,95.2172 79,96.5C 72.1352,91.4648 64.8019,90.4648 57,93.5C 55.5232,92.556 54.5232,91.2226 54,89.5C 53.1744,86.2072 52.6744,82.8738 52.5,79.5C 53.9213,76.9906 55.5879,74.6572 57.5,72.5C 58.531,71.7515 59.6976,71.0848 61,70.5C 61.1909,68.2922 61.6909,66.2922 62.5,64.5 Z"/></g>
<g><path style="opacity:1" fill="#b7917e" d="M 85.5,65.5 C 85.8333,66.1667 86.1667,66.8333 86.5,67.5C 83.3508,67.2114 80.3508,67.7114 77.5,69C 78.8333,70 78.8333,71 77.5,72C 81.4466,73.0853 84.9466,74.9186 88,77.5C 89.131,82.1371 89.631,87.1371 89.5,92.5C 79.9126,91.8974 70.4126,90.8974 61,89.5C 59.1628,86.2697 59.3295,83.2697 61.5,80.5C 60.8333,79.5 60.1667,78.5 59.5,77.5C 59.8457,76.3044 60.3457,76.3044 61,77.5C 62.487,76.7471 62.6537,75.9138 61.5,75C 64.7626,74.1305 65.0959,72.7972 62.5,71C 63.9423,70.6232 64.9423,69.7899 65.5,68.5C 66.5,68.1667 67.1667,67.5 67.5,66.5C 73.5907,66.7886 79.5907,66.4553 85.5,65.5 Z"/></g>
<g><path style="opacity:1" fill="#665422" d="M 121.5,68.5 C 122.163,70.6413 122.497,72.9746 122.5,75.5C 122.685,79.1411 122.019,82.4744 120.5,85.5C 121.292,79.8698 121.625,74.2031 121.5,68.5 Z"/></g>
<g><path style="opacity:1" fill="#ed3d29" d="M 24.5,79.5 C 18.1907,85.8047 11.5241,91.8047 4.5,97.5C 5.20079,99.1916 4.86745,100.858 3.5,102.5C 2.83333,102.5 2.16667,102.5 1.5,102.5C 1.5,102.167 1.5,101.833 1.5,101.5C 1.35055,100.448 1.51722,99.448 2,98.5C 2.33333,98.8333 2.66667,99.1667 3,99.5C 3.28857,92.792 3.95523,86.1253 5,79.5C 6.66667,76.8333 8.33333,74.1667 10,71.5C 10.6667,72.1667 11.3333,72.8333 12,73.5C 12.7096,72.0267 13.8762,71.3601 15.5,71.5C 16.5,71.5 17.5,71.5 18.5,71.5C 18.7475,69.1417 18.0808,67.1417 16.5,65.5C 17.5712,63.6229 18.9045,62.9563 20.5,63.5C 20.277,62.0333 19.9437,60.5333 19.5,59C 20.7441,58.5439 21.5774,59.0439 22,60.5C 22.414,60.0426 22.914,59.7093 23.5,59.5C 24.4967,66.1335 24.83,72.8002 24.5,79.5 Z"/></g>
<g><path style="opacity:1" fill="#ae9d3c" d="M 44.5,69.5 C 45.1471,70.2739 45.4805,71.2739 45.5,72.5C 43.8163,77.6765 43.1496,83.0098 43.5,88.5C 41.0672,88.7271 39.4006,87.7271 38.5,85.5C 39.5832,85.5394 40.5832,85.8728 41.5,86.5C 42.3045,80.7569 43.3045,75.0902 44.5,69.5 Z"/></g>
<g><path style="opacity:1" fill="#ea2b25" d="M 24.5,79.5 C 24.1771,85.69 24.5104,91.69 25.5,97.5C 25.8333,97.5 26.1667,97.5 26.5,97.5C 26.5,97.8333 26.5,98.1667 26.5,98.5C 26.6785,101.216 27.1785,103.883 28,106.5C 29.159,105.434 29.9924,105.767 30.5,107.5C 29.5384,109.986 28.7051,109.986 28,107.5C 25.733,108.289 23.3997,108.956 21,109.5C 15.2181,109.015 9.71811,107.681 4.5,105.5C 4.73731,104.209 4.40397,103.209 3.5,102.5C 4.86745,100.858 5.20079,99.1916 4.5,97.5C 11.5241,91.8047 18.1907,85.8047 24.5,79.5 Z"/></g>
<g><path style="opacity:1" fill="#7a1626" d="M 126.5,24.5 C 127.497,42.6591 127.83,60.9924 127.5,79.5C 127.5,84.5 127.5,89.5 127.5,94.5C 127.337,96.8568 127.503,99.1902 128,101.5C 129.019,96.6859 130.352,97.0193 132,102.5C 134.631,100.635 136.131,98.4684 136.5,96C 138.345,94.872 140.345,94.372 142.5,94.5C 142.5,93.5 142.5,92.5 142.5,91.5C 147.786,89.8314 149.786,86.1647 148.5,80.5C 148.471,77.7305 147.805,75.3972 146.5,73.5C 147.487,71.4489 148.82,69.7822 150.5,68.5C 150.74,79.261 149.906,89.9276 148,100.5C 146.928,103.218 145.762,105.885 144.5,108.5C 141.619,110.607 138.952,112.94 136.5,115.5C 135.642,118.62 134.642,121.62 133.5,124.5C 133.167,124.5 132.833,124.5 132.5,124.5C 131.167,122.833 129.833,121.167 128.5,119.5C 129.925,118.078 130.925,116.411 131.5,114.5C 131.631,113.624 131.298,112.957 130.5,112.5C 128.833,113.833 127.167,115.167 125.5,116.5C 124.126,115.289 122.626,114.289 121,113.5C 118.139,114.482 117.972,115.482 120.5,116.5C 121.355,117.531 122.022,118.697 122.5,120C 120.424,121.244 119.424,123.077 119.5,125.5C 121.553,125.598 123.22,124.931 124.5,123.5C 126.411,124.075 128.078,125.075 129.5,126.5C 128.551,128.737 127.884,131.071 127.5,133.5C 122.928,136.058 118.595,139.058 114.5,142.5C 116.006,134.824 117.34,127.324 118.5,120C 117.115,118.351 115.449,117.184 113.5,116.5C 116.523,111.792 120.023,107.458 124,103.5C 124.791,102.255 125.291,100.922 125.5,99.5C 126.481,74.8782 126.814,50.2115 126.5,25.5C 126.5,25.1667 126.5,24.8333 126.5,24.5 Z"/></g>
<g><path style="opacity:1" fill="#8c1728" d="M 146.5,73.5 C 147.805,75.3972 148.471,77.7305 148.5,80.5C 149.786,86.1647 147.786,89.8314 142.5,91.5C 142.5,92.5 142.5,93.5 142.5,94.5C 140.345,94.372 138.345,94.872 136.5,96C 136.131,98.4684 134.631,100.635 132,102.5C 130.352,97.0193 129.019,96.6859 128,101.5C 127.503,99.1902 127.337,96.8568 127.5,94.5C 128.222,94.9175 128.722,95.5842 129,96.5C 129.333,93.8333 129.667,91.1667 130,88.5C 130.333,89.5 130.667,90.5 131,91.5C 132.699,87.795 135.533,85.6283 139.5,85C 139.043,84.586 138.709,84.086 138.5,83.5C 139.853,82.4763 140.52,81.143 140.5,79.5C 141.833,79.5 143.167,79.5 144.5,79.5C 144.054,76.9899 144.72,74.9899 146.5,73.5 Z"/></g>
<g><path style="opacity:1" fill="#2a2624" d="M 107.5,85.5 C 107.5,86.5 107.5,87.5 107.5,88.5C 109.664,88.2785 111.33,87.2785 112.5,85.5C 110.699,88.2258 111.366,89.8924 114.5,90.5C 114.158,91.3382 113.492,91.6716 112.5,91.5C 111.417,91.5394 110.417,91.8728 109.5,92.5C 108.516,95.4281 108.183,98.4281 108.5,101.5C 106.336,101.721 104.67,102.721 103.5,104.5C 103.44,103.957 103.107,103.624 102.5,103.5C 101.749,104.376 101.249,105.376 101,106.5C 100.833,105.167 100.667,103.833 100.5,102.5C 100.585,100.667 101.252,99.3339 102.5,98.5C 103.649,98.2089 104.316,97.3756 104.5,96C 103.744,92.8752 103.411,89.7086 103.5,86.5C 105.195,87.8264 106.528,87.4931 107.5,85.5 Z"/></g>
<g><path style="opacity:1" fill="#87792a" d="M 40.5,92.5 C 42.4136,95.6843 43.0803,99.351 42.5,103.5C 41.7698,99.9394 41.1031,96.2728 40.5,92.5 Z"/></g>
<g><path style="opacity:1" fill="#523932" d="M 85.5,109.5 C 84.8333,109.5 84.1667,109.5 83.5,109.5C 82.5589,106.287 80.8923,103.62 78.5,101.5C 76.359,103.122 74.6924,105.122 73.5,107.5C 73.5,106.5 73.5,105.5 73.5,104.5C 68.0677,102.719 62.401,102.052 56.5,102.5C 56.5,104.167 56.5,105.833 56.5,107.5C 55.596,106.791 55.2627,105.791 55.5,104.5C 55.5,103.833 55.5,103.167 55.5,102.5C 55.2965,100.61 55.9632,99.1096 57.5,98C 57.2716,97.6012 56.9382,97.4346 56.5,97.5C 59.2869,96.5233 62.2869,96.19 65.5,96.5C 65.5,95.5 65.5,94.5 65.5,93.5C 69.3173,92.9818 72.3173,94.3151 74.5,97.5C 75.7722,98.046 77.1055,98.3793 78.5,98.5C 82.6009,96.5591 86.9343,95.7258 91.5,96C 89.3651,97.3811 87.0318,98.3811 84.5,99C 88.1667,100 91.8333,101 95.5,102C 96.1667,102.667 96.8333,103.333 97.5,104C 92.6235,103.981 87.7902,103.481 83,102.5C 82.6826,105.207 83.5159,107.54 85.5,109.5 Z"/></g>
<g><path style="opacity:1" fill="#9c2d1e" d="M 26.5,98.5 C 28.4168,101.331 30.0834,104.331 31.5,107.5C 31.1667,107.5 30.8333,107.5 30.5,107.5C 29.9924,105.767 29.159,105.434 28,106.5C 27.1785,103.883 26.6785,101.216 26.5,98.5 Z"/></g>
<g><path style="opacity:1" fill="#a46e66" d="M 83.5,109.5 C 84.1408,110.482 84.8075,111.482 85.5,112.5C 85.3764,113.107 85.0431,113.44 84.5,113.5C 81.7224,113.022 79.7224,114.022 78.5,116.5C 76.4852,113.705 73.9852,113.039 71,114.5C 70.3333,113.5 70.3333,112.5 71,111.5C 72.0848,110.264 72.9181,108.931 73.5,107.5C 74.6924,105.122 76.359,103.122 78.5,101.5C 80.8923,103.62 82.5589,106.287 83.5,109.5 Z"/></g>
<g><path style="opacity:1" fill="#8f6251" d="M 73.5,107.5 C 67.8333,110.167 62.1667,110.167 56.5,107.5C 56.5,105.833 56.5,104.167 56.5,102.5C 62.401,102.052 68.0677,102.719 73.5,104.5C 73.5,105.5 73.5,106.5 73.5,107.5 Z"/></g>
<g><path style="opacity:1" fill="#93702d" d="M 112.5,91.5 C 109.674,95.2807 108.841,99.614 110,104.5C 110.333,104.167 110.667,103.833 111,103.5C 111.167,104.333 111.333,105.167 111.5,106C 110.037,109.558 111.203,110.391 115,108.5C 116.244,106.424 118.077,105.424 120.5,105.5C 119.981,101.686 121.647,99.6856 125.5,99.5C 125.291,100.922 124.791,102.255 124,103.5C 120.023,107.458 116.523,111.792 113.5,116.5C 110.5,119.167 107.5,121.833 104.5,124.5C 104.5,122.833 104.5,121.167 104.5,119.5C 105.341,118.074 106.341,116.74 107.5,115.5C 109.648,115.611 109.981,114.944 108.5,113.5C 113.682,112.224 113.682,111.557 108.5,111.5C 108.5,108.167 108.5,104.833 108.5,101.5C 108.183,98.4281 108.516,95.4281 109.5,92.5C 110.417,91.8728 111.417,91.5394 112.5,91.5 Z"/></g>
<g><path style="opacity:0.761" fill="#b6b5b1" d="M -0.5,99.5 C -0.166667,99.5 0.166667,99.5 0.5,99.5C 0.32842,100.492 0.661754,101.158 1.5,101.5C 1.5,101.833 1.5,102.167 1.5,102.5C 4.31018,109.955 8.31018,116.622 13.5,122.5C 16.7923,127.46 20.7923,131.793 25.5,135.5C 28.8333,138.833 32.1667,142.167 35.5,145.5C 34.5,145.5 33.5,145.5 32.5,145.5C 30.8548,142.521 28.5214,140.188 25.5,138.5C 25.5,137.833 25.1667,137.5 24.5,137.5C 23.5,137.5 22.5,137.5 21.5,137.5C 22.338,133.348 20.6713,132.015 16.5,133.5C 17.3201,129.778 15.9868,127.445 12.5,126.5C 12.7148,124.821 12.0481,123.821 10.5,123.5C 10.5,123.167 10.5,122.833 10.5,122.5C 10.5,121.833 10.1667,121.5 9.5,121.5C 9.67158,120.508 9.33825,119.842 8.5,119.5C 8.67158,118.508 8.33825,117.842 7.5,117.5C 7.16667,116.167 6.83333,116.167 6.5,117.5C 4.76733,116.992 4.434,116.159 5.5,115C 4.50991,111.82 2.50991,109.653 -0.5,108.5C -0.5,105.5 -0.5,102.5 -0.5,99.5 Z"/></g>
<g><path style="opacity:1" fill="#603b1e" d="M 31.5,107.5 C 32.9063,107.973 33.573,108.973 33.5,110.5C 32.0937,110.027 31.427,109.027 31.5,107.5 Z"/></g>
<g><path style="opacity:1" fill="#7f584b" d="M 108.5,101.5 C 108.5,104.833 108.5,108.167 108.5,111.5C 106.65,110.305 105.65,110.971 105.5,113.5C 105.747,114.713 106.414,115.38 107.5,115.5C 106.341,116.74 105.341,118.074 104.5,119.5C 103.513,114.695 103.179,109.695 103.5,104.5C 104.67,102.721 106.336,101.721 108.5,101.5 Z"/></g>
<g><path style="opacity:0.012" fill="#bebcbb" d="M 152.5,97.5 C 151.613,101.208 151.446,104.875 152,108.5C 151.667,108.167 151.333,107.833 151,107.5C 150.535,108.931 149.701,110.097 148.5,111C 148.833,111.333 149.167,111.667 149.5,112C 147.377,113.803 145.377,115.637 143.5,117.5C 144.167,115.5 144.833,113.5 145.5,111.5C 148.739,107.268 151.072,102.601 152.5,97.5 Z"/></g>
<g><path style="opacity:1" fill="#d82727" d="M 1.5,102.5 C 2.16667,102.5 2.83333,102.5 3.5,102.5C 4.40397,103.209 4.73731,104.209 4.5,105.5C 9.71811,107.681 15.2181,109.015 21,109.5C 23.3997,108.956 25.733,108.289 28,107.5C 28.7051,109.986 29.5384,109.986 30.5,107.5C 30.8333,107.5 31.1667,107.5 31.5,107.5C 31.427,109.027 32.0937,110.027 33.5,110.5C 33.5674,111.959 33.2341,113.292 32.5,114.5C 29.6906,113.099 27.3572,113.766 25.5,116.5C 24.354,115.855 23.354,115.022 22.5,114C 20.6815,113.217 19.3482,113.717 18.5,115.5C 19.7113,116.874 20.7113,118.374 21.5,120C 20.6854,121.643 19.6854,123.143 18.5,124.5C 16.8333,123.833 15.1667,123.167 13.5,122.5C 8.31018,116.622 4.31018,109.955 1.5,102.5 Z"/></g>
<g><path style="opacity:1" fill="#251a12" d="M 108.5,111.5 C 113.682,111.557 113.682,112.224 108.5,113.5C 109.981,114.944 109.648,115.611 107.5,115.5C 106.414,115.38 105.747,114.713 105.5,113.5C 105.65,110.971 106.65,110.305 108.5,111.5 Z"/></g>
<g><path style="opacity:1" fill="#e7d06e" d="M 131.5,114.5 C 129.511,115.481 127.511,116.481 125.5,117.5C 123.945,117.278 122.611,116.611 121.5,115.5C 120.893,115.624 120.56,115.957 120.5,116.5C 117.972,115.482 118.139,114.482 121,113.5C 122.626,114.289 124.126,115.289 125.5,116.5C 127.167,115.167 128.833,113.833 130.5,112.5C 131.298,112.957 131.631,113.624 131.5,114.5 Z"/></g>
<g><path style="opacity:1" fill="#682f1c" d="M 36.5,114.5 C 39.8333,117.167 42.8333,120.167 45.5,123.5C 41.5,121.5 38.5,118.5 36.5,114.5 Z"/></g>
<g><path style="opacity:0.055" fill="#e9f9f7" d="M 6.5,117.5 C 6.83333,117.5 7.16667,117.5 7.5,117.5C 8.33825,117.842 8.67158,118.508 8.5,119.5C 7.16667,119.5 6.5,118.833 6.5,117.5 Z"/></g>
<g><path style="opacity:1" fill="#ebd13d" d="M 32.5,114.5 C 31.6109,116.736 30.2776,118.736 28.5,120.5C 29.7598,121.382 30.9264,122.382 32,123.5C 32.3008,126.091 31.1341,126.925 28.5,126C 27.646,124.978 26.646,124.145 25.5,123.5C 24.1255,124.711 22.6255,125.711 21,126.5C 19.699,126.361 18.8656,125.695 18.5,124.5C 19.6854,123.143 20.6854,121.643 21.5,120C 20.7113,118.374 19.7113,116.874 18.5,115.5C 19.3482,113.717 20.6815,113.217 22.5,114C 23.354,115.022 24.354,115.855 25.5,116.5C 27.3572,113.766 29.6906,113.099 32.5,114.5 Z"/></g>
<g><path style="opacity:1" fill="#efd11f" d="M 131.5,114.5 C 130.925,116.411 129.925,118.078 128.5,119.5C 127.167,120.833 125.833,122.167 124.5,123.5C 123.22,124.931 121.553,125.598 119.5,125.5C 119.424,123.077 120.424,121.244 122.5,120C 122.022,118.697 121.355,117.531 120.5,116.5C 120.56,115.957 120.893,115.624 121.5,115.5C 122.611,116.611 123.945,117.278 125.5,117.5C 127.511,116.481 129.511,115.481 131.5,114.5 Z"/></g>
<g><path style="opacity:1" fill="#6f4541" d="M 56.5,107.5 C 62.1667,110.167 67.8333,110.167 73.5,107.5C 72.9181,108.931 72.0848,110.264 71,111.5C 70.3333,112.5 70.3333,113.5 71,114.5C 73.9852,113.039 76.4852,113.705 78.5,116.5C 79.7224,114.022 81.7224,113.022 84.5,113.5C 84.7512,115.17 85.4178,116.67 86.5,118C 92.1396,117.614 94.8062,120.114 94.5,125.5C 93.0048,125.989 91.6715,126.655 90.5,127.5C 89.0351,128.406 88.0351,129.739 87.5,131.5C 83.9554,133.436 80.2887,133.769 76.5,132.5C 80.0229,131.858 83.3562,130.692 86.5,129C 84.3215,128.558 83.6548,127.558 84.5,126C 80.5,125.333 76.5,125.333 72.5,126C 72.8333,126.333 73.1667,126.667 73.5,127C 68.493,128.606 64.8263,127.106 62.5,122.5C 63.5109,119.365 65.6775,117.699 69,117.5C 68.8475,115.481 68.3475,113.481 67.5,111.5C 64.4318,111.453 61.4318,110.953 58.5,110C 57.244,109.583 56.5774,108.75 56.5,107.5 Z"/></g>
<g><path style="opacity:1" fill="#876455" d="M 52.5,79.5 C 52.6744,82.8738 53.1744,86.2072 54,89.5C 54.5232,91.2226 55.5232,92.556 57,93.5C 64.8019,90.4648 72.1352,91.4648 79,96.5C 81.6787,95.2172 84.5121,94.2172 87.5,93.5C 89.851,94.1734 92.1843,94.8401 94.5,95.5C 97.0204,96.9182 99.6871,97.9182 102.5,98.5C 101.252,99.3339 100.585,100.667 100.5,102.5C 100.667,103.833 100.833,105.167 101,106.5C 101.249,105.376 101.749,104.376 102.5,103.5C 103.107,103.624 103.44,103.957 103.5,104.5C 103.179,109.695 103.513,114.695 104.5,119.5C 104.5,121.167 104.5,122.833 104.5,124.5C 102.353,128.949 100.019,133.283 97.5,137.5C 96.9035,136.065 96.9035,134.398 97.5,132.5C 96.5,132.5 95.5,132.5 94.5,132.5C 94.2104,138.79 90.8771,142.123 84.5,142.5C 86.4325,140.727 87.7659,138.561 88.5,136C 88.1667,135.667 87.8333,135.333 87.5,135C 91.5125,133.841 92.5125,131.341 90.5,127.5C 91.6715,126.655 93.0048,125.989 94.5,125.5C 95.7603,125.201 96.927,125.201 98,125.5C 98.3918,122.373 99.2251,119.373 100.5,116.5C 99.5791,114.244 97.9124,113.244 95.5,113.5C 95.5,112.5 95.5,111.5 95.5,110.5C 92.0613,110.747 88.728,110.414 85.5,109.5C 83.5159,107.54 82.6826,105.207 83,102.5C 87.7902,103.481 92.6235,103.981 97.5,104C 96.8333,103.333 96.1667,102.667 95.5,102C 91.8333,101 88.1667,100 84.5,99C 87.0318,98.3811 89.3651,97.3811 91.5,96C 86.9343,95.7258 82.6009,96.5591 78.5,98.5C 77.1055,98.3793 75.7722,98.046 74.5,97.5C 72.3173,94.3151 69.3173,92.9818 65.5,93.5C 65.5,94.5 65.5,95.5 65.5,96.5C 62.2869,96.19 59.2869,96.5233 56.5,97.5C 54.2869,98.6053 52.1203,98.6053 50,97.5C 49.4027,91.1831 50.2361,85.1831 52.5,79.5 Z"/></g>
<g><path style="opacity:0.294" fill="#bec0ba" d="M 143.5,117.5 C 143.715,119.179 143.048,120.179 141.5,120.5C 141.427,118.973 142.094,117.973 143.5,117.5 Z"/></g>
<g><path style="opacity:0.016" fill="#807b7e" d="M 9.5,121.5 C 10.1667,121.5 10.5,121.833 10.5,122.5C 10.5,122.833 10.5,123.167 10.5,123.5C 10.427,125.027 11.0937,126.027 12.5,126.5C 10.7333,130.721 8.56666,134.054 6,136.5C 5.66079,133.964 5.16079,131.464 4.5,129C 5.97341,126.991 7.64007,124.491 9.5,121.5 Z"/></g>
<g><path style="opacity:1" fill="#8e584c" d="M 83.5,109.5 C 84.1667,109.5 84.8333,109.5 85.5,109.5C 88.728,110.414 92.0613,110.747 95.5,110.5C 95.5,111.5 95.5,112.5 95.5,113.5C 97.9124,113.244 99.5791,114.244 100.5,116.5C 99.2251,119.373 98.3918,122.373 98,125.5C 96.927,125.201 95.7603,125.201 94.5,125.5C 94.8062,120.114 92.1396,117.614 86.5,118C 85.4178,116.67 84.7512,115.17 84.5,113.5C 85.0431,113.44 85.3764,113.107 85.5,112.5C 84.8075,111.482 84.1408,110.482 83.5,109.5 Z"/></g>
<g><path style="opacity:0.004" fill="#e1dedb" d="M 141.5,121.5 C 141.657,122.873 141.49,124.207 141,125.5C 140.617,124.944 140.117,124.611 139.5,124.5C 139.285,122.821 139.952,121.821 141.5,121.5 Z"/></g>
<g><path style="opacity:1" fill="#d7c14b" d="M 128.5,119.5 C 129.833,121.167 131.167,122.833 132.5,124.5C 132.027,125.906 131.027,126.573 129.5,126.5C 128.078,125.075 126.411,124.075 124.5,123.5C 125.833,122.167 127.167,120.833 128.5,119.5 Z"/></g>
<g><path style="opacity:1" fill="#8d1925" d="M 113.5,116.5 C 115.449,117.184 117.115,118.351 118.5,120C 117.34,127.324 116.006,134.824 114.5,142.5C 111.603,144.986 108.603,147.319 105.5,149.5C 104.728,148.306 103.728,147.306 102.5,146.5C 98.5959,144.818 96.9292,141.818 97.5,137.5C 100.019,133.283 102.353,128.949 104.5,124.5C 107.5,121.833 110.5,119.167 113.5,116.5 Z"/></g>
<g><path style="opacity:1" fill="#3a0f11" d="M 145.5,111.5 C 144.833,113.5 144.167,115.5 143.5,117.5C 142.094,117.973 141.427,118.973 141.5,120.5C 141.5,120.833 141.5,121.167 141.5,121.5C 139.952,121.821 139.285,122.821 139.5,124.5C 138.448,124.351 137.448,124.517 136.5,125C 133.631,128.038 130.631,130.871 127.5,133.5C 127.884,131.071 128.551,128.737 129.5,126.5C 131.027,126.573 132.027,125.906 132.5,124.5C 132.833,124.5 133.167,124.5 133.5,124.5C 137.737,120.339 141.737,116.006 145.5,111.5 Z"/></g>
<g><path style="opacity:1" fill="#bb2225" d="M 33.5,110.5 C 35.2624,111.262 36.2624,112.596 36.5,114.5C 38.5,118.5 41.5,121.5 45.5,123.5C 46.8333,124.5 48.1667,125.5 49.5,126.5C 52.291,131.211 54.291,136.211 55.5,141.5C 55.5,142.167 55.1667,142.5 54.5,142.5C 51.8333,144.5 49.5,146.833 47.5,149.5C 40.1303,144.82 32.797,140.153 25.5,135.5C 20.7923,131.793 16.7923,127.46 13.5,122.5C 15.1667,123.167 16.8333,123.833 18.5,124.5C 18.8656,125.695 19.699,126.361 21,126.5C 22.6255,125.711 24.1255,124.711 25.5,123.5C 26.646,124.145 27.646,124.978 28.5,126C 31.1341,126.925 32.3008,126.091 32,123.5C 30.9264,122.382 29.7598,121.382 28.5,120.5C 30.2776,118.736 31.6109,116.736 32.5,114.5C 33.2341,113.292 33.5674,111.959 33.5,110.5 Z"/></g>
<g><path style="opacity:0.62" fill="#9e9f9e" d="M 139.5,124.5 C 137.3,126.262 136.133,128.596 136,131.5C 134.927,130.72 133.76,130.887 132.5,132C 131.267,133.667 129.933,135.167 128.5,136.5C 127.833,136.5 127.5,136.833 127.5,137.5C 126.395,138.6 125.062,139.267 123.5,139.5C 124.415,137.246 125.748,135.246 127.5,133.5C 130.631,130.871 133.631,128.038 136.5,125C 137.448,124.517 138.448,124.351 139.5,124.5 Z"/></g>
<g><path style="opacity:0.004" fill="#3f3e3e" d="M 16.5,133.5 C 15.8333,134.167 15.8333,134.167 16.5,133.5 Z"/></g>
<g><path style="opacity:0.008" fill="#7d7d80" d="M 128.5,136.5 C 130.332,137.14 130.665,138.14 129.5,139.5C 128.478,139.145 127.811,138.478 127.5,137.5C 128.167,137.5 128.5,137.167 128.5,136.5 Z"/></g>
<g><path style="opacity:0.029" fill="#252123" d="M 21.5,137.5 C 22.5,137.5 23.5,137.5 24.5,137.5C 25.1667,137.5 25.5,137.833 25.5,138.5C 23.1285,142.941 20.1285,143.441 16.5,140C 18.0779,138.906 19.7446,138.072 21.5,137.5 Z"/></g>
<g><path style="opacity:1" fill="#8f5e54" d="M 55.5,104.5 C 55.2627,105.791 55.596,106.791 56.5,107.5C 56.5774,108.75 57.244,109.583 58.5,110C 61.4318,110.953 64.4318,111.453 67.5,111.5C 68.3475,113.481 68.8475,115.481 69,117.5C 65.6775,117.699 63.5109,119.365 62.5,122.5C 64.8263,127.106 68.493,128.606 73.5,127C 73.1667,126.667 72.8333,126.333 72.5,126C 76.5,125.333 80.5,125.333 84.5,126C 83.6548,127.558 84.3215,128.558 86.5,129C 83.3562,130.692 80.0229,131.858 76.5,132.5C 80.2887,133.769 83.9554,133.436 87.5,131.5C 88.0351,129.739 89.0351,128.406 90.5,127.5C 92.5125,131.341 91.5125,133.841 87.5,135C 87.8333,135.333 88.1667,135.667 88.5,136C 87.7659,138.561 86.4325,140.727 84.5,142.5C 82.5858,144.286 80.2525,145.286 77.5,145.5C 71.8723,145.792 67.2056,143.959 63.5,140C 61.567,139.749 59.7337,139.249 58,138.5C 55.6673,136.022 55.5006,133.689 57.5,131.5C 55.0197,130.585 54.3531,129.085 55.5,127C 54.8105,123.053 53.6438,119.22 52,115.5C 51.5012,111.514 51.3345,107.514 51.5,103.5C 52.9587,103.433 54.2921,103.766 55.5,104.5 Z"/></g>
<g><path style="opacity:0.004" fill="#929393" d="M 126.5,139.5 C 127.833,140.167 127.833,140.167 126.5,139.5 Z"/></g>
<g><path style="opacity:0.004" fill="#0f0f0b" d="M 127.5,141.5 C 128.833,142.167 128.833,142.167 127.5,141.5 Z"/></g>
<g><path style="opacity:1" fill="#3c0e0e" d="M 127.5,133.5 C 125.748,135.246 124.415,137.246 123.5,139.5C 118.25,142.945 113.25,146.612 108.5,150.5C 107.209,150.737 106.209,150.404 105.5,149.5C 108.603,147.319 111.603,144.986 114.5,142.5C 118.595,139.058 122.928,136.058 127.5,133.5 Z"/></g>
<g><path style="opacity:0.004" fill="#161414" d="M 28.5,143.5 C 29.8333,144.167 29.8333,144.167 28.5,143.5 Z"/></g>
<g><path style="opacity:0.024" fill="#9b9b9d" d="M 119.5,144.5 C 120.5,144.5 121.5,144.5 122.5,144.5C 122.853,146.635 122.02,147.968 120,148.5C 118.97,148.164 118.47,147.497 118.5,146.5C 119.338,146.158 119.672,145.492 119.5,144.5 Z"/></g>
<g><path style="opacity:0.005" fill="#2b2729" d="M 6.5,145.5 C 8.97323,145.947 9.13989,146.947 7,148.5C 5.27165,147.648 5.10498,146.648 6.5,145.5 Z"/></g>
<g><path style="opacity:0.004" fill="#595558" d="M 15.5,144.5 C 18.0414,145.623 18.0414,146.956 15.5,148.5C 14.3744,147.192 14.3744,145.858 15.5,144.5 Z"/></g>
<g><path style="opacity:0.004" fill="#7d797b" d="M 23.5,145.5 C 24.8333,146.167 24.8333,146.167 23.5,145.5 Z"/></g>
<g><path style="opacity:1" fill="#661614" d="M 25.5,135.5 C 32.797,140.153 40.1303,144.82 47.5,149.5C 45.9724,150.309 44.3057,150.976 42.5,151.5C 42.6716,150.508 42.3382,149.842 41.5,149.5C 41.0269,148.094 40.0269,147.427 38.5,147.5C 37.7095,146.599 36.7095,145.932 35.5,145.5C 32.1667,142.167 28.8333,138.833 25.5,135.5 Z"/></g>
<g><path style="opacity:0.043" fill="#bdbdba" d="M 123.5,139.5 C 124.007,140.859 125.007,141.859 126.5,142.5C 125.234,143.362 123.901,144.029 122.5,144.5C 121.5,141.833 120.5,141.833 119.5,144.5C 118.662,144.842 118.328,145.508 118.5,146.5C 115.329,147.436 112.662,149.103 110.5,151.5C 109.508,151.672 108.842,151.338 108.5,150.5C 113.25,146.612 118.25,142.945 123.5,139.5 Z M 122.5,144.5 C 121.5,144.5 120.5,144.5 119.5,144.5C 120.5,141.833 121.5,141.833 122.5,144.5 Z"/></g>
<g><path style="opacity:0.006" fill="#151314" d="M 28.5,144.5 C 29.0899,145.766 29.5899,147.099 30,148.5C 30.3826,147.944 30.8826,147.611 31.5,147.5C 31.5,149.167 31.5,150.833 31.5,152.5C 30.1667,152.833 30.1667,153.167 31.5,153.5C 31.5,154.167 31.5,154.833 31.5,155.5C 30.8333,155.5 30.1667,155.5 29.5,155.5C 29.2642,153.951 29.2642,152.451 29.5,151C 28.3333,150.5 27.5,149.667 27,148.5C 26.2828,149.044 25.7828,149.711 25.5,150.5C 23.7973,149.34 23.1307,150.007 23.5,152.5C 23.1667,152.5 22.8333,152.5 22.5,152.5C 21.4991,151.211 21.6658,149.878 23,148.5C 24.9917,147.335 26.825,146.002 28.5,144.5 Z M 25.5,150.5 C 25.1667,151.5 24.5,152.167 23.5,152.5C 23.1307,150.007 23.7973,149.34 25.5,150.5 Z"/></g>
<g><path style="opacity:0.031" fill="#d3d6d5" d="M 35.5,145.5 C 36.7095,145.932 37.7095,146.599 38.5,147.5C 37.0697,148.537 35.403,149.204 33.5,149.5C 33.2627,148.209 33.596,147.209 34.5,146.5C 34.8333,147.833 35.1667,147.833 35.5,146.5C 35.5,146.167 35.5,145.833 35.5,145.5 Z"/></g>
<g><path style="opacity:0.004" fill="#808183" d="M 126.5,152.5 C 125.5,152.5 124.5,152.5 123.5,152.5C 125.774,145.836 126.774,145.836 126.5,152.5 Z"/></g>
<g><path style="opacity:0.017" fill="#5e5a59" d="M 32.5,145.5 C 33.5,145.5 34.5,145.5 35.5,145.5C 35.5,145.833 35.5,146.167 35.5,146.5C 35.1667,146.5 34.8333,146.5 34.5,146.5C 33.596,147.209 33.2627,148.209 33.5,149.5C 35.403,149.204 37.0697,148.537 38.5,147.5C 40.0269,147.427 41.0269,148.094 41.5,149.5C 39.5,149.5 38.5,150.5 38.5,152.5C 37.1667,152.833 35.8333,153.167 34.5,153.5C 32.7761,153.461 32.4427,153.794 33.5,154.5C 33.1583,155.338 32.4916,155.672 31.5,155.5C 31.5,154.833 31.5,154.167 31.5,153.5C 31.5,153.167 31.5,152.833 31.5,152.5C 31.5,150.833 31.5,149.167 31.5,147.5C 31.3284,146.508 31.6618,145.842 32.5,145.5 Z"/></g>
<g><path style="opacity:0.494" fill="#ddd8d8" d="M 41.5,149.5 C 42.3382,149.842 42.6716,150.508 42.5,151.5C 41.1667,151.833 39.8333,152.167 38.5,152.5C 38.5,150.5 39.5,149.5 41.5,149.5 Z"/></g>
<g><path style="opacity:1" fill="#714e42" d="M 55.5,102.5 C 55.5,103.167 55.5,103.833 55.5,104.5C 54.2921,103.766 52.9587,103.433 51.5,103.5C 51.3345,107.514 51.5012,111.514 52,115.5C 53.6438,119.22 54.8105,123.053 55.5,127C 54.3531,129.085 55.0197,130.585 57.5,131.5C 55.5006,133.689 55.6673,136.022 58,138.5C 59.7337,139.249 61.567,139.749 63.5,140C 67.2056,143.959 71.8723,145.792 77.5,145.5C 80.2525,145.286 82.5858,144.286 84.5,142.5C 90.8771,142.123 94.2104,138.79 94.5,132.5C 95.5,132.5 96.5,132.5 97.5,132.5C 96.9035,134.398 96.9035,136.065 97.5,137.5C 96.9292,141.818 98.5959,144.818 102.5,146.5C 103.455,148.746 104.122,151.079 104.5,153.5C 105.598,158.092 106.265,162.759 106.5,167.5C 104.827,162.005 103.327,156.338 102,150.5C 100.961,149.29 99.7942,148.29 98.5,147.5C 98.5386,146.244 98.0386,145.244 97,144.5C 94.1488,151.822 89.9821,158.156 84.5,163.5C 74.101,160.969 65.2676,155.636 58,147.5C 57.4338,145.277 56.6005,143.277 55.5,141.5C 54.291,136.211 52.291,131.211 49.5,126.5C 50.0431,126.44 50.3764,126.107 50.5,125.5C 48.585,123.929 47.585,121.929 47.5,119.5C 45.9109,113.297 44.9109,106.964 44.5,100.5C 46.5922,100.561 48.0922,101.561 49,103.5C 51.0408,102.577 53.2075,102.244 55.5,102.5 Z"/></g>
<g><path style="opacity:0.004" fill="#8a8b8c" d="M 134.5,151.5 C 135.833,152.167 135.833,152.167 134.5,151.5 Z"/></g>
<g><path style="opacity:0.004" fill="#1b1718" d="M 19.5,154.5 C 19.1667,154.5 18.8333,154.5 18.5,154.5C 17.537,153.637 17.537,152.97 18.5,152.5C 19.2975,152.957 19.6309,153.624 19.5,154.5 Z"/></g>
<g><path style="opacity:0.042" fill="#6b6666" d="M 25.5,150.5 C 25.9909,152.589 25.9909,154.589 25.5,156.5C 24.8333,156.5 24.5,156.833 24.5,157.5C 23.391,157.557 22.391,157.89 21.5,158.5C 20.7659,157.292 20.4326,155.959 20.5,154.5C 20.8333,153.5 21.5,152.833 22.5,152.5C 22.8333,152.5 23.1667,152.5 23.5,152.5C 24.5,152.167 25.1667,151.5 25.5,150.5 Z"/></g>
<g><path style="opacity:0.005" fill="#1b1717" d="M 15.5,154.5 C 16.5,154.5 17.5,154.5 18.5,154.5C 18.8333,157.167 19.1667,157.167 19.5,154.5C 19.8333,154.5 20.1667,154.5 20.5,154.5C 20.4326,155.959 20.7659,157.292 21.5,158.5C 21.1667,158.5 20.8333,158.5 20.5,158.5C 19.5,158.5 18.5,158.5 17.5,158.5C 17.1583,157.662 16.4916,157.328 15.5,157.5C 15.5,156.5 15.5,155.5 15.5,154.5 Z"/></g>
<g><path style="opacity:0.025" fill="#615d5e" d="M 6.5,154.5 C 6.5,155.833 6.5,157.167 6.5,158.5C 6.5,158.833 6.5,159.167 6.5,159.5C 5.83333,159.5 5.5,159.833 5.5,160.5C 3.5,160.833 1.5,161.167 -0.5,161.5C -0.5,160.5 -0.5,159.5 -0.5,158.5C 1.39037,158.703 2.89037,158.037 4,156.5C 4.15149,153.881 4.98482,151.547 6.5,149.5C 7.23194,150.881 7.23194,152.548 6.5,154.5 Z"/></g>
<g><path style="opacity:1" fill="#586482" d="M 55.5,141.5 C 56.6005,143.277 57.4338,145.277 58,147.5C 65.2676,155.636 74.101,160.969 84.5,163.5C 84.5,164.167 84.5,164.833 84.5,165.5C 80.351,164.92 76.6843,165.586 73.5,167.5C 72.8333,167.5 72.5,167.833 72.5,168.5C 69.7563,171.646 67.7563,175.313 66.5,179.5C 64.5541,180.254 63.7207,181.588 64,183.5C 64.6667,182.833 65.3333,182.167 66,181.5C 68,183.5 70,185.5 72,187.5C 73.3537,191.363 73.8537,195.363 73.5,199.5C 68.1667,199.5 62.8333,199.5 57.5,199.5C 57.3339,193.824 57.5006,188.157 58,182.5C 58.4135,186.656 59.4135,190.656 61,194.5C 61.1667,193.333 61.3333,192.167 61.5,191C 60.0949,184.879 58.9282,178.713 58,172.5C 57.6264,170.509 56.793,168.842 55.5,167.5C 53.4393,159.25 53.1059,150.917 54.5,142.5C 55.1667,142.5 55.5,142.167 55.5,141.5 Z"/></g>
<g><path style="opacity:0.031" fill="#868281" d="M 123.5,152.5 C 124.314,154.273 125.648,154.773 127.5,154C 126.944,153.617 126.611,153.117 126.5,152.5C 127.627,154.437 129.627,156.27 132.5,158C 133.793,158.49 135.127,158.657 136.5,158.5C 134.989,160.441 132.989,160.941 130.5,160C 127.023,158.2 123.356,156.867 119.5,156C 118.429,155.148 117.429,154.315 116.5,153.5C 118.308,149.683 120.141,149.683 122,153.5C 122.383,152.944 122.883,152.611 123.5,152.5 Z M 123.5,152.5 C 124.5,152.5 125.5,152.5 126.5,152.5C 126.611,153.117 126.944,153.617 127.5,154C 125.648,154.773 124.314,154.273 123.5,152.5 Z"/></g>
<g><path style="opacity:0.017" fill="#8e857e" d="M 146.5,160.5 C 144.5,160.5 142.5,160.5 140.5,160.5C 140.5,159.5 140.5,158.5 140.5,157.5C 140.735,156.903 141.235,156.57 142,156.5C 143.699,157.704 145.199,159.038 146.5,160.5 Z"/></g>
<g><path style="opacity:1" fill="#806036" d="M 54.5,142.5 C 53.1059,150.917 53.4393,159.25 55.5,167.5C 55.5962,175.179 55.9295,182.846 56.5,190.5C 55.892,185.407 54.5586,180.407 52.5,175.5C 46.9854,175.993 42.8187,173.993 40,169.5C 36.9697,171.231 34.1364,173.231 31.5,175.5C 30.2638,176.246 28.9305,176.579 27.5,176.5C 28.8261,184.123 29.8261,191.79 30.5,199.5C 30.1667,199.5 29.8333,199.5 29.5,199.5C 29.051,196.359 28.051,193.359 26.5,190.5C 27.6054,186.703 27.6054,182.87 26.5,179C 26.6313,176.747 27.1313,174.581 28,172.5C 29.016,173.634 29.6827,173.301 30,171.5C 30.4992,166.845 30.6658,162.179 30.5,157.5C 28.8333,157.5 27.1667,157.5 25.5,157.5C 25.5,157.167 25.5,156.833 25.5,156.5C 26.8333,156.167 28.1667,155.833 29.5,155.5C 30.1667,155.5 30.8333,155.5 31.5,155.5C 32.4916,155.672 33.1583,155.338 33.5,154.5C 34.1667,154.5 34.5,154.167 34.5,153.5C 35.8333,153.167 37.1667,152.833 38.5,152.5C 39.8333,152.167 41.1667,151.833 42.5,151.5C 44.3057,150.976 45.9724,150.309 47.5,149.5C 49.5,146.833 51.8333,144.5 54.5,142.5 Z"/></g>
<g><path style="opacity:0.012" fill="#1b1818" d="M 6.5,154.5 C 8.16667,154.5 9.83333,154.5 11.5,154.5C 11.5,154.833 11.5,155.167 11.5,155.5C 9.06732,156.548 9.06732,157.214 11.5,157.5C 11.7135,159.144 11.3802,160.644 10.5,162C 8.34147,162.912 6.17481,163.745 4,164.5C 3.60123,164.272 3.43456,163.938 3.5,163.5C 4.55114,162.778 5.21781,161.778 5.5,160.5C 5.5,159.833 5.83333,159.5 6.5,159.5C 7.83333,159.167 7.83333,158.833 6.5,158.5C 6.5,157.167 6.5,155.833 6.5,154.5 Z"/></g>
<g><path style="opacity:0.993" fill="#a28a5e" d="M 102.5,146.5 C 103.728,147.306 104.728,148.306 105.5,149.5C 106.209,150.404 107.209,150.737 108.5,150.5C 108.842,151.338 109.508,151.672 110.5,151.5C 112.421,152.363 114.421,153.029 116.5,153.5C 117.429,154.315 118.429,155.148 119.5,156C 123.356,156.867 127.023,158.2 130.5,160C 132.989,160.941 134.989,160.441 136.5,158.5C 136.369,157.761 136.536,157.094 137,156.5C 137.667,157.833 138.333,159.167 139,160.5C 139.232,159.263 139.732,158.263 140.5,157.5C 140.5,158.5 140.5,159.5 140.5,160.5C 142.343,161.283 144.343,161.95 146.5,162.5C 147.463,162.03 147.463,161.363 146.5,160.5C 147.391,159.89 148.391,159.557 149.5,159.5C 149.5,159.833 149.5,160.167 149.5,160.5C 149.275,162.716 150.108,164.383 152,165.5C 152.497,162.854 152.664,160.187 152.5,157.5C 152.833,157.5 153.167,157.5 153.5,157.5C 153.5,161.167 153.5,164.833 153.5,168.5C 152.527,170.948 152.194,173.615 152.5,176.5C 150.115,177.292 148.115,178.626 146.5,180.5C 146.179,178.952 145.179,178.285 143.5,178.5C 143.663,180.857 143.497,183.19 143,185.5C 141.933,180.632 140.266,175.966 138,171.5C 134.28,169.233 131.113,166.4 128.5,163C 124.427,161.906 120.76,160.072 117.5,157.5C 115.997,158.59 115.664,159.757 116.5,161C 115.338,161.827 114.171,162.66 113,163.5C 111.826,162.456 110.659,161.456 109.5,160.5C 108.369,157.75 106.703,155.417 104.5,153.5C 104.122,151.079 103.455,148.746 102.5,146.5 Z M 140.5,160.5 C 142.5,160.5 144.5,160.5 146.5,160.5C 147.463,161.363 147.463,162.03 146.5,162.5C 144.343,161.95 142.343,161.283 140.5,160.5 Z"/></g>
<g><path style="opacity:0.09" fill="#86878a" d="M 152.5,157.5 C 152.664,160.187 152.497,162.854 152,165.5C 150.108,164.383 149.275,162.716 149.5,160.5C 150.833,160.167 150.833,159.833 149.5,159.5C 150.29,158.599 151.29,157.932 152.5,157.5 Z"/></g>
<g><path style="opacity:1" fill="#6d7e9c" d="M 98.5,147.5 C 98.9896,150.655 99.6562,153.655 100.5,156.5C 100.214,163.888 99.3802,171.221 98,178.5C 96.2157,178.736 94.3823,178.736 92.5,178.5C 91.5903,175.008 89.9236,172.008 87.5,169.5C 87.2624,167.596 86.2624,166.262 84.5,165.5C 84.5,164.833 84.5,164.167 84.5,163.5C 89.9821,158.156 94.1488,151.822 97,144.5C 98.0386,145.244 98.5386,146.244 98.5,147.5 Z"/></g>
<g><path style="opacity:1" fill="#9a7f4b" d="M 146.5,180.5 C 144.896,183.403 143.896,186.737 143.5,190.5C 141.548,184.956 139.048,179.623 136,174.5C 134.045,173.547 132.378,172.213 131,170.5C 130.586,170.957 130.086,171.291 129.5,171.5C 128.548,169.955 128.215,168.288 128.5,166.5C 127.209,166.263 126.209,166.596 125.5,167.5C 123.629,167.859 122.129,168.859 121,170.5C 120.57,173.192 120.737,175.859 121.5,178.5C 124.186,179.843 126.852,181.176 129.5,182.5C 128.167,182.5 126.833,182.5 125.5,182.5C 125.365,184.554 126.032,186.221 127.5,187.5C 126.5,187.5 125.5,187.5 124.5,187.5C 124.587,184.402 124.087,184.068 123,186.5C 121.757,185.664 120.59,185.997 119.5,187.5C 120.833,188.62 121.333,189.953 121,191.5C 119.174,189.077 117.174,186.744 115,184.5C 113.543,179.158 111.71,173.991 109.5,169C 110.585,166.211 110.585,163.378 109.5,160.5C 110.659,161.456 111.826,162.456 113,163.5C 114.171,162.66 115.338,161.827 116.5,161C 115.664,159.757 115.997,158.59 117.5,157.5C 120.76,160.072 124.427,161.906 128.5,163C 131.113,166.4 134.28,169.233 138,171.5C 140.266,175.966 141.933,180.632 143,185.5C 143.497,183.19 143.663,180.857 143.5,178.5C 145.179,178.285 146.179,178.952 146.5,180.5 Z"/></g>
<g><path style="opacity:0.984" fill="#817056" d="M 15.5,154.5 C 15.5,155.5 15.5,156.5 15.5,157.5C 15.8417,158.338 16.5084,158.672 17.5,158.5C 17.8417,159.338 18.5084,159.672 19.5,159.5C 13.7187,164.206 7.05205,166.539 -0.5,166.5C -0.5,166.167 -0.5,165.833 -0.5,165.5C 0.314913,164.571 1.14825,163.571 2,162.5C 2.38258,163.056 2.88258,163.389 3.5,163.5C 3.43456,163.938 3.60123,164.272 4,164.5C 6.17481,163.745 8.34147,162.912 10.5,162C 11.3802,160.644 11.7135,159.144 11.5,157.5C 12.5063,157.062 12.5063,156.396 11.5,155.5C 11.5,155.167 11.5,154.833 11.5,154.5C 13.2984,155.463 14.6317,154.796 15.5,152.5C 16.463,152.97 16.463,153.637 15.5,154.5 Z"/></g>
<g><path style="opacity:1" fill="#3e2a19" d="M 84.5,165.5 C 86.2624,166.262 87.2624,167.596 87.5,169.5C 87.5,169.833 87.5,170.167 87.5,170.5C 85.0582,170.881 84.3915,170.214 85.5,168.5C 83.6351,167.334 81.9684,167.667 80.5,169.5C 82.6561,173.139 81.8228,173.472 78,170.5C 76.7025,171.784 75.5358,171.617 74.5,170C 82.7281,166.782 82.3948,165.949 73.5,167.5C 76.6843,165.586 80.351,164.92 84.5,165.5 Z"/></g>
<g><path style="opacity:1" fill="#211f24" d="M 87.5,169.5 C 89.9236,172.008 91.5903,175.008 92.5,178.5C 90.2048,177.525 88.2048,176.192 86.5,174.5C 84.3141,174.489 83.4808,173.489 84,171.5C 86.1777,174.468 87.3444,174.135 87.5,170.5C 87.5,170.167 87.5,169.833 87.5,169.5 Z"/></g>
<g><path style="opacity:1" fill="#755e1e" d="M 87.5,170.5 C 87.3444,174.135 86.1777,174.468 84,171.5C 83.4808,173.489 84.3141,174.489 86.5,174.5C 86.5,178.167 86.5,181.833 86.5,185.5C 84.9743,187.323 83.3076,189.156 81.5,191C 82.8084,191.824 84.3084,192.324 86,192.5C 86.4922,191.451 86.3256,190.451 85.5,189.5C 85.9569,188.702 86.6236,188.369 87.5,188.5C 88.371,192.182 89.371,195.848 90.5,199.5C 86.8333,199.5 83.1667,199.5 79.5,199.5C 76.8777,195.012 76.8777,190.512 79.5,186C 78.6777,183.566 78.3444,181.066 78.5,178.5C 79.675,178.719 80.675,178.386 81.5,177.5C 78.7019,175.87 76.0352,174.037 73.5,172C 72.6634,170.989 72.33,169.822 72.5,168.5C 72.5,167.833 72.8333,167.5 73.5,167.5C 82.3948,165.949 82.7281,166.782 74.5,170C 75.5358,171.617 76.7025,171.784 78,170.5C 81.8228,173.472 82.6561,173.139 80.5,169.5C 81.9684,167.667 83.6351,167.334 85.5,168.5C 84.3915,170.214 85.0582,170.881 87.5,170.5 Z"/></g>
<g><path style="opacity:0.999" fill="#93743b" d="M 56.5,190.5 C 56.5,193.5 56.5,196.5 56.5,199.5C 47.8333,199.5 39.1667,199.5 30.5,199.5C 29.8261,191.79 28.8261,184.123 27.5,176.5C 28.9305,176.579 30.2638,176.246 31.5,175.5C 34.1364,173.231 36.9697,171.231 40,169.5C 42.8187,173.993 46.9854,175.993 52.5,175.5C 54.5586,180.407 55.892,185.407 56.5,190.5 Z"/></g>
<g><path style="opacity:1" fill="#292d40" d="M 72.5,168.5 C 72.33,169.822 72.6634,170.989 73.5,172C 76.0352,174.037 78.7019,175.87 81.5,177.5C 80.675,178.386 79.675,178.719 78.5,178.5C 76.8561,178.714 75.3561,178.38 74,177.5C 71.8646,179.278 69.3646,179.945 66.5,179.5C 67.7563,175.313 69.7563,171.646 72.5,168.5 Z"/></g>
<g><path style="opacity:1" fill="#90713b" d="M 24.5,157.5 C 24.8333,157.5 25.1667,157.5 25.5,157.5C 27.1667,157.5 28.8333,157.5 30.5,157.5C 30.6658,162.179 30.4992,166.845 30,171.5C 29.6827,173.301 29.016,173.634 28,172.5C 27.1313,174.581 26.6313,176.747 26.5,179C 27.6054,182.87 27.6054,186.703 26.5,190.5C 28.051,193.359 29.051,196.359 29.5,199.5C 19.5,199.5 9.5,199.5 -0.5,199.5C -0.5,188.5 -0.5,177.5 -0.5,166.5C 7.05205,166.539 13.7187,164.206 19.5,159.5C 20.1667,159.5 20.5,159.167 20.5,158.5C 20.8333,158.5 21.1667,158.5 21.5,158.5C 22.391,157.89 23.391,157.557 24.5,157.5 Z"/></g>
<g><path style="opacity:1" fill="#3a4054" d="M 55.5,167.5 C 56.793,168.842 57.6264,170.509 58,172.5C 58.9282,178.713 60.0949,184.879 61.5,191C 61.3333,192.167 61.1667,193.333 61,194.5C 59.4135,190.656 58.4135,186.656 58,182.5C 57.5006,188.157 57.3339,193.824 57.5,199.5C 57.1667,199.5 56.8333,199.5 56.5,199.5C 56.5,196.5 56.5,193.5 56.5,190.5C 55.9295,182.846 55.5962,175.179 55.5,167.5 Z"/></g>
<g><path style="opacity:1" fill="#3f4960" d="M 78.5,178.5 C 78.3444,181.066 78.6777,183.566 79.5,186C 76.8777,190.512 76.8777,195.012 79.5,199.5C 77.5,199.5 75.5,199.5 73.5,199.5C 73.8537,195.363 73.3537,191.363 72,187.5C 70,185.5 68,183.5 66,181.5C 65.3333,182.167 64.6667,182.833 64,183.5C 63.7207,181.588 64.5541,180.254 66.5,179.5C 69.3646,179.945 71.8646,179.278 74,177.5C 75.3561,178.38 76.8561,178.714 78.5,178.5 Z"/></g>
<g><path style="opacity:1" fill="#54627c" d="M 100.5,156.5 C 104.802,166.291 106.969,176.624 107,187.5C 106.667,186.833 106.333,186.167 106,185.5C 105.667,187.5 105.333,189.5 105,191.5C 104,186.5 103,181.5 102,176.5C 101.827,180.541 101.327,184.541 100.5,188.5C 99.8099,185.81 98.1433,184.143 95.5,183.5C 92.9398,184.656 90.4398,184.656 88,183.5C 87.5357,184.094 87.369,184.761 87.5,185.5C 87.1667,185.5 86.8333,185.5 86.5,185.5C 86.5,181.833 86.5,178.167 86.5,174.5C 88.2048,176.192 90.2048,177.525 92.5,178.5C 94.3823,178.736 96.2157,178.736 98,178.5C 99.3802,171.221 100.214,163.888 100.5,156.5 Z"/></g>
<g><path style="opacity:0.999" fill="#957a42" d="M 104.5,153.5 C 106.703,155.417 108.369,157.75 109.5,160.5C 110.585,163.378 110.585,166.211 109.5,169C 111.71,173.991 113.543,179.158 115,184.5C 117.174,186.744 119.174,189.077 121,191.5C 121.333,189.953 120.833,188.62 119.5,187.5C 120.59,185.997 121.757,185.664 123,186.5C 124.087,184.068 124.587,184.402 124.5,187.5C 125.5,187.5 126.5,187.5 127.5,187.5C 129.5,187.833 131.5,188.167 133.5,188.5C 133.5,186.5 133.5,184.5 133.5,182.5C 132.167,182.5 130.833,182.5 129.5,182.5C 126.852,181.176 124.186,179.843 121.5,178.5C 120.737,175.859 120.57,173.192 121,170.5C 122.129,168.859 123.629,167.859 125.5,167.5C 124.375,169.129 123.041,170.629 121.5,172C 122.803,172.21 124.136,172.043 125.5,171.5C 127.707,174.203 130.541,175.869 134,176.5C 134.267,184.247 135.1,191.914 136.5,199.5C 129.5,199.5 122.5,199.5 115.5,199.5C 114.533,194.62 113.199,189.954 111.5,185.5C 110.331,179.3 108.664,173.3 106.5,167.5C 106.265,162.759 105.598,158.092 104.5,153.5 Z"/></g>
<g><path style="opacity:1" fill="#877e71" d="M 129.5,182.5 C 130.833,182.5 132.167,182.5 133.5,182.5C 133.5,184.5 133.5,186.5 133.5,188.5C 131.5,188.167 129.5,187.833 127.5,187.5C 126.032,186.221 125.365,184.554 125.5,182.5C 126.833,182.5 128.167,182.5 129.5,182.5 Z"/></g>
<g><path style="opacity:1" fill="#4b351a" d="M 86.5,185.5 C 86.8333,185.5 87.1667,185.5 87.5,185.5C 87.5,186.5 87.5,187.5 87.5,188.5C 86.6236,188.369 85.9569,188.702 85.5,189.5C 86.3256,190.451 86.4922,191.451 86,192.5C 84.3084,192.324 82.8084,191.824 81.5,191C 83.3076,189.156 84.9743,187.323 86.5,185.5 Z"/></g>
<g><path style="opacity:1" fill="#617288" d="M 98.5,147.5 C 99.7942,148.29 100.961,149.29 102,150.5C 103.327,156.338 104.827,162.005 106.5,167.5C 108.664,173.3 110.331,179.3 111.5,185.5C 112.167,190.167 112.833,194.833 113.5,199.5C 105.833,199.5 98.1667,199.5 90.5,199.5C 89.371,195.848 88.371,192.182 87.5,188.5C 87.5,187.5 87.5,186.5 87.5,185.5C 87.369,184.761 87.5357,184.094 88,183.5C 90.4398,184.656 92.9398,184.656 95.5,183.5C 98.1433,184.143 99.8099,185.81 100.5,188.5C 101.327,184.541 101.827,180.541 102,176.5C 103,181.5 104,186.5 105,191.5C 105.333,189.5 105.667,187.5 106,185.5C 106.333,186.167 106.667,186.833 107,187.5C 106.969,176.624 104.802,166.291 100.5,156.5C 99.6562,153.655 98.9896,150.655 98.5,147.5 Z"/></g>
<g><path style="opacity:1" fill="#8c703a" d="M 146.5,180.5 C 148.115,178.626 150.115,177.292 152.5,176.5C 152.194,173.615 152.527,170.948 153.5,168.5C 153.5,178.833 153.5,189.167 153.5,199.5C 147.833,199.5 142.167,199.5 136.5,199.5C 135.1,191.914 134.267,184.247 134,176.5C 130.541,175.869 127.707,174.203 125.5,171.5C 124.136,172.043 122.803,172.21 121.5,172C 123.041,170.629 124.375,169.129 125.5,167.5C 126.209,166.596 127.209,166.263 128.5,166.5C 128.215,168.288 128.548,169.955 129.5,171.5C 130.086,171.291 130.586,170.957 131,170.5C 132.378,172.213 134.045,173.547 136,174.5C 139.048,179.623 141.548,184.956 143.5,190.5C 143.896,186.737 144.896,183.403 146.5,180.5 Z"/></g>
<g><path style="opacity:1" fill="#313133" d="M 111.5,185.5 C 113.199,189.954 114.533,194.62 115.5,199.5C 114.833,199.5 114.167,199.5 113.5,199.5C 112.833,194.833 112.167,190.167 111.5,185.5 Z"/></g>
</svg>
